<svg xmlns="http://www.w3.org/2000/svg" viewBox="0 0 862.46 1202.94">
    <defs>
        <style>
            .cls-5 {
            fill: black;
            opacity: 0.2;
            }
        </style>
    </defs>
    <title>Nifty_Stan</title>
    <g class="cls-1">
        <g id="Background_Layer" opacity="1" fill="gray">
            <rect width="862.46" height="1202.94" rx="12" />
        </g>
        <g id="Football" opacity="0">
            <circle class="cls-3" cx="364.53" cy="1100.95" r="75.15" />
        </g>
        <g id="Body" opacity="1" fill="white">
            <path  d="M598.2,277.61S537.84,244.55,479,232.46l-3.19-29-.58-7.66h32.91L501.55,136l20.14-3.83s-5.79-50.14-17.33-92.45c0,0-38.46-8.62-71.3-8.62-38.87,0-70.37,31.2-70.37,70.87a72.5,72.5,0,0,0,9.7,36.34L362,232.46c-58.86,12.09-119.22,45.15-119.22,45.15-135.11,193.45-35.27,408-35.27,408H263.1l-1.53-59.72H223.11c-11.26-71.83,66.61-109.8,26.27-168.22L285.07,422V625.87H555.93V422l35.69,35.63c-40.34,58.42,37.53,96.39,26.27,168.22H579.43l-1.53,59.72h55.57S733.31,471.06,598.2,277.61Z" transform="translate(7.89 9.38)" />
            <path class="cls-5" d="M364.73,119.16h0l.06.26h0A2.5,2.5,0,0,1,364.73,119.16Z" transform="translate(7.89 9.38)" />
            <path class="cls-5" d="M365.43,121.84h0c0,.07.05.14.07.21S365.45,121.91,365.43,121.84Z" transform="translate(7.89 9.38)" />
            <polygon class="cls-5" points="377.99 170.21 380.28 147.71 380.28 147.71 377.99 170.21 377.99 170.21" />
            <path class="cls-5" d="M371.1,136l-.36-.71h0l.36.71Z" transform="translate(7.89 9.38)" />
            <path class="cls-5" d="M511.5,241A328.72,328.72,0,0,0,479,232.46l-3.19-29-.58-7.66h32.62l0-.48-80.94-30.69V116.28H399.92c.1.8.23,1.61.4,2.42a29.48,29.48,0,0,0,4.09,10L370.2,161.13l97.13,94.42h45.1Z" transform="translate(7.89 9.38)" />
            <path class="cls-5" d="M366.27,124.57h0c.06.2.12.4.19.59h0C366.39,125,366.33,124.77,366.27,124.57Z" transform="translate(7.89 9.38)" />
            <path class="cls-5" d="M369.51,132.78h0c.12.26.24.52.37.78h0C369.75,133.31,369.63,133,369.51,132.78Z" transform="translate(7.89 9.38)" />
            <polygon class="cls-5" points="375.26 137.12 375.26 137.12 375.26 137.12 375.26 137.12" />
            <path class="cls-5" d="M555.93,625.87H285.07l-59.73,512.71H248.8c6.57-97,123.13-147.71,76-260.57l95.7-156,95.7,156c-47.13,112.86,69.43,163.6,76,260.57h23.46Z" transform="translate(7.89 9.38)" />
            <path  d="M555.93,625.87H285.07l-59.73,512.71H248.8c6.57-97,123.13-147.71,76-260.57l95.7-156,95.7,156c-47.13,112.86,69.43,163.6,76,260.57h23.46Z" transform="translate(7.89 9.38)" />
            <path class="cls-5" d="M324.8,878h0L378,791.21l-30.72-7.94s1.87,77.58-63.81,77.58v23H255.18l-29.84,254.75H248.8c.08-1.14.18-2.27.29-3.4C258.11,1040.41,371.38,989.54,324.8,878Z" transform="translate(7.89 9.38)" />
            <path class="cls-5" d="M585.82,883.83H557.49v-23c-65.68,0-63.81-77.58-63.81-77.58L463,791.21,516.2,878h0c-46.58,111.53,66.69,162.4,75.71,257.17.11,1.13.21,2.26.29,3.4h23.46Z" transform="translate(7.89 9.38)" />
            <path class="cls-5" d="M426.86,164.67V108.8s57,11.81,48.18,76.33Z" transform="translate(7.89 9.38)" />
            <ellipse cx="413.33" cy="115.86" rx="13.31" ry="20.66" transform="translate(-6.92 94.28) rotate(-11.52)" />
            <path class="cls-5" d="M634.65,679.67c-27.15-3.95-43.11-15-56-21.81l-.71,27.73h54.42S633.19,683.54,634.65,679.67Z" transform="translate(7.89 9.38)" />
            <path class="cls-5" d="M207.53,685.59H263.1l-1.27-28.05c-12.77,6.81-29,18.12-56.63,22.13C206.65,683.54,207.53,685.59,207.53,685.59Z" transform="translate(7.89 9.38)" />
            <path class="cls-5" d="M285.07,423l.35-.93V387.25c-.37,12-6,61-72.13,71.31L258.6,509c4.48-16.19,3.66-32.71-9.22-51.37L285.07,422Z" transform="translate(7.89 9.38)" />
            <path class="cls-5" d="M555.58,387.25V422l.35.93V422l35.69,35.63c-12.88,18.66-13.7,35.18-9.22,51.37l45.31-50.46C561.54,448.22,556,399.25,555.58,387.25Z" transform="translate(7.89 9.38)" />
            <path class="cls-5" d="M555.58,387.25V384.6S555.53,385.55,555.58,387.25Z" transform="translate(7.89 9.38)" />
            <path class="cls-5" d="M285.42,384.6v2.65C285.47,385.55,285.42,384.6,285.42,384.6Z" transform="translate(7.89 9.38)" />
        </g>
        <g id="Hair_Top" opacity="1" fill="yellow">
            <path d="M428.88,31.25c-.82.05-1.63.11-2.44.19l-.86.07-1.48.19-1.64.21-.59.1c-.84.13-1.68.28-2.52.44l-1,.21c-.76.16-1.52.33-2.28.52l-.8.19c-1,.25-1.92.53-2.87.81l-.95.31c-.66.21-1.32.43-2,.66l-1.11.4q-.89.33-1.74.69l-.26.1-1.07.44c-.74.31-1.47.64-2.19,1l-.12.06-1.21.59-.71.36-.76.39c-.42.22-.85.44-1.26.67s-1,.57-1.5.87c-.7.4-1.39.82-2.07,1.25l-1.15.74c-.48.31-.94.63-1.41,1l-.94.67c-.83.6-1.65,1.22-2.45,1.86l0,0q-1.22.94-2.37,1.95l-.6.52c-.51.45-1,.9-1.5,1.37l-.1.09-.34.32q-2.44,2.34-4.67,4.9l-.08.09-.18.21a71.18,71.18,0,0,0-5.77,7.78l-.07.12a68.57,68.57,0,0,0-4.74,8.73h90.1L465.7,52.9l42-.07c-1.05-4.42-2.14-8.81-3.31-13.09,0,0-38.46-8.62-71.3-8.62-1.09,0-2.17,0-3.25.08Z" transform="translate(7.89 9.38)" />
        </g>
        <g id="Hair_Bottom" opacity=".8" fill="green">
            <path d="M370.08,161.08l.12,0,34.21-32.38a29.48,29.48,0,0,1-4.09-10c-2.34-11.16,1.58-21.49,8.76-23.06S424,101.84,426.33,113a29.09,29.09,0,0,1,.5,3.27h18.53l-1.16-27h9.25L465.7,52.9l42.08-.07c-.36-1.45-1.88-7.28-2.25-8.71l0-.08c-.38-1.44-.76-2.88-1.15-4.3,0,0-38.46-8.62-71.3-8.62-38.87,0-70.37,31.2-70.37,70.87a72.5,72.5,0,0,0,9.7,36.34Z" transform="translate(7.89 9.38)" />
        </g>
        <g id="Eye" opacity=".75" fill="black">
            <polygon points="474.56 98.84 510.47 98.84 506.19 105.97 493.37 105.97 495.08 112.45 474.56 98.84" />
        </g>
        <g id="Beard" opacity="1" fill="brown">
            <path d="M475.21,195.84h32.91l-3.43-30h-5.32V175s-52.42-.5-54-58.72h-18.5v48.39s16.46,21.93,48.4,31.93Z" transform="translate(7.89 9.38)" />
        </g>
        <g id="Moustache" opacity="1" fill="brown">
            <path d="M511.61,134.11h-19c-11.42,0-19.51,10.25-19.51,18.76h0V170h0a11.19,11.19,0,0,0,11.07-11.3v-5.83h10.29C505.78,152.87,512,142.53,511.61,134.11Z" transform="translate(7.89 9.38)" />
        </g>
        <g id="Socks" opacity="1" fill="green">
            <path d="M225.34,1138.58H248.8c6-88.24,103-138.2,84.93-231.51H252.46Z" transform="translate(7.89 9.38)" />
            <path d="M615.66,1138.58,588.54,907.07H507.27c-18.08,93.31,79,143.27,84.93,231.51Z" transform="translate(7.89 9.38)" />
        </g>
        <g id="Upper_Sock" opacity="1" fill="blue">
            <path d="M252.46,907.07l-6.72,57.33h85.05a117.55,117.55,0,0,0,2.94-57.33Z" transform="translate(7.89 9.38)" />
            <path d="M588.54,907.07H507.27a117.55,117.55,0,0,0,2.94,57.33h85.05Z" transform="translate(7.89 9.38)" />
        </g>
        <g id="Sock_Stripes" opacity="1" fill="yellow">
            <path d="M242.63,991l-3.73,31.87h62.61A342.24,342.24,0,0,0,320.08,991Z" transform="translate(7.89 9.38)" />
            <path d="M263.89,1084.78A314.43,314.43,0,0,1,282,1052.92H235.38l-3.74,31.86Z" transform="translate(7.89 9.38)" />
            <path d="M605.62,1052.92H559.05a314.43,314.43,0,0,1,18.06,31.86h32.25Z" transform="translate(7.89 9.38)" />
            <path d="M520.92,991a342.24,342.24,0,0,0,18.57,31.87H602.1L598.37,991Z" transform="translate(7.89 9.38)" />
        </g>
        <g id="Boots" opacity="1" fill="black">
            <path d="M215.83,1099.45c20.82,11.81,12.72,34.9,12.72,34.9h22l-2.31,32.38H149.92L219.3,1136Z" transform="translate(7.89 9.38)" />
            <path d="M625.17,1099.45c-20.82,11.81-12.72,34.9-12.72,34.9h-22l2.31,32.38h98.29L621.7,1136Z" transform="translate(7.89 9.38)" />
        </g>
        <g id="Shorts" opacity="1" fill="cyan">
            <polygon  points="563.81 635.25 428.39 635.25 292.96 635.25 270.02 833.83 402.54 833.83 428.39 777.27 454.24 833.83 586.75 833.83 563.81 635.25" />
        </g>
        <g id="Go_Faster_stripe_Shorts" opacity="1" fill="blue">
            <polygon  points="586.75 833.83 563.81 635.25 563.81 635.25 555.33 635.63 578.11 833.83 586.75 833.83 586.75 833.83" />
            <polygon  points="270.02 833.83 270.03 833.83 278.67 833.83 301.59 635.64 293.11 635.25 292.96 635.25 270.02 833.83" />
        </g>
        <g id="Go_Faster_Stripe_x_2" opacity="0" fill="red">
            <polygon  points="586.75 833.83 563.81 635.25 563.81 635.25 555.33 635.63 578.11 833.83 586.75 833.83 586.75 833.83" />
            <polygon  points="270.02 833.83 270.03 833.83 278.67 833.83 301.59 635.64 293.11 635.25 292.96 635.25 270.02 833.83" />
            <polygon  points="572.47 833.83 549.53 635.25 549.53 635.25 541.04 635.63 563.82 833.83 572.46 833.83 572.47 833.83" />
            <polygon  points="284.31 833.83 284.31 833.83 292.95 833.83 315.88 635.64 307.39 635.25 307.25 635.25 284.31 833.83" />
        </g>
        <g id="Short_Sleeve" opacity="1" fill="purple">
            <path d="M574.32,440.38h89.53A387.17,387.17,0,0,0,598.2,277.61S537.84,244.55,479,232.46h0a99.19,99.19,0,0,1-117,0h0c-58.86,12.09-119.22,45.15-119.22,45.15a387.17,387.17,0,0,0-65.65,162.77h89.53L285.07,422V625.87H555.93V422Z" transform="translate(7.89 9.38)" />
        </g>
        <g id="Long_Sleeve" opacity="1" fill="pink">
            <path d="M591.62,457.65c-40.34,58.42,37.53,96.39,26.27,168.22h35.68c20-77.29,35.9-217.58-55.37-348.26,0,0-60.36-33.06-119.22-45.15h0a99.19,99.19,0,0,1-117,0h0c-58.86,12.09-119.22,45.15-119.22,45.15-91.27,130.68-75.33,271-55.37,348.26h35.68c-11.26-71.83,66.61-109.8,26.27-168.22L285.07,422V625.87H555.93V422Z" transform="translate(7.89 9.38)" />
        </g>
        <g id="ShortSleeve_cuff" opacity="0" fill="orange">
            <path d="M180.5,422q-1.91,9.24-3.35,18.36h89.53L285.07,422Z" transform="translate(7.89 9.38)" />
            <path d="M663.85,440.38q-1.44-9.11-3.35-18.36H555.93l18.39,18.36Z" transform="translate(7.89 9.38)" />
        </g>
        <g id="Cuff" opacity="1" fill="green">
            <path d="M616.69,590.86a92.87,92.87,0,0,1,1.2,35h35.68c2.73-10.55,5.37-22.29,7.69-35Z" transform="translate(7.89 9.38)" />
            <path d="M179.74,590.86c2.32,12.72,5,24.46,7.69,35h35.68a92.87,92.87,0,0,1,1.2-35Z" transform="translate(7.89 9.38)" />
        </g>
        <g id="Neckline" opacity="1" fill="green">
            <path d="M420.5,271.21a119.86,119.86,0,0,0,82.82-32.68c-8-2.33-16.2-4.4-24.34-6.07h0a99.19,99.19,0,0,1-117,0h0c-8.14,1.67-16.31,3.74-24.34,6.07A119.86,119.86,0,0,0,420.5,271.21Z" transform="translate(7.89 9.38)" />
        </g>
        <g id="Pectoral_Shadow" class="cls-5">
            <g>
                <polygon points="292.96 383.98 292.96 450.45 370.58 450.45 292.96 383.98" />
                <polygon points="564.08 383.98 564.08 450.45 486.45 450.45 564.08 383.98" />
            </g>
        </g>
    </g>
</svg>