<svg xmlns="http://www.w3.org/2000/svg" xmlns:xlink="http://www.w3.org/1999/xlink" x="0" y="0" version="1.1" viewBox="0 0 841.89 1190.55" xml:space="preserve" style="enable-background:new 0 0 841.89 1190.55"><style type="text/css"/><switch><g><g id="Background" fill="#247209" opacity="1"><path d="M846.07-8.88H7.61c-7.6,0-13,5.4-13,12v1178.94c0,6.6,5.4,12,12,12h838.46c6.6,0,12-5.4,12-12V3.12 C857.07-3.48,851.67-8.88,846.07-8.88z" class="st0"/></g><g id="Body" fill="#0ff" opacity="1"><path d="M598.2,277.61c0,0-60.36-33.06-119.22-45.15l-3.19-28.96l-0.58-7.66h32.91l-6.57-59.82l20.14-3.83 c0,0-5.69-38.44-15.19-85.94c-0.01-0.04-35-16.25-73.44-15.13c-38.85,1.13-70.37,31.2-70.37,70.87c0,13.27,3.55,25.68,9.7,36.34 l-10.37,94.12c-58.86,12.09-119.22,45.15-119.22,45.15c-135.11,193.46-35.27,407.98-35.27,407.98h1.16h54.42l-1.53-59.72h-38.47 c-11.26-71.83,66.62-109.8,26.27-168.22l35.7-35.63v203.85l0,0h101.79h1.16h64.95h1.16h101.79l0,0V422.02l35.7,35.63 c-40.34,58.42,37.53,96.39,26.27,168.22h-38.47l-1.53,59.72h54.42h1.16C633.47,685.59,733.31,471.06,598.2,277.61z" class="st1"/><line x1="370.1" x2="370.1" y1="160.83" y2="160.83" class="st2"/><path d="M555.93,625.87H420.5H285.07l-59.73,512.71h23.46c6.57-96.98,123.14-147.71,76-260.57l95.7-156.03 l95.7,156.03c-47.14,112.85,69.43,163.59,76,260.57h23.46L555.93,625.87z" class="st1"/><g><path d="M324.8,878.01L324.8,878.01l53.24-86.8l-30.72-7.94c0,0,1.88,77.57-63.8,77.57v22.98h-28.33l-29.84,254.75 h23.46c0.08-1.14,0.18-2.27,0.29-3.4C258.11,1040.41,371.38,989.54,324.8,878.01z" class="st2"/><path d="M585.82,883.83h-28.33v-22.98c-65.68,0-63.8-77.57-63.8-77.57l-30.72,7.94l53.24,86.8v0 c-46.58,111.52,66.69,162.39,75.71,257.16c0.11,1.13,0.22,2.27,0.29,3.4h23.46L585.82,883.83z" class="st2"/></g><path d="M483.47,186.13c11.34-80.56-56.61-77.33-56.61-77.33v7.48v5.96v42.44L483.47,186.13z" class="st3"/><g><path d="M634.65,679.67c-27.15-3.95-43.11-14.96-56.03-21.81l-0.71,27.73h54.42 C632.32,685.59,633.19,683.54,634.65,679.67z" class="st2"/><path d="M207.53,685.59h55.58l-1.27-28.05c-12.77,6.82-29.06,18.12-56.64,22.13 C206.65,683.54,207.53,685.59,207.53,685.59z" class="st2"/></g><g><path d="M285.07,422.95l0.35-0.93v-34.77c-0.37,11.99-5.96,60.97-72.13,71.31l45.32,50.46 c4.48-16.19,3.66-32.71-9.23-51.37l35.7-35.63V422.95z" class="st2"/><path d="M555.58,387.25v34.77l0.35,0.93v-0.93l35.7,35.63c-12.88,18.66-13.7,35.18-9.23,51.37l45.32-50.46 C561.54,448.22,555.95,399.25,555.58,387.25z" class="st2"/><path d="M555.58,387.25v-2.66C555.58,384.6,555.53,385.55,555.58,387.25z" class="st2"/><path d="M285.42,384.6v2.66C285.47,385.55,285.42,384.6,285.42,384.6z" class="st2"/></g><ellipse cx="413.33" cy="115.86" class="st1" rx="13.31" ry="20.66" transform="matrix(0.9798 -0.1997 0.1997 0.9798 -14.8126 84.8968)"/><path d="M511.5,241.01c-1.23-0.39-2.47-0.77-3.7-1.14c-0.08-0.02-0.15-0.05-0.23-0.07 c-0.09-0.03-0.18-0.06-0.27-0.08c-2.49-0.75-4.99-1.48-7.5-2.18c-0.07-0.02-0.13-0.04-0.2-0.06c-0.15-0.04-0.31-0.09-0.46-0.13 c-1.25-0.35-2.5-0.69-3.75-1.02c-0.03-0.01-0.06-0.02-0.1-0.03c-1.19-0.31-2.37-0.62-3.56-0.92c-0.27-0.07-0.55-0.14-0.82-0.21 c-1.23-0.31-2.46-0.61-3.69-0.9c-0.02,0-0.04-0.01-0.06-0.01c-0.01,0-0.03-0.01-0.04-0.01c-1.18-0.28-2.36-0.55-3.55-0.81 c-0.16-0.04-0.33-0.07-0.49-0.11c-0.14-0.03-0.28-0.06-0.42-0.09c-1.21-0.27-2.43-0.53-3.64-0.78c0,0-0.01,0-0.01,0l-3.19-28.96 l-0.58-7.66h32.62l-0.03-0.49l-80.94-30.69v-42.44c-0.18,1.76-0.52,3.41-1.01,4.94c-0.02,0.07-0.04,0.13-0.07,0.2 c-0.34,1.01-0.74,1.96-1.21,2.83c-0.08,0.15-0.16,0.29-0.24,0.44c-0.13,0.22-0.26,0.45-0.4,0.66c-0.12,0.19-0.26,0.38-0.39,0.56 c-0.17,0.24-0.35,0.48-0.53,0.7c-0.18,0.23-0.37,0.44-0.57,0.65c-0.12,0.12-0.24,0.24-0.36,0.36c-0.2,0.2-0.41,0.38-0.63,0.56 c-0.1,0.08-0.2,0.17-0.3,0.25c-0.32,0.24-0.64,0.46-0.98,0.66c-0.09,0.05-0.18,0.09-0.27,0.14c-0.28,0.15-0.56,0.29-0.85,0.41 c-0.11,0.04-0.21,0.09-0.32,0.13c-0.38,0.14-0.77,0.27-1.17,0.35c-7.18,1.57-14.91-6.21-17.25-17.37 c-1.45-6.92-0.5-13.52,2.15-17.91l-39.73-1.19c-0.03,0.79-0.06,1.58-0.06,2.38c0,13.27,3.55,25.68,9.7,36.34l-2.49,22.61 l0.3,0.19l97.13,94.42h45.1L511.5,241.01z" class="st2"/></g><g id="Hair_Bottom_Layer" fill="#ff0" opacity="1"><path d="M459.17,72.28L459.17,72.28l6.52-19.38l42.08-0.06c-0.03-0.1-0.06-0.24-0.1-0.38l0.01-0.14 c-0.39-2-0.79-4.02-1.2-6.06c-0.01-0.04-35-16.25-73.44-15.13c-31.45,0.92-58.09,20.8-67.1,49.38c-0.09,0.28-0.17,0.56-0.25,0.83 c-0.23,0.78-0.45,1.56-0.66,2.34c-0.13,0.51-0.26,1.03-0.38,1.54c-0.15,0.62-0.29,1.23-0.43,1.86c-0.14,0.67-0.26,1.35-0.39,2.03 c-0.09,0.51-0.19,1.03-0.27,1.54c-0.12,0.78-0.22,1.57-0.32,2.36c-0.06,0.45-0.12,0.89-0.17,1.34c-0.09,0.88-0.16,1.78-0.22,2.67 c-0.03,0.37-0.06,0.74-0.08,1.12c-0.07,1.27-0.1,2.55-0.1,3.85c0,13.27,3.55,25.68,9.7,36.34v0l0,0l-2.31,22.75l0.12,0.05 l34.21-32.38c-1.83-2.79-3.28-6.21-4.09-10.05c-2.35-11.17,1.58-21.49,8.76-23.07c7.18-1.57,14.91,6.21,17.25,17.37 c0.23,1.1,0.38,2.19,0.5,3.27l0.03,0h18.5l-1.16-27.01h9.25L459.17,72.28z"/></g><g id="Hair_Top_Layer" fill="#ff0" opacity="1"><path d="M507.78,52.83c-0.03-0.1,1.58-17.09,1.58-17.09S399.67,0,369.07,72.27c0,0,0,0,0,0v0l0,0h0h90.1h0 l6.52-19.38L507.78,52.83z"/></g><g id="Eye"><polygon points="466.67 89.47 502.58 89.47 498.3 96.59 485.48 96.59 487.19 103.07"/></g><g id="Beard" fill="#ff0" opacity="0"><path d="M475.21,195.84h32.91v0l-3.29-29.99h-5.46v4.65c0,0-52.41,4-54-54.22h-18.5c0,0,0,16.56,0,48.39 C444.5,186,475.21,195.84,475.21,195.84z" class="st7"/></g><g id="Moustache" fill="#ff0" opacity="0"><path d="M484.18,158.7v-5.84l19.21-0.1l-1.84-16.74h-8.93c-11.42,0-19.5,8.34-19.5,16.85v0V170 C479.22,170,484.18,164.94,484.18,158.7z" class="st7"/></g><g id="Stubble" fill="#ff0" opacity="0"><path d="M504.82,165.85h-5.46v4.65c0,0-9.05,0.69-19.74-2.68c2.75-2.05,4.55-5.37,4.55-9.12v-5.84l19.21-0.1 l-1.84-16.74h-8.93c-11.42,0-19.5,8.34-19.5,16.85v0v12.42c-13.35-6.25-26.95-19.79-27.75-49.01h-18.5c0,0,0,16.56,0,48.39 c17.64,21.33,48.35,31.17,48.35,31.17h32.91v0L504.82,165.85z" class="st8"/></g><g id="Socks" fill="red" opacity="1"><g><path d="M225.34,1138.58h23.46c5.98-88.24,103.01-138.21,84.93-231.51h-81.27L225.34,1138.58z" class="st9"/><path d="M615.66,1138.58l-27.12-231.51h-81.27c-18.08,93.31,78.96,143.27,84.93,231.51H615.66z" class="st9"/></g></g><g id="Upper_Sock" fill="red" opacity="1"><g><path d="M252.46,907.07l-6.71,57.33h85.04c5.24-17.54,7.01-36.34,2.95-57.33H252.46z" class="st10"/><path d="M588.54,907.07h-81.27c-4.07,21-2.3,39.79,2.95,57.33h85.04L588.54,907.07z" class="st10"/></g></g><g id="Sock_Stripes" fill="red" opacity="1"><g><path d="M242.63,990.95l-3.73,31.87h62.61c6.72-10.46,13.14-20.99,18.57-31.87H242.63z" class="st10"/><path d="M263.89,1084.78c5.27-10.97,11.5-21.51,18.06-31.87h-46.57l-3.73,31.87H263.89z" class="st10"/><path d="M605.62,1052.92h-46.57c6.56,10.36,12.79,20.9,18.06,31.87h32.25L605.62,1052.92z" class="st10"/><path d="M520.92,990.95c5.43,10.87,11.85,21.41,18.57,31.87h62.61l-3.73-31.87H520.92z" class="st10"/></g></g><g id="Boots" fill="#000" opacity="1"><g><path d="M215.83,1099.45c20.81,11.8,12.72,34.9,12.72,34.9h20.97l0.69,32.38H149.92l69.38-30.69L215.83,1099.45z"/><path d="M625.17,1099.45c-20.81,11.8-12.72,34.9-12.72,34.9h-20.97l-0.69,32.38h100.29l-69.38-30.69L625.17,1099.45z"/></g></g><g id="Shorts" fill="red" opacity="1"><polygon points="555.93 625.87 420.5 625.87 285.07 625.87 261.94 824.46 394.22 824.46 420.5 767.89 446.78 824.46 579.06 824.46" class="st11"/></g><g id="Short_trim" fill="red" opacity="0"><g><polygon points="446.78 824.46 579.06 824.46 577.08 807.44 438.87 807.44" class="st10"/><polygon points="402.13 807.44 263.92 807.44 261.94 824.46 394.22 824.46" class="st10"/></g></g><g id="Short_Sleeve" fill="red" opacity="0"><path d="M574.32,440.38h89.53c-8.3-52.44-27.7-108.44-65.65-162.77c0,0-60.36-33.06-119.22-45.15l0,0 c-34.84,25.43-82.12,25.43-116.96,0l0,0c-58.86,12.09-119.22,45.15-119.22,45.15c-37.95,54.34-57.35,110.33-65.65,162.77h89.53 l18.39-18.36v203.85h101.79h1.16h64.95h1.16h101.79V422.02L574.32,440.38z" class="st11"/></g><g id="Long_Sleeve" fill="red" opacity="1"><path d="M591.62,457.65c-40.34,58.42,37.53,96.39,26.27,168.22h35.68c19.96-77.29,35.9-217.58-55.37-348.26 c0,0-60.36-33.06-119.22-45.15l0,0c-34.84,25.43-82.12,25.43-116.96,0l0,0c-58.86,12.09-119.22,45.15-119.22,45.15 c-91.27,130.68-75.32,270.98-55.37,348.26h35.68c-11.26-71.83,66.62-109.8,26.27-168.22l35.7-35.63v203.85h101.79h1.16h64.95 h1.16h101.79V422.02L591.62,457.65z" class="st12"/><g><path d="M493.56,235.86c2.14,0.55,4.27,1.12,6.39,1.72C497.83,236.98,495.7,236.41,493.56,235.86z" class="st12"/><path d="M500.73,237.8c1.88,0.53,3.76,1.08,5.63,1.64C504.49,238.88,502.61,238.33,500.73,237.8z" class="st12"/><path d="M478.98,232.46c2.12,0.43,4.24,0.91,6.36,1.39C483.22,233.36,481.1,232.89,478.98,232.46z" class="st12"/><path d="M355.67,233.85c2.12-0.49,4.24-0.96,6.36-1.39C359.9,232.89,357.78,233.36,355.67,233.85z" class="st12"/><path d="M487.1,234.26c1.68,0.4,3.36,0.81,5.04,1.23C490.46,235.07,488.78,234.66,487.1,234.26z" class="st12"/><path d="M334.64,239.44c1.87-0.56,3.75-1.11,5.63-1.64C338.39,238.33,336.51,238.88,334.64,239.44z" class="st12"/><path d="M348.86,235.5c1.68-0.43,3.36-0.84,5.04-1.23C352.22,234.66,350.54,235.07,348.86,235.5z" class="st12"/><path d="M341.05,237.58c2.12-0.59,4.25-1.17,6.39-1.72C345.3,236.41,343.17,236.98,341.05,237.58z" class="st12"/></g></g><g id="LongSleeve" fill="red" opacity="1"><g><path d="M187.43,625.87h35.68c-11.26-71.83,66.62-109.8,26.27-168.22l35.7-35.63v-34.77L242.8,277.61 C151.53,408.29,167.47,548.58,187.43,625.87z" class="st13"/><path d="M653.57,625.87h-35.68c11.26-71.83-66.62-109.8-26.27-168.22l-35.7-35.63v-34.77l42.28-109.65 C689.47,408.29,673.53,548.58,653.57,625.87z" class="st13"/></g></g><g id="ShortSleeve" fill="red" opacity="0"><g><path d="M285.07,387.25L242.8,277.61c-37.95,54.34-57.35,110.33-65.65,162.77h89.53l18.39-18.36V387.25z" class="st14"/><path d="M555.93,387.25v34.77l18.39,18.36h89.53c-8.3-52.44-27.7-108.44-65.65-162.77L555.93,387.25z" class="st14"/></g></g><g id="Hoops_Long_Sleeve" fill="red" opacity="0"><g><rect width="270.85" height="48.92" x="285.07" y="450.65" class="st15"/><rect width="270.85" height="48.92" x="285.07" y="352.28" class="st15"/><path d="M285.07,302.83h270.85v-45.3c-2.82-1.2-5.73-2.41-8.73-3.62H391.4h-97.6c-3,1.22-5.91,2.43-8.73,3.62 V302.83z" class="st15"/><rect width="270.85" height="48.92" x="285.07" y="549.02" class="st15"/></g></g><g id="Hoops_Short_Sleeve" fill="red" opacity="0"><g><rect width="270.85" height="48.92" x="285.07" y="450.65" class="st16"/><rect width="270.85" height="48.92" x="285.07" y="352.28" class="st16"/><path d="M285.07,302.83h270.85v-45.3c-2.82-1.2-5.73-2.41-8.73-3.62H293.8c-3,1.22-5.91,2.43-8.73,3.62V302.83z" class="st16"/><rect width="270.85" height="48.92" x="285.07" y="549.02" class="st16"/></g></g><g id="Stripe" fill="red" opacity="0"><g><path d="M393.7,247.85v378.02h53.59V247.85C429.78,252.76,411.22,252.76,393.7,247.85z" class="st17"/><path d="M502.19,625.87h53.59v-368.4c-15.61-6.63-34.23-13.71-53.59-19.26V625.87z" class="st17"/><path d="M338.81,238.21c-19.36,5.55-37.99,12.63-53.59,19.26v368.4h53.59V238.21z" class="st17"/></g></g><g id="Boca_Stripe" fill="red" opacity="0"><rect width="270.85" height="83.21" x="285.07" y="380.19" class="st18"/></g><g id="Rovers_Shirt_Panel_Long_Sleeve" fill="red" opacity="0"><path d="M598.2,277.61c0,0-60.36-33.06-119.22-45.15l0,0c-17.42,12.72-37.95,19.07-58.48,19.07v42.5v331.84h32.48 h1.16h101.79V422.02l0,0v0l35.7,35.63c-8.83,12.78-11.99,24.58-11.68,35.97c0.05,1.63,0.16,3.25,0.34,4.86 c0.18,1.61,0.43,3.22,0.73,4.82c0.15,0.8,0.32,1.6,0.5,2.4c1.27,5.59,3.21,11.12,5.56,16.67c1.68,3.97,3.56,7.94,5.56,11.95 c0.8,1.6,1.61,3.22,2.44,4.83c0.41,0.81,0.83,1.62,1.25,2.43c2.09,4.06,4.23,8.18,6.32,12.37c0.42,0.84,0.83,1.68,1.25,2.52 c2.89,5.91,5.65,11.99,7.99,18.3c3.69,9.91,6.37,20.4,7,31.74c0.17,3.09,0.19,6.25,0.03,9.47c-0.16,3.22-0.49,6.52-1.02,9.88 h35.68C673.53,548.58,689.47,408.29,598.2,277.61z" class="st19"/></g><g id="Rovers_Shirt_Panel_Short_Sleeve" fill="red" opacity="0"><path d="M663.85,440.38c-8.3-52.44-27.7-108.44-65.65-162.77c0,0-60.36-33.06-119.22-45.15l0,0 c-17.42,12.72-37.95,19.07-58.48,19.07v42.5v331.84h32.48h1.16h101.79V422.02l0,0v0l18.39,18.36h21.61H663.85z" class="st20"/></g><g id="Pinstripe" fill="#ff0" opacity="1"><g><path d="M362.02,232.46L362.02,232.46c-1.15,0.24-2.3,0.48-3.45,0.73v392.68h15.61V240.04 C370,237.82,365.93,235.31,362.02,232.46z" class="st12"/><path d="M303.94,249.92v375.95h15.61v-381.6C314.21,246.1,308.99,248,303.94,249.92z" class="st12"/><path d="M522.48,244.62v381.25h15.61V250.31C533.05,248.38,527.83,246.47,522.48,244.62z" class="st12"/><path d="M478.98,232.46L478.98,232.46c-3.59,2.62-7.31,4.95-11.14,7.03v386.38h15.61V233.42 C481.96,233.09,480.47,232.76,478.98,232.46z" class="st12"/><path d="M413.21,251.26v374.61h15.61v-374.7C423.63,251.61,418.41,251.64,413.21,251.26z" class="st12"/></g></g><g id="Villa_style_LS" fill="red" opacity="0"><path d="M515.89,242.42c44.75,14.62,82.31,35.19,82.31,35.19c91.27,130.68,75.32,270.98,55.37,348.26h-35.68 c11.26-71.83-66.62-109.8-26.27-168.22l-35.7-35.63v203.85h-40.03V242.42z M325.11,625.87V242.42 c-44.75,14.62-82.31,35.19-82.31,35.19c-91.27,130.68-75.32,270.98-55.37,348.26h35.68c-11.26-71.83,66.62-109.8,26.27-168.22 l35.7-35.63v203.85H325.11z" class="st21"/></g><g id="Villa_Style_SS" fill="red" opacity="0"><g><path d="M246.6,275.59c-0.02,0.01-0.05,0.03-0.07,0.04c-0.78,0.41-1.45,0.76-1.99,1.05 c-0.02,0.01-0.04,0.02-0.05,0.03c-0.26,0.14-0.49,0.26-0.69,0.37c-0.03,0.01-0.05,0.03-0.07,0.04c-0.18,0.1-0.35,0.19-0.48,0.26 c0,0-0.01,0-0.01,0c-0.14,0.08-0.24,0.13-0.32,0.17c-0.01,0-0.01,0.01-0.02,0.01c-0.05,0.03-0.09,0.05-0.09,0.05 c-1.32,1.89-2.61,3.78-3.89,5.68c-0.41,0.61-0.81,1.22-1.22,1.83c-0.86,1.29-1.72,2.59-2.56,3.89 c-0.46,0.71-0.91,1.42-1.37,2.13c-0.78,1.22-1.55,2.44-2.32,3.66c-0.45,0.72-0.89,1.43-1.33,2.15 c-0.79,1.28-1.56,2.56-2.33,3.84c-0.38,0.63-0.77,1.27-1.14,1.9c-1.1,1.86-2.19,3.72-3.25,5.58c-0.15,0.27-0.3,0.54-0.45,0.81 c-0.93,1.65-1.85,3.29-2.76,4.94c-0.39,0.71-0.77,1.42-1.15,2.13c-0.64,1.19-1.28,2.38-1.91,3.58c-0.42,0.8-0.84,1.6-1.25,2.4 c-0.58,1.11-1.14,2.22-1.71,3.33c-0.42,0.82-0.83,1.65-1.24,2.47c-0.56,1.13-1.11,2.26-1.66,3.39 c-0.38,0.78-0.77,1.57-1.14,2.35c-0.7,1.46-1.37,2.92-2.05,4.38c-0.49,1.06-0.97,2.12-1.45,3.18c-0.53,1.17-1.05,2.34-1.56,3.5 c-0.41,0.93-0.8,1.85-1.2,2.78c-0.41,0.95-0.82,1.91-1.22,2.86c-0.41,0.98-0.82,1.97-1.22,2.95c-0.36,0.89-0.72,1.77-1.08,2.66 c-0.41,1.02-0.82,2.04-1.21,3.06c-0.32,0.82-0.64,1.65-0.95,2.47c-0.41,1.07-0.82,2.14-1.22,3.21c-0.2,0.53-0.39,1.06-0.58,1.59 c-0.9,2.45-1.77,4.9-2.62,7.35c-0.19,0.54-0.38,1.08-0.56,1.61c-0.41,1.22-0.82,2.44-1.22,3.65c-0.2,0.62-0.41,1.24-0.61,1.86 c-0.4,1.23-0.78,2.45-1.17,3.67c-0.18,0.57-0.36,1.15-0.53,1.72c-0.39,1.28-0.78,2.56-1.16,3.84c-0.12,0.41-0.24,0.82-0.36,1.23 c-1.84,6.29-3.5,12.55-4.98,18.78c-0.06,0.26-0.13,0.53-0.19,0.79c-0.35,1.47-0.69,2.94-1.02,4.4c-0.06,0.25-0.11,0.5-0.17,0.75 c-1.83,8.2-3.36,16.34-4.64,24.4c0,0,0,0,0,0.01h89.53l18.39-18.36v203.85h40.03V242.42 C288.79,254.28,257.2,270.07,246.6,275.59z" class="st21"/><path d="M663.85,440.38C663.85,440.38,663.85,440.38,663.85,440.38c-1.28-8.06-2.81-16.2-4.64-24.4 c-0.06-0.25-0.11-0.5-0.17-0.75c-0.33-1.47-0.67-2.93-1.02-4.4c-0.06-0.26-0.13-0.53-0.19-0.79 c-1.49-6.23-3.15-12.49-4.98-18.78c-0.12-0.41-0.24-0.82-0.36-1.23c-0.38-1.28-0.77-2.56-1.16-3.84 c-0.18-0.57-0.35-1.15-0.53-1.72c-0.38-1.22-0.77-2.45-1.17-3.67c-0.2-0.62-0.41-1.24-0.61-1.86c-0.4-1.22-0.8-2.43-1.22-3.65 c-0.18-0.54-0.37-1.08-0.56-1.61c-0.84-2.45-1.72-4.9-2.62-7.35c-0.2-0.53-0.38-1.06-0.58-1.59c-0.4-1.07-0.81-2.14-1.22-3.21 c-0.32-0.82-0.63-1.65-0.95-2.47c-0.4-1.02-0.81-2.04-1.21-3.06c-0.36-0.89-0.71-1.77-1.08-2.66c-0.4-0.98-0.81-1.97-1.22-2.95 c-0.4-0.95-0.81-1.9-1.22-2.86c-0.4-0.93-0.79-1.85-1.2-2.78c-0.51-1.17-1.04-2.34-1.56-3.5c-0.48-1.06-0.96-2.12-1.45-3.18 c-0.67-1.46-1.35-2.92-2.05-4.38c-0.37-0.78-0.76-1.57-1.14-2.35c-0.55-1.13-1.1-2.26-1.66-3.39c-0.41-0.82-0.83-1.65-1.24-2.47 c-0.56-1.11-1.13-2.22-1.71-3.33c-0.42-0.8-0.83-1.6-1.25-2.4c-0.63-1.19-1.27-2.38-1.91-3.58c-0.38-0.71-0.76-1.42-1.15-2.13 c-0.9-1.65-1.82-3.29-2.76-4.94c-0.15-0.27-0.3-0.54-0.45-0.81c-1.06-1.86-2.15-3.72-3.25-5.58c-0.38-0.63-0.76-1.27-1.14-1.9 c-0.77-1.28-1.54-2.56-2.33-3.84c-0.44-0.72-0.89-1.43-1.33-2.15c-0.76-1.22-1.53-2.44-2.32-3.66 c-0.45-0.71-0.91-1.42-1.37-2.13c-0.84-1.3-1.7-2.59-2.56-3.89c-0.41-0.61-0.81-1.22-1.22-1.83c-1.28-1.89-2.57-3.79-3.89-5.68 c0,0-0.04-0.02-0.09-0.05c-0.01,0-0.01-0.01-0.02-0.01c-0.07-0.04-0.18-0.1-0.32-0.17c0,0-0.01,0-0.01,0 c-0.13-0.07-0.29-0.16-0.48-0.26c-0.02-0.01-0.05-0.02-0.07-0.04c-0.2-0.11-0.43-0.23-0.69-0.37c-0.02-0.01-0.04-0.02-0.05-0.03 c-0.54-0.29-1.21-0.64-1.99-1.05c-0.02-0.01-0.05-0.03-0.07-0.04c-10.61-5.53-42.19-21.31-78.51-33.18v383.46h40.03V422.02 l18.39,18.36H663.85z" class="st21"/></g></g><g id="Sash" fill="red" opacity="0"><path d="M598.1,277.55c-2.1-1.14-40.84-22.07-85.94-36.33L285.07,483.73v128.11L598.1,277.55z" class="st22"/></g><g id="Fade" fill="red" opacity="0"><g><rect width="270.85" height="7.12" x="285.07" y="569.23" class="st6"/><rect width="270.85" height="8.55" x="285.07" y="584.02" class="st6"/><rect width="270.85" height="10.47" x="285.07" y="598.57" class="st6"/><rect width="270.85" height="6.02" x="285.07" y="554.27" class="st6"/><rect width="270.85" height="3.9" x="285.07" y="508.8" class="st6"/><polygon points="285.07 612.76 285.07 625.87 386.87 625.87 388.02 625.87 452.98 625.87 454.13 625.87 555.93 625.87 555.93 612.76" class="st6"/><rect width="270.85" height="4.46" x="285.07" y="524.03" class="st6"/><rect width="270.85" height="5.15" x="285.07" y="539.19" class="st6"/></g></g><g id="Chevron" fill="red" opacity="0"><path d="M420.5,368.58L308.23,248.31c-25.94,9.62-47.72,20.18-58.39,25.61L420.5,452.58l170.66-178.66 c-10.66-5.43-32.45-16-58.39-25.61L420.5,368.58z" class="st23"/></g><g id="Lyon_lower_strip" fill="#00f" opacity="0"><rect width="270.67" height="25.33" x="285.17" y="313.33" class="st6"/></g><g id="Lyon_top_Layer" fill="green" opacity="0"><g><path d="M555.83,296.67v-39.18c-14.3-6.07-31.14-12.52-48.75-17.83c-23.28,19.94-53.52,32-86.58,32 c-33.06,0-63.3-12.05-86.58-32c-17.61,5.31-34.45,11.76-48.75,17.83v39.18H555.83z" class="st24"/></g></g><g id="Croat_LS" fill="red" opacity="0"><g><g><rect width="24.84" height="24.84" x="358.4" y="601.03" class="st12"/></g><g><rect width="24.84" height="24.84" x="308.72" y="601.03" class="st12"/></g><g><rect width="23.65" height="24.84" x="285.07" y="526.51" class="st12"/></g><g><rect width="24.84" height="24.84" x="383.24" y="377.47" class="st12"/></g><g><rect width="24.84" height="24.84" x="383.24" y="327.79" class="st12"/></g><g><rect width="23.65" height="24.84" x="285.07" y="576.19" class="st12"/></g><g><rect width="24.84" height="24.84" x="432.92" y="327.79" class="st12"/></g><g><rect width="24.84" height="24.84" x="432.92" y="427.15" class="st12"/></g><g><path d="M582.16,476.83c-0.07,0.24-0.14,0.48-0.2,0.72v24.12h24.84v-24.84H582.16z" class="st12"/></g><g><rect width="23.65" height="24.84" x="532.28" y="476.83" class="st12"/></g><g><rect width="24.84" height="24.84" x="383.24" y="427.15" class="st12"/></g><g><path d="M581.96,507.49v-5.82h-1.22C581.06,503.62,581.47,505.56,581.96,507.49z" class="st12"/></g><g><rect width="24.84" height="24.84" x="432.92" y="377.47" class="st12"/></g><g><rect width="24.84" height="24.84" x="408.08" y="352.63" class="st12"/></g><g><path d="M618.41,601.03c0.9,7.84,0.86,16.09-0.51,24.84h13.75v-24.84H618.41z" class="st12"/></g><g><path d="M588.91,526.51c3.7,8.13,8.12,16.33,12.43,24.84h5.47v-24.84H588.91z" class="st12"/></g><g><rect width="23.65" height="24.84" x="532.28" y="427.15" class="st12"/></g><g><rect width="24.84" height="24.84" x="383.24" y="476.83" class="st12"/></g><g><rect width="24.84" height="24.84" x="507.44" y="601.03" class="st12"/></g><g><rect width="24.84" height="24.84" x="457.76" y="601.03" class="st12"/></g><g><rect width="24.84" height="24.84" x="408.08" y="601.03" class="st12"/></g><g><rect width="23.65" height="24.84" x="532.28" y="526.51" class="st12"/></g><g><rect width="24.84" height="24.84" x="432.92" y="476.83" class="st12"/></g><g><rect width="23.65" height="24.84" x="532.28" y="576.19" class="st12"/></g><g><rect width="24.84" height="24.84" x="408.08" y="501.67" class="st12"/></g><g><path d="M358.4,233.23c-8.33,1.83-16.67,4.05-24.84,6.53v13.52h24.84V233.23z" class="st12"/></g><g><path d="M656.48,404.52v22.63h5.05C660.09,419.66,658.41,412.12,656.48,404.52z" class="st12"/></g><g><path d="M631.64,335.26v17.37h7.67C636.93,346.85,634.37,341.05,631.64,335.26z" class="st12"/></g><g><path d="M192.45,377.47c-2.77,8.32-5.22,16.61-7.36,24.84h24.27v-24.84H192.45z" class="st12"/></g><g><path d="M201.69,352.63h7.67v-17.37C206.63,341.05,204.07,346.85,201.69,352.63z" class="st12"/></g><g><path d="M655.91,402.31c-2.14-8.23-4.59-16.52-7.36-24.84h-16.91v24.84H655.91z" class="st12"/></g><g><rect width="23.65" height="24.84" x="285.07" y="476.83" class="st12"/></g><g><path d="M179.47,427.15h5.05v-22.63C182.59,412.12,180.91,419.66,179.47,427.15z" class="st12"/></g><g><path d="M663.7,576.19c1.2-7.97,2.24-16.26,3.08-24.84h-10.3v24.84H663.7z" class="st12"/></g><g><path d="M668.55,526.51c0.36-8.09,0.5-16.38,0.41-24.84h-12.47v24.84H668.55z" class="st12"/></g><g><path d="M408.08,250.74c-8.46-1.07-16.82-3.22-24.84-6.47v9.01h24.84V250.74z" class="st12"/></g><g><path d="M226.48,302.95c-4.89,8.27-9.39,16.55-13.51,24.84h21.23v-24.84H226.48z" class="st12"/></g><g><path d="M507.44,239.76c-8.17-2.47-16.51-4.7-24.84-6.53v20.04h24.84V239.76z" class="st12"/></g><g><path d="M457.76,244.26c-8.02,3.25-16.38,5.41-24.84,6.47v2.53h24.84V244.26z" class="st12"/></g><g><rect width="24.84" height="24.84" x="631.64" y="526.51" class="st12"/></g><g><path d="M295.38,253.27h13.34v-5.14C304.13,249.82,299.67,251.55,295.38,253.27z" class="st12"/></g><g><path d="M628.03,327.79c-4.12-8.29-8.62-16.57-13.51-24.84h-7.72v24.84H628.03z" class="st12"/></g><g><path d="M581.96,269.35c-6.69-3.24-15.16-7.18-24.84-11.32v20.07h24.84V269.35z" class="st12"/></g><g><path d="M532.28,248.13v5.14h13.34C541.33,251.55,536.87,249.82,532.28,248.13z" class="st12"/></g><g><path d="M283.88,258.04c-9.68,4.14-18.15,8.07-24.84,11.32v8.76h24.84V258.04z" class="st12"/></g><g><path d="M667.97,476.83c-0.56-8.16-1.37-16.45-2.45-24.84h-9.04v24.84H667.97z" class="st12"/></g><g><rect width="24.84" height="24.84" x="457.76" y="302.95" class="st12"/></g><g><path d="M239.67,551.35c4.3-8.51,8.72-16.71,12.43-24.84H234.2v24.84H239.67z" class="st12"/></g><g><path d="M259.04,501.67v-24.12c-0.07-0.24-0.13-0.48-0.2-0.72H234.2v24.84H259.04z" class="st12"/></g><g><rect width="24.84" height="24.84" x="333.56" y="327.79" class="st12"/></g><g><rect width="24.84" height="24.84" x="408.08" y="451.99" class="st12"/></g><g><rect width="24.84" height="24.84" x="408.08" y="402.31" class="st12"/></g><g><rect width="23.65" height="24.84" x="285.07" y="427.15" class="st12"/></g><g><path d="M223.11,625.87c-1.37-8.75-1.41-17-0.51-24.84h-13.23v24.84H223.11z" class="st12"/></g><g><path d="M260.26,501.67h-1.22v5.82C259.53,505.56,259.94,503.62,260.26,501.67z" class="st12"/></g><g><rect width="24.84" height="24.84" x="283.88" y="327.79" class="st12"/></g><g><rect width="24.84" height="24.84" x="631.64" y="427.15" class="st12"/></g><g><path d="M172.05,501.67c-0.09,8.46,0.05,16.75,0.41,24.84h12.07v-24.84H172.05z" class="st12"/></g><g><path d="M174.22,551.35c0.84,8.58,1.88,16.87,3.08,24.84h7.22v-24.84H174.22z" class="st12"/></g><g><rect width="24.84" height="24.84" x="631.64" y="476.83" class="st12"/></g><g><rect width="24.84" height="24.84" x="184.52" y="576.19" class="st12"/></g><g><path d="M175.48,451.99c-1.08,8.39-1.89,16.68-2.45,24.84h11.49v-24.84H175.48z" class="st12"/></g><g><rect width="24.84" height="24.84" x="234.2" y="377.47" class="st12"/></g><g><path d="M184.52,613.98v-12.95h-2.82C182.61,605.49,183.55,609.81,184.52,613.98z" class="st12"/></g><g><rect width="24.84" height="24.84" x="606.8" y="402.31" class="st12"/></g><g><rect width="24.84" height="24.84" x="358.4" y="501.67" class="st12"/></g><g><rect width="24.84" height="24.84" x="209.36" y="402.31" class="st12"/></g><g><rect width="24.84" height="24.84" x="184.52" y="526.51" class="st12"/></g><g><rect width="24.84" height="24.84" x="408.08" y="302.95" class="st12"/></g><g><rect width="24.84" height="24.84" x="184.52" y="476.83" class="st12"/></g><g><rect width="24.84" height="24.84" x="209.36" y="501.67" class="st12"/></g><g><path d="M209.36,576.19h19.25c1.67-4.64,3.57-9.15,5.59-13.57v-11.27h-24.84V576.19z" class="st12"/></g><g><rect width="24.84" height="24.84" x="308.72" y="402.31" class="st12"/></g><g><rect width="24.84" height="24.84" x="283.88" y="377.47" class="st12"/></g><g><polygon points="259.04 427.15 279.93 427.15 283.88 423.21 283.88 402.31 259.04 402.31" class="st12"/></g><g><polygon points="234.2 451.99 255.05 451.99 259.04 448.01 259.04 427.15 234.2 427.15" class="st12"/></g><g><rect width="24.84" height="24.84" x="209.36" y="451.99" class="st12"/></g><g><rect width="24.84" height="24.84" x="457.76" y="253.27" class="st12"/></g><g><rect width="24.84" height="24.84" x="408.08" y="253.27" class="st12"/></g><g><rect width="24.84" height="24.84" x="209.36" y="352.63" class="st12"/></g><g><rect width="24.84" height="24.84" x="358.4" y="253.27" class="st12"/></g><g><rect width="24.84" height="24.84" x="507.44" y="253.27" class="st12"/></g><g><rect width="24.84" height="24.84" x="234.2" y="327.79" class="st12"/></g><g><path d="M259.04,278.11h-16.59c-2.86,4.1-5.6,8.21-8.25,12.33v12.51h24.84V278.11z" class="st12"/></g><g><rect width="24.84" height="24.84" x="308.72" y="253.27" class="st12"/></g><g><rect width="24.84" height="24.84" x="283.88" y="278.11" class="st12"/></g><g><rect width="24.84" height="24.84" x="507.44" y="402.31" class="st12"/></g><g><polygon points="557.12 402.31 557.12 423.21 561.07 427.15 581.96 427.15 581.96 402.31" class="st12"/></g><g><polygon points="581.96 427.15 581.96 448.01 585.95 451.99 606.8 451.99 606.8 427.15" class="st12"/></g><g><rect width="24.84" height="24.84" x="606.8" y="451.99" class="st12"/></g><g><rect width="24.84" height="24.84" x="532.28" y="278.11" class="st12"/></g><g><rect width="24.84" height="24.84" x="532.28" y="377.47" class="st12"/></g><g><rect width="24.84" height="24.84" x="606.8" y="501.67" class="st12"/></g><g><rect width="24.84" height="24.84" x="631.64" y="576.19" class="st12"/></g><g><path d="M659.3,601.03h-2.82v12.95C657.45,609.81,658.39,605.49,659.3,601.03z" class="st12"/></g><g><path d="M606.8,551.35v11.27c2.02,4.41,3.92,8.93,5.59,13.57h19.25v-24.84H606.8z" class="st12"/></g><g><rect width="24.84" height="24.84" x="383.24" y="576.19" class="st12"/></g><g><rect width="24.84" height="24.84" x="333.56" y="576.19" class="st12"/></g><g><rect width="24.84" height="24.84" x="308.72" y="551.35" class="st12"/></g><g><rect width="24.84" height="24.84" x="308.72" y="451.99" class="st12"/></g><g><rect width="24.84" height="24.84" x="507.44" y="451.99" class="st12"/></g><g><rect width="24.84" height="24.84" x="308.72" y="501.67" class="st12"/></g><g><rect width="24.84" height="24.84" x="507.44" y="551.35" class="st12"/></g><g><rect width="24.84" height="24.84" x="507.44" y="501.67" class="st12"/></g><g><rect width="24.84" height="24.84" x="432.92" y="576.19" class="st12"/></g><g><rect width="24.84" height="24.84" x="482.6" y="576.19" class="st12"/></g><g><rect width="24.84" height="24.84" x="184.52" y="427.15" class="st12"/></g><g><rect width="24.84" height="24.84" x="507.44" y="302.95" class="st12"/></g><g><rect width="24.84" height="24.84" x="532.28" y="327.79" class="st12"/></g><g><rect width="24.84" height="24.84" x="557.12" y="302.95" class="st12"/></g><g><rect width="24.84" height="24.84" x="482.6" y="327.79" class="st12"/></g><g><rect width="24.84" height="24.84" x="482.6" y="278.11" class="st12"/></g><g><rect width="24.84" height="24.84" x="457.76" y="352.63" class="st12"/></g><g><rect width="24.84" height="24.84" x="333.56" y="278.11" class="st12"/></g><g><rect width="24.84" height="24.84" x="383.24" y="278.11" class="st12"/></g><g><rect width="24.84" height="24.84" x="432.92" y="278.11" class="st12"/></g><g><rect width="24.84" height="24.84" x="358.4" y="352.63" class="st12"/></g><g><rect width="24.84" height="24.84" x="358.4" y="402.31" class="st12"/></g><g><rect width="24.84" height="24.84" x="457.76" y="402.31" class="st12"/></g><g><rect width="24.84" height="24.84" x="358.4" y="302.95" class="st12"/></g><g><rect width="24.84" height="24.84" x="358.4" y="451.99" class="st12"/></g><g><rect width="24.84" height="24.84" x="308.72" y="302.95" class="st12"/></g><g><rect width="24.84" height="24.84" x="457.76" y="451.99" class="st12"/></g><g><rect width="24.84" height="24.84" x="457.76" y="501.67" class="st12"/></g><g><rect width="24.84" height="24.84" x="432.92" y="526.51" class="st12"/></g><g><rect width="24.84" height="24.84" x="383.24" y="526.51" class="st12"/></g><g><rect width="24.84" height="24.84" x="333.56" y="526.51" class="st12"/></g><g><rect width="24.84" height="24.84" x="482.6" y="427.15" class="st12"/></g><g><rect width="24.84" height="24.84" x="507.44" y="352.63" class="st12"/></g><g><rect width="24.84" height="24.84" x="482.6" y="377.47" class="st12"/></g><g><rect width="24.84" height="24.84" x="482.6" y="476.83" class="st12"/></g><g><rect width="24.84" height="24.84" x="482.6" y="526.51" class="st12"/></g><g><rect width="24.84" height="24.84" x="557.12" y="352.63" class="st12"/></g><g><rect width="24.84" height="24.84" x="581.96" y="327.79" class="st12"/></g><g><rect width="24.84" height="24.84" x="606.8" y="352.63" class="st12"/></g><g><rect width="24.84" height="24.84" x="581.96" y="377.47" class="st12"/></g><g><rect width="24.84" height="24.84" x="358.4" y="551.35" class="st12"/></g><g><rect width="24.84" height="24.84" x="333.56" y="427.15" class="st12"/></g><g><rect width="24.84" height="24.84" x="333.56" y="377.47" class="st12"/></g><g><rect width="24.84" height="24.84" x="308.72" y="352.63" class="st12"/></g><g><rect width="24.84" height="24.84" x="259.04" y="352.63" class="st12"/></g><g><rect width="24.84" height="24.84" x="408.08" y="551.35" class="st12"/></g><g><rect width="24.84" height="24.84" x="259.04" y="302.95" class="st12"/></g><g><rect width="24.84" height="24.84" x="457.76" y="551.35" class="st12"/></g><g><rect width="24.84" height="24.84" x="333.56" y="476.83" class="st12"/></g><g><path d="M606.8,302.95v-12.51c-2.65-4.12-5.4-8.23-8.25-12.33h-16.59v24.84H606.8z" class="st12"/></g></g></g><g id="Croat_SS" fill="red" opacity="0"><g><g><rect width="24.84" height="24.84" x="408.08" y="451.99" class="st12"/></g><g><rect width="24.84" height="24.84" x="432.92" y="327.79" class="st12"/></g><g><rect width="24.84" height="24.84" x="482.6" y="327.79" class="st12"/></g><g><rect width="24.84" height="24.84" x="532.28" y="327.79" class="st12"/></g><g><rect width="24.84" height="24.84" x="333.56" y="327.79" class="st12"/></g><g><rect width="24.84" height="24.84" x="507.44" y="451.99" class="st12"/></g><g><rect width="24.84" height="24.84" x="482.6" y="576.19" class="st12"/></g><g><rect width="24.84" height="24.84" x="408.08" y="501.67" class="st12"/></g><g><rect width="24.84" height="24.84" x="408.08" y="402.31" class="st12"/></g><g><rect width="24.84" height="24.84" x="432.92" y="576.19" class="st12"/></g><g><rect width="24.84" height="24.84" x="383.24" y="476.83" class="st12"/></g><g><rect width="24.84" height="24.84" x="432.92" y="427.15" class="st12"/></g><g><rect width="24.84" height="24.84" x="432.92" y="476.83" class="st12"/></g><g><rect width="23.65" height="24.84" x="532.28" y="427.15" class="st12"/></g><g><rect width="24.84" height="24.84" x="408.08" y="352.63" class="st12"/></g><g><rect width="24.84" height="24.84" x="507.44" y="501.67" class="st12"/></g><g><rect width="24.84" height="24.84" x="383.24" y="427.15" class="st12"/></g><g><rect width="24.84" height="24.84" x="383.24" y="327.79" class="st12"/></g><g><rect width="24.84" height="24.84" x="507.44" y="551.35" class="st12"/></g><g><rect width="24.84" height="24.84" x="383.24" y="377.47" class="st12"/></g><g><path d="M655.91,402.31c-0.06-0.22-0.11-0.44-0.17-0.66c-0.41-1.57-0.83-3.14-1.27-4.71 c-0.09-0.34-0.18-0.68-0.28-1.02c-0.55-1.97-1.11-3.94-1.7-5.92c-0.05-0.16-0.1-0.32-0.14-0.48c-0.52-1.76-1.06-3.53-1.62-5.3 c-0.16-0.5-0.32-1-0.48-1.51c-0.47-1.47-0.94-2.93-1.42-4.4c-0.09-0.28-0.19-0.57-0.28-0.85h-16.9v24.84H655.91z" class="st12"/></g><g><rect width="24.84" height="13.23" x="234.2" y="427.15" class="st12"/></g><g><rect width="23.65" height="24.84" x="285.07" y="427.15" class="st12"/></g><g><rect width="24.84" height="24.84" x="283.88" y="327.79" class="st12"/></g><g><rect width="23.65" height="24.84" x="285.07" y="526.51" class="st12"/></g><g><path d="M184.47,404.73c-0.94,3.73-1.83,7.44-2.66,11.14c-0.01,0.03-0.01,0.06-0.02,0.09 c-0.39,1.75-0.76,3.49-1.13,5.23c-0.1,0.5-0.2,1-0.31,1.51c-0.26,1.27-0.52,2.55-0.76,3.82c-0.04,0.21-0.08,0.42-0.12,0.63 h5.04v-22.62C184.5,404.6,184.49,404.66,184.47,404.73z" class="st12"/></g><g><rect width="24.84" height="13.23" x="184.52" y="427.15" class="st12"/></g><g><path d="M192.46,377.47c-0.09,0.28-0.19,0.57-0.28,0.85c-0.49,1.47-0.96,2.93-1.42,4.4 c-0.16,0.5-0.32,1-0.48,1.51c-0.56,1.77-1.1,3.55-1.62,5.32c-0.04,0.15-0.09,0.3-0.14,0.45c-0.58,1.98-1.15,3.95-1.7,5.92 c-0.09,0.34-0.18,0.68-0.28,1.02c-0.43,1.57-0.86,3.14-1.27,4.71c-0.06,0.22-0.11,0.44-0.17,0.66h24.27v-24.84H192.46z" class="st12"/></g><g><rect width="24.84" height="24.84" x="606.8" y="352.63" class="st12"/></g><g><rect width="23.65" height="24.84" x="285.07" y="576.19" class="st12"/></g><g><rect width="24.84" height="24.84" x="507.44" y="601.03" class="st12"/></g><g><rect width="23.65" height="24.84" x="532.28" y="576.19" class="st12"/></g><g><rect width="23.65" height="24.84" x="532.28" y="526.51" class="st12"/></g><g><rect width="23.65" height="24.84" x="532.28" y="476.83" class="st12"/></g><g><rect width="24.84" height="24.84" x="457.76" y="601.03" class="st12"/></g><g><rect width="24.84" height="24.84" x="308.72" y="601.03" class="st12"/></g><g><rect width="24.84" height="24.84" x="358.4" y="601.03" class="st12"/></g><g><rect width="24.84" height="24.84" x="408.08" y="601.03" class="st12"/></g><g><rect width="23.65" height="24.84" x="285.07" y="476.83" class="st12"/></g><g><rect width="24.84" height="13.23" x="631.64" y="427.15" class="st12"/></g><g><rect width="24.84" height="24.84" x="383.24" y="576.19" class="st12"/></g><g><path d="M661.4,426.52c-0.25-1.27-0.5-2.55-0.76-3.82c-0.1-0.5-0.2-1-0.31-1.51c-0.36-1.74-0.74-3.48-1.13-5.23 c-0.01-0.03-0.01-0.06-0.02-0.09c-0.82-3.7-1.71-7.41-2.66-11.14c-0.02-0.07-0.03-0.13-0.05-0.2v22.62h5.04 C661.48,426.94,661.44,426.73,661.4,426.52z" class="st12"/></g><g><path d="M638.84,351.52c-0.42-1.02-0.85-2.03-1.28-3.05c-0.12-0.28-0.24-0.55-0.36-0.83 c-1.77-4.12-3.62-8.25-5.57-12.38v17.37h7.66C639.15,352.26,639,351.89,638.84,351.52z" class="st12"/></g><g><rect width="24.84" height="13.23" x="581.96" y="427.15" class="st12"/></g><g><rect width="24.84" height="24.84" x="581.96" y="377.47" class="st12"/></g><g><path d="M226.48,302.95c-2.38,4.02-4.66,8.05-6.86,12.08c-0.15,0.28-0.3,0.56-0.46,0.84 c-0.93,1.72-1.85,3.45-2.75,5.17c-0.16,0.31-0.33,0.62-0.49,0.93c-0.95,1.84-1.89,3.68-2.81,5.52c-0.05,0.1-0.1,0.19-0.15,0.29 h21.23v-24.84H226.48z" class="st12"/></g><g><path d="M628.03,327.79c-0.05-0.1-0.1-0.19-0.15-0.29c-0.92-1.84-1.85-3.68-2.81-5.52 c-0.16-0.31-0.33-0.62-0.49-0.94c-0.9-1.72-1.82-3.45-2.75-5.17c-0.15-0.28-0.31-0.57-0.46-0.85 c-2.2-4.03-4.48-8.06-6.86-12.08h-7.72v24.84H628.03z" class="st12"/></g><g><rect width="24.84" height="24.84" x="234.2" y="377.47" class="st12"/></g><g><path d="M358.4,233.23c-2.07,0.46-4.15,0.94-6.22,1.44c-0.02,0-0.04,0.01-0.05,0.01 c-6.24,1.51-12.45,3.23-18.57,5.08v13.52h24.84V233.23z" class="st12"/></g><g><path d="M305.31,249.4c0,0-0.01,0-0.01,0.01c-1.08,0.41-2.15,0.82-3.21,1.23c-0.09,0.03-0.18,0.07-0.27,0.1 c-2.18,0.84-4.33,1.69-6.43,2.53c0,0,0,0,0,0h13.34v-5.14C307.57,248.55,306.44,248.97,305.31,249.4z" class="st12"/></g><g><path d="M408.08,250.74C408.08,250.74,408.08,250.74,408.08,250.74c-3.04-0.38-6.06-0.91-9.05-1.57 c-0.18-0.04-0.36-0.08-0.54-0.12c-0.83-0.19-1.65-0.39-2.47-0.6c-0.31-0.08-0.62-0.16-0.93-0.24 c-0.78-0.21-1.56-0.42-2.33-0.65c-0.34-0.1-0.67-0.2-1.01-0.3c-0.77-0.23-1.54-0.47-2.31-0.72c-0.26-0.08-0.51-0.18-0.77-0.26 c-1.82-0.62-3.63-1.28-5.42-2.01v9.01h24.84V250.74z" class="st12"/></g><g><path d="M283.88,258.04C283.88,258.04,283.88,258.04,283.88,258.04c-3.63,1.55-7.09,3.07-10.34,4.54 c0,0-0.01,0-0.01,0.01c-2.16,0.97-4.23,1.92-6.21,2.84c-0.01,0.01-0.03,0.01-0.04,0.02c-0.97,0.45-1.92,0.9-2.85,1.33 c-0.04,0.02-0.07,0.03-0.11,0.05c-1.86,0.88-3.62,1.72-5.27,2.52c0,0-0.01,0-0.01,0.01v8.76h24.84V258.04z" class="st12"/></g><g><path d="M581.96,269.35c0,0-0.01,0-0.01-0.01c-1.65-0.8-3.41-1.64-5.27-2.52c-0.04-0.02-0.07-0.03-0.11-0.05 c-0.92-0.44-1.87-0.88-2.85-1.33c-0.01-0.01-0.03-0.01-0.04-0.02c-1.98-0.92-4.05-1.87-6.21-2.84c0,0-0.01,0-0.01-0.01 c-3.26-1.47-6.71-2.99-10.34-4.54c0,0,0,0,0,0v20.07h24.84V269.35z" class="st12"/></g><g><path d="M457.76,244.26c-1.79,0.73-3.6,1.39-5.42,2.01c-0.26,0.09-0.51,0.18-0.77,0.26 c-0.77,0.25-1.54,0.49-2.31,0.72c-0.34,0.1-0.67,0.21-1.01,0.3c-0.78,0.23-1.55,0.44-2.33,0.65c-0.31,0.08-0.62,0.16-0.93,0.24 c-0.82,0.21-1.65,0.41-2.47,0.6c-0.18,0.04-0.36,0.08-0.54,0.12c-3,0.66-6.02,1.19-9.05,1.57c0,0,0,0,0,0v2.53h24.84V244.26z" class="st12"/></g><g><path d="M545.62,253.27c-2.11-0.85-4.25-1.69-6.43-2.53c-0.09-0.03-0.18-0.07-0.27-0.1 c-1.06-0.41-2.13-0.82-3.21-1.23c0,0-0.01,0-0.01-0.01c-1.13-0.43-2.27-0.85-3.41-1.28v5.14L545.62,253.27 C545.62,253.27,545.62,253.27,545.62,253.27z" class="st12"/></g><g><path d="M507.44,239.76c-6.12-1.85-12.33-3.56-18.57-5.08c-0.02,0-0.04-0.01-0.05-0.01 c-2.07-0.5-4.15-0.98-6.22-1.44v20.04h24.84V239.76z" class="st12"/></g><g><path d="M203.79,347.64c-0.12,0.28-0.24,0.55-0.36,0.83c-0.43,1.02-0.86,2.03-1.28,3.05 c-0.15,0.37-0.31,0.74-0.46,1.11h7.66v-17.37C207.42,339.39,205.56,343.52,203.79,347.64z" class="st12"/></g><g><rect width="24.84" height="24.84" x="308.72" y="352.63" class="st12"/></g><g><rect width="24.84" height="24.84" x="333.56" y="427.15" class="st12"/></g><g><rect width="24.84" height="24.84" x="333.56" y="377.47" class="st12"/></g><g><rect width="24.84" height="24.84" x="358.4" y="253.27" class="st12"/></g><g><rect width="24.84" height="24.84" x="333.56" y="476.83" class="st12"/></g><g><rect width="24.84" height="24.84" x="432.92" y="377.47" class="st12"/></g><g><rect width="24.84" height="24.84" x="408.08" y="253.27" class="st12"/></g><g><rect width="24.84" height="24.84" x="259.04" y="302.95" class="st12"/></g><g><rect width="24.84" height="24.84" x="308.72" y="302.95" class="st12"/></g><g><rect width="24.84" height="24.84" x="383.24" y="278.11" class="st12"/></g><g><path d="M259.04,278.11h-16.59c-1.36,1.95-2.68,3.9-3.99,5.85c-0.21,0.31-0.41,0.62-0.62,0.93 c-1.11,1.66-2.2,3.32-3.27,4.98c-0.13,0.2-0.25,0.39-0.38,0.59v12.5h24.84V278.11z" class="st12"/></g><g><rect width="24.84" height="24.84" x="358.4" y="551.35" class="st12"/></g><g><rect width="24.84" height="24.84" x="283.88" y="278.11" class="st12"/></g><g><rect width="24.84" height="24.84" x="259.04" y="352.63" class="st12"/></g><g><rect width="24.84" height="24.84" x="308.72" y="253.27" class="st12"/></g><g><rect width="24.84" height="24.84" x="333.56" y="278.11" class="st12"/></g><g><path d="M606.8,302.95v-12.5c-0.13-0.2-0.25-0.39-0.38-0.59c-1.07-1.66-2.16-3.32-3.27-4.98 c-0.21-0.31-0.41-0.62-0.62-0.93c-1.31-1.95-2.64-3.9-3.99-5.85h-16.59v24.84H606.8z" class="st12"/></g><g><rect width="24.84" height="24.84" x="507.44" y="402.31" class="st12"/></g><g><rect width="24.84" height="24.84" x="482.6" y="427.15" class="st12"/></g><g><rect width="24.84" height="24.84" x="532.28" y="377.47" class="st12"/></g><g><rect width="24.84" height="24.84" x="606.8" y="402.31" class="st12"/></g><g><rect width="24.84" height="24.84" x="581.96" y="327.79" class="st12"/></g><g><polygon points="557.12 402.31 557.12 423.21 561.07 427.15 581.96 427.15 581.96 402.31" class="st12"/></g><g><rect width="24.84" height="24.84" x="457.76" y="551.35" class="st12"/></g><g><rect width="24.84" height="24.84" x="457.76" y="253.27" class="st12"/></g><g><rect width="24.84" height="24.84" x="507.44" y="253.27" class="st12"/></g><g><rect width="24.84" height="24.84" x="408.08" y="551.35" class="st12"/></g><g><rect width="24.84" height="24.84" x="532.28" y="278.11" class="st12"/></g><g><rect width="24.84" height="24.84" x="482.6" y="526.51" class="st12"/></g><g><rect width="24.84" height="24.84" x="482.6" y="476.83" class="st12"/></g><g><rect width="24.84" height="24.84" x="333.56" y="526.51" class="st12"/></g><g><rect width="24.84" height="24.84" x="358.4" y="451.99" class="st12"/></g><g><rect width="24.84" height="24.84" x="358.4" y="402.31" class="st12"/></g><g><rect width="24.84" height="24.84" x="308.72" y="451.99" class="st12"/></g><g><rect width="24.84" height="24.84" x="358.4" y="501.67" class="st12"/></g><g><rect width="24.84" height="24.84" x="308.72" y="402.31" class="st12"/></g><g><rect width="24.84" height="24.84" x="308.72" y="501.67" class="st12"/></g><g><rect width="24.84" height="24.84" x="383.24" y="526.51" class="st12"/></g><g><rect width="24.84" height="24.84" x="358.4" y="352.63" class="st12"/></g><g><rect width="24.84" height="24.84" x="333.56" y="576.19" class="st12"/></g><g><rect width="24.84" height="24.84" x="457.76" y="352.63" class="st12"/></g><g><rect width="24.84" height="24.84" x="457.76" y="302.95" class="st12"/></g><g><rect width="24.84" height="24.84" x="408.08" y="302.95" class="st12"/></g><g><rect width="24.84" height="24.84" x="358.4" y="302.95" class="st12"/></g><g><rect width="24.84" height="24.84" x="308.72" y="551.35" class="st12"/></g><g><rect width="24.84" height="24.84" x="432.92" y="278.11" class="st12"/></g><g><rect width="24.84" height="24.84" x="432.92" y="526.51" class="st12"/></g><g><rect width="24.84" height="24.84" x="557.12" y="302.95" class="st12"/></g><g><rect width="24.84" height="24.84" x="557.12" y="352.63" class="st12"/></g><g><rect width="24.84" height="24.84" x="209.36" y="352.63" class="st12"/></g><g><rect width="24.84" height="24.84" x="209.36" y="402.31" class="st12"/></g><g><rect width="24.84" height="24.84" x="457.76" y="501.67" class="st12"/></g><g><rect width="24.84" height="24.84" x="234.2" y="327.79" class="st12"/></g><g><rect width="24.84" height="24.84" x="482.6" y="278.11" class="st12"/></g><g><rect width="24.84" height="24.84" x="507.44" y="302.95" class="st12"/></g><g><rect width="24.84" height="24.84" x="457.76" y="402.31" class="st12"/></g><g><rect width="24.84" height="24.84" x="457.76" y="451.99" class="st12"/></g><g><rect width="24.84" height="24.84" x="283.88" y="377.47" class="st12"/></g><g><rect width="24.84" height="24.84" x="507.44" y="352.63" class="st12"/></g><g><polygon points="259.04 427.15 279.93 427.15 283.88 423.21 283.88 402.31 259.04 402.31" class="st12"/></g><g><rect width="24.84" height="24.84" x="482.6" y="377.47" class="st12"/></g></g></g><g id="ShortSleeve_cuff" fill="red" opacity="0"><g><path d="M180.5,422.02c-1.27,6.16-2.39,12.29-3.35,18.36h89.53l18.39-18.36H180.5z" class="st10"/><path d="M663.85,440.38c-0.96-6.07-2.08-12.2-3.35-18.36H555.93l18.39,18.36H663.85z" class="st10"/></g></g><g id="Cuff" fill="red" opacity="0"><g><path d="M616.69,590.86c2.4,10.82,3.18,22.39,1.2,35.01h35.68c2.73-10.55,5.37-22.29,7.69-35.01H616.69z" class="st10"/><path d="M179.74,590.86c2.31,12.72,4.96,24.46,7.69,35.01h35.68c-1.98-12.62-1.2-24.19,1.2-35.01H179.74z" class="st10"/></g></g><g id="Neckline" fill="red" opacity="0"><path d="M420.5,271.65c33.06,0,63.31-12.05,86.59-32c-9.24-2.79-18.7-5.26-28.11-7.19l0,0 c-34.84,25.43-82.12,25.43-116.96,0l0,0c-9.42,1.93-18.87,4.41-28.11,7.19C357.19,259.6,387.44,271.65,420.5,271.65z" class="st11"/></g><g id="Pectoral_Shadow"><g class="st25"><polygon points="285.07 374.6 285.07 441.07 362.7 441.07"/><polygon points="556.19 374.6 556.19 441.07 478.56 441.07"/></g></g></g></switch></svg>