<?xml version="1.0" encoding="utf-8"?>
<!-- Generator: Adobe Illustrator 22.1.0, SVG Export Plug-In . SVG Version: 6.00 Build 0)  -->
<svg version="1.1" id="Layer_1" xmlns="http://www.w3.org/2000/svg" xmlns:xlink="http://www.w3.org/1999/xlink" x="0px" y="0px"
	 viewBox="0 0 992.1 1455" style="enable-background:new 0 0 992.1 1455;" xml:space="preserve">
<style type="text/css">
	.st0{fill:#D86AA1;}
	.st1{fill:#FFE000;}
	.st2{fill:#FFFFFF;}
	.st3{fill:#E8BE95;}
	.st4{fill:#D8A275;}
	.st5{fill:#C69C6D;}
	.st6{opacity:0.5;fill:#D8A275;enable-background:new    ;}
	.st7{opacity:0.75;fill:#BF5B3C;enable-background:new    ;}
	.st8{fill:#BF5B3C;}
	.st9{fill:#0071BC;}
	.st10{fill:#F9C0D8;}
	.st11{fill:#E889B4;}
	.st12{fill:#1A1A1A;}
	.st13{fill:#C1272D;}
	.st14{fill:#F15A24;}
	.st15{opacity:8.000000e-02;}
	.st16{fill:#333333;}
	.st17{font-family:'Anton-Regular';}
	.st18{font-size:118.6723px;}
	.st19{font-size:70px;}
	.st20{fill:#ED1C24;}
	.st21{font-size:43.8153px;}
	.st22{font-size:57.3457px;}
</style>
<g>
	
		<image style="overflow:visible;opacity:0.3;enable-background:new    ;" width="4096" height="5983" xlink:href="B7596CFAF49E00D.png"  transform="matrix(0.2398 0 0 0.2398 12.4063 17.3064)">
	</image>
	<g>
		<path class="st0" d="M880.8,35.6H112.5c-44.9,0-81.3,36.4-81.3,81.4v1221.5c0,44.9,36.4,81.3,81.3,81.3h768.3
			c44.9,0,81.3-36.4,81.3-81.3V117C962.1,72.1,925.7,35.6,880.8,35.6z"/>
	</g>
</g>
<path class="st1" d="M962.1,1338.5v-81.7h-931v81.7c0,44.9,36.4,81.3,81.3,81.3h768.3C925.7,1419.8,962.1,1383.4,962.1,1338.5z"/>
<circle class="st2" cx="496.6" cy="1177.1" r="79.3"/>
<path class="st3" d="M673.3,367.3c0,0-60.4-33.1-119.2-45.1l-3.2-29l-0.6-7.7h32.9l-6.6-59.8l20.1-3.8c0,0-5.8-50.1-17.3-92.4
	c0,0-38.5-8.6-71.3-8.6c-38.9,0-70.4,31.2-70.4,70.9c0,13.3,3.5,25.7,9.7,36.3l-10.4,94.1c-58.9,12.1-119.2,45.1-119.2,45.1
	c-135.1,193.5-35.3,408-35.3,408h1.2h54.4l-1.5-59.7h-38.5c-11.3-71.8,66.6-109.8,26.3-168.2l35.7-35.6v203.9l0,0H462h1.2h64.9h1.2
	H631l0,0V511.8l35.7,35.6c-40.3,58.4,37.5,96.4,26.3,168.2h-38.5l-1.5,59.7h54.4h1.2C708.6,775.3,808.4,560.8,673.3,367.3z"/>
<g>
	<path class="st4" d="M439.9,208.9L439.9,208.9c0,0.1,0,0.2,0.1,0.3l0,0C439.9,209.1,439.9,209,439.9,208.9z"/>
	<path class="st4" d="M440.5,211.6L440.5,211.6c0,0.1,0,0.1,0.1,0.2C440.6,211.7,440.6,211.6,440.5,211.6z"/>
	<polygon class="st4" points="445.2,250.6 447.5,228.1 447.5,228.1 	"/>
	<path class="st4" d="M446.2,225.7c-0.1-0.2-0.2-0.5-0.4-0.7l0,0C446,225.3,446.1,225.5,446.2,225.7L446.2,225.7z"/>
	<path class="st4" d="M586.6,330.7c-10.6-3.3-21.6-6.3-32.5-8.5l-3.2-29l-0.6-7.7h32.6l0-0.5L502,254.4V206h0l0,0H475
		c0.1,0.8,0.2,1.6,0.4,2.4c0.8,3.8,2.2,7.2,4.1,10.1l-34.2,32.4l97.1,94.4h45.1L586.6,330.7z"/>
	<path class="st4" d="M441.4,214.3L441.4,214.3c0.1,0.2,0.1,0.4,0.2,0.6l0,0C441.5,214.7,441.5,214.5,441.4,214.3z"/>
	<path class="st4" d="M444.6,222.5C444.6,222.5,444.6,222.5,444.6,222.5c0.1,0.3,0.2,0.5,0.4,0.8l0,0
		C444.9,223,444.8,222.8,444.6,222.5z"/>
	<path class="st4" d="M442.5,217.5L442.5,217.5L442.5,217.5z"/>
</g>
<path class="st5" d="M631,715.6H495.6H360.2l-59.7,512.7h23.5c6.6-97,123.1-147.7,76-260.6l95.7-156l95.7,156
	c-47.1,112.8,69.4,163.6,76,260.6h23.5L631,715.6z"/>
<path class="st3" d="M631,715.6H495.6H360.2l-59.7,512.7h23.5c6.6-97,123.1-147.7,76-260.6l95.7-156l95.7,156
	c-47.1,112.8,69.4,163.6,76,260.6h23.5L631,715.6z"/>
<path class="st4" d="M399.9,967.8L399.9,967.8l53.2-86.8l-30.7-7.9c0,0,1.9,77.6-63.8,77.6v23h-28.3l-29.8,254.8h23.5
	c0.1-1.1,0.2-2.3,0.3-3.4C333.2,1130.1,446.5,1079.3,399.9,967.8z"/>
<path class="st4" d="M660.9,973.6h-28.3v-23c-65.7,0-63.8-77.6-63.8-77.6l-30.7,7.9l53.2,86.8l0,0
	c-46.6,111.5,66.7,162.4,75.7,257.2c0.1,1.1,0.2,2.3,0.3,3.4h23.5L660.9,973.6z"/>
<path class="st6" d="M502,254.4v-55.9c0,0,57,11.8,48.2,76.3L502,254.4z"/>
<ellipse transform="matrix(0.9799 -0.1997 0.1997 0.9799 -31.2209 101.6869)" class="st3" cx="488.5" cy="205.6" rx="13.3" ry="20.7"/>
<path class="st7" d="M445.2,250.8l0.1,0.1l34.2-32.4c-1.8-2.8-3.3-6.2-4.1-10.1c-2.4-11.2,1.6-21.5,8.8-23.1
	c7.2-1.6,14.9,6.2,17.2,17.4c0.2,1.1,0.4,2.2,0.5,3.3h0h18.5l-1.2-27h9.2l12.2-36.4l42.1-0.1c-0.4-1.4-1.9-7.3-2.2-8.7
	c0,0,0-0.1,0-0.1c-0.4-1.4-0.8-2.9-1.1-4.3c0,0-38.5-8.6-71.3-8.6c-38.9,0-70.4,31.2-70.4,70.9c0,13.3,3.5,25.7,9.7,36.3
	L445.2,250.8z"/>
<path class="st4" d="M709.8,769.4c-27.2-4-43.1-15-56-21.8l-0.7,27.7h54.4C707.4,775.3,708.3,773.3,709.8,769.4z"/>
<path class="st4" d="M282.6,775.3h55.6l-1.3-28c-12.8,6.8-29.1,18.1-56.6,22.1C281.8,773.3,282.6,775.3,282.6,775.3z"/>
<path class="st8" d="M504,121c-0.8,0.1-1.6,0.1-2.4,0.2c-0.3,0-0.6,0.1-0.9,0.1c-0.5,0.1-1,0.1-1.5,0.2c-0.5,0.1-1.1,0.1-1.6,0.2
	c-0.2,0-0.4,0.1-0.6,0.1c-0.9,0.1-1.7,0.3-2.5,0.4c-0.3,0.1-0.7,0.1-1,0.2c-0.8,0.2-1.5,0.3-2.3,0.5c-0.3,0.1-0.5,0.1-0.8,0.2
	c-1,0.2-1.9,0.5-2.9,0.8c-0.3,0.1-0.6,0.2-1,0.3c-0.7,0.2-1.3,0.4-2,0.7c-0.4,0.1-0.7,0.3-1.1,0.4c-0.6,0.2-1.2,0.4-1.7,0.7
	c-0.1,0-0.2,0.1-0.3,0.1c-0.4,0.2-0.7,0.3-1.1,0.4c-0.7,0.3-1.5,0.7-2.2,1c0,0-0.1,0-0.1,0.1c-0.4,0.2-0.8,0.4-1.2,0.6
	c-0.2,0.1-0.5,0.2-0.7,0.4c-0.2,0.1-0.5,0.3-0.8,0.4c-0.4,0.2-0.9,0.4-1.3,0.7c-0.5,0.3-1,0.6-1.5,0.9c-0.7,0.4-1.4,0.8-2.1,1.3
	c-0.4,0.2-0.8,0.5-1.1,0.7c-0.5,0.3-0.9,0.6-1.4,0.9c-0.3,0.2-0.6,0.4-1,0.7c-0.8,0.6-1.6,1.2-2.5,1.9c0,0,0,0,0,0
	c-0.8,0.6-1.6,1.3-2.4,2c-0.2,0.2-0.4,0.3-0.6,0.5c-0.5,0.4-1,0.9-1.5,1.4c0,0-0.1,0.1-0.1,0.1c-0.1,0.1-0.2,0.2-0.3,0.3
	c-1.6,1.6-3.2,3.2-4.7,4.9c0,0,0,0.1-0.1,0.1c-0.1,0.1-0.1,0.1-0.2,0.2c-2.1,2.4-4,5-5.8,7.8c0,0,0,0.1-0.1,0.1
	c-1.8,2.8-3.4,5.7-4.7,8.7l0,0l0,0h90.1l6.5-19.4l42-0.1c-1-4.4-2.1-8.8-3.3-13.1c0,0-38.5-8.6-71.3-8.6c-1.1,0-2.2,0-3.2,0.1
	C504.6,120.9,504.3,121,504,121z"/>
<g>
	<path class="st4" d="M360.2,512.7l0.4-0.9V477c-0.4,12-6,61-72.1,71.3l45.3,50.5c4.5-16.2,3.7-32.7-9.2-51.4l35.7-35.6L360.2,512.7
		L360.2,512.7L360.2,512.7z"/>
	<path class="st4" d="M630.7,477v34.8l0.3,0.9v-0.9l35.7,35.6c-12.9,18.7-13.7,35.2-9.2,51.4l45.3-50.5
		C636.7,538,631.1,489,630.7,477z"/>
	<path class="st4" d="M630.7,477v-2.7C630.7,474.3,630.7,475.3,630.7,477z"/>
	<path class="st4" d="M360.5,474.3v2.7C360.6,475.3,360.5,474.3,360.5,474.3z"/>
</g>
<polygon class="st9" points="541.8,179.2 577.7,179.2 573.4,186.3 560.6,186.3 562.3,192.8 "/>
<path class="st8" d="M550.3,285.6h32.9l-3.4-30h-5.3v9.2c0,0-52.4-0.5-54-58.7H502v48.4c0,0,16.5,21.9,48.4,31.9L550.3,285.6z"/>
<path class="st8" d="M586.7,223.8h-19c-11.4,0-19.5,10.2-19.5,18.8l0,0v17.1l0,0c6.1,0,11.1-5.1,11.1-11.3v-5.8h10.3
	C580.9,242.6,587.1,232.3,586.7,223.8z"/>
<path class="st10" d="M300.5,1228.3h23.5c6-88.2,103-138.2,84.9-231.5h-81.3L300.5,1228.3z"/>
<path class="st10" d="M690.8,1228.3l-27.1-231.5h-81.3c-18.1,93.3,79,143.3,84.9,231.5L690.8,1228.3L690.8,1228.3z"/>
<path class="st11" d="M327.6,996.8l-6.7,57.3h85c5.2-17.5,7-36.3,3-57.3H327.6z"/>
<path class="st11" d="M663.7,996.8h-81.3c-4.1,21-2.3,39.8,3,57.3h85L663.7,996.8z"/>
<path d="M291,1189.2c20.8,11.8,12.7,34.9,12.7,34.9h22l-2.3,32.4H225l69.4-30.7L291,1189.2z"/>
<path d="M700.3,1189.2c-20.8,11.8-12.7,34.9-12.7,34.9h-22l2.3,32.4h98.3l-69.4-30.7L700.3,1189.2z"/>
<polygon class="st12" points="631,715.6 495.6,715.6 360.2,715.6 337.2,914.2 469.8,914.2 495.6,857.6 521.5,914.2 654,914.2 "/>
<g>
	<polygon class="st13" points="654,914.2 631,715.6 631,715.6 622.6,716 645.3,914.2 	"/>
	<polygon class="st13" points="337.2,914.2 337.3,914.2 345.9,914.2 368.8,716 360.3,715.6 360.2,715.6 	"/>
</g>
<g>
	<polygon class="st11" points="654,914.2 631,715.6 631,715.6 622.6,716 645.3,914.2 	"/>
	<polygon class="st11" points="337.2,914.2 337.3,914.2 345.9,914.2 368.8,716 360.3,715.6 360.2,715.6 	"/>
</g>
<path class="st14" d="M649.4,530.1H739c-8.3-52.4-27.7-108.4-65.7-162.8c0,0-60.4-33.1-119.2-45.1l0,0c-34.8,25.4-82.1,25.4-117,0
	l0,0c-58.9,12.1-119.2,45.1-119.2,45.1c-38,54.3-57.4,110.3-65.6,162.8h89.5l18.4-18.4v203.8H462h1.2h65h1.2H631V511.8L649.4,530.1z
	"/>
<path class="st10" d="M666.7,547.4c-40.3,58.4,37.5,96.4,26.3,168.2h35.7c20-77.3,35.9-217.6-55.4-348.3c0,0-60.4-33.1-119.2-45.1
	l0,0c-34.8,25.4-82.1,25.4-117,0l0,0c-58.9,12.1-119.2,45.1-119.2,45.1c-91.3,130.7-75.3,271-55.4,348.3h35.7
	c-11.3-71.8,66.6-109.8,26.3-168.2l35.7-35.6v203.8H462h1.2h64.9h1.2H631V511.8L666.7,547.4z"/>
<path class="st11" d="M691.8,680.6c2.4,10.8,3.2,22.4,1.2,35h35.7c2.7-10.5,5.4-22.3,7.7-35H691.8z"/>
<path class="st11" d="M254.9,680.6c2.3,12.7,5,24.5,7.7,35h35.7c-2-12.6-1.2-24.2,1.2-35H254.9z"/>
<path class="st11" d="M495.6,361c32.3,0,61.6-12.5,82.8-32.7c-8-2.3-16.2-4.4-24.3-6.1l0,0c-34.8,25.4-82.1,25.4-117,0l0,0
	c-8.1,1.7-16.3,3.8-24.3,6.1C434,348.5,463.3,361,495.6,361z"/>
<g class="st15">
	<polygon class="st16" points="360.2,464.3 360.2,530.8 437.8,530.8 	"/>
	<polygon class="st16" points="631.3,464.3 631.3,530.8 553.7,530.8 	"/>
</g>
<g>
	<text transform="matrix(1 0 0 1 794.7549 1385.1638)" class="st17 st18">78</text>
</g>
<text transform="matrix(1 0 0 1 212.1254 1338.4911)" class="st17 st19">JOHNNY BIGBOOTS</text>
<g>
	<circle class="st2" cx="117.1" cy="1335.7" r="51"/>
	<path class="st20" d="M125.8,1285.5c-2.8-0.5-5.8-0.8-8.7-0.8c-3,0-5.9,0.3-8.7,0.8v41.5H66.9c-0.5,2.8-0.8,5.8-0.8,8.7
		s0.3,5.9,0.8,8.7h41.5v41.5c2.8,0.5,5.8,0.8,8.7,0.8c3,0,5.9-0.3,8.7-0.8v-41.5h41.5c0.5-2.8,0.8-5.8,0.8-8.7s-0.3-5.9-0.8-8.7
		h-41.5V1285.5z"/>
</g>
<text transform="matrix(1 0 0 1 212.1254 1389.2821)" class="st17 st21">MIDFIELDER</text>
<text transform="matrix(1 0 0 1 72.1835 120.8661)" class="st2 st17 st22">#00047373</text>
<g>
	<path class="st2" d="M852.3,154.9c24.4-0.5,45.4,15.1,52.9,37c0.9,2.6,1,3.6-1,5.4c-7.1,6.5-15.4,11.7-24.6,15.2
		c-2.2,0.7-2.5,0.6-2.3-2.2c0-0.4,0-0.7,0-1.1c-0.2-13.2-11.2-23.7-24.4-23.4c-13.2,0.2-23.7,11.2-23.4,24.4c0,0.4,0,0.8,0,1.2
		c0.2,1.6-0.8,1.4-2.2,1.1c-9.3-3.5-17.8-8.7-24.9-15.4c-1.6-1.4-1.9-2.3-0.9-5.2C808.8,170.7,828.7,155.4,852.3,154.9L852.3,154.9z
		"/>
	<path class="st2" d="M859.3,67.8c5.1,0.4,10.1,1.3,14.8,2.7c3.6,1,3.3,2,3.3,4.6v80.2c0,1.3,0,3-3.5,1.6c-6.7-2.6-14-4-21.7-3.8
		c-7,0.1-13.7,1.5-19.8,4c-0.6,0.2-1.2,0.4-1.5,0.4c-1.1-0.1-1.2-1.2-1.2-2.1V75.5c0-2.8-0.2-4.1,3.1-5.1c4.7-1.4,9.7-2.3,14.7-2.8
		c3.1-0.3,2.8,2.1,2.8,2.6v60.4l6.3,0.1V70.4C856.6,69.2,856.2,67.6,859.3,67.8L859.3,67.8z M883.1,73.7
		c25.1,10.9,43.2,35.2,45,64.1c0.3,2-1.1,2.3-2.3,1.1c-4.4-4.7-9.6-8.8-14.5-12.2c-0.9-0.6-1.9-0.8-1.8,0.8l0,4
		c0,1.8,0.4,2.1,1.5,2.8c5.8,4.3,10.4,8.7,14.7,13.7c1.3,1.5,2.3,2.5,1.8,5.6c-0.8,5.2-2.1,10.3-3.9,15.1c-0.9,1.6-1.7,0.2-2.3-0.8
		c-2.5-4.2-6.2-9.3-10.2-12.9c-1.1-1.1-1.6-0.1-1.6,1l0,36c0,1.7-1.4,1.7-2,0.2c-4.2-12.9-12.6-24.1-24.1-30.7
		c-3.3-1.9-3.4-3.5-3.4-5.3v-80C879.9,74.5,879.3,72.1,883.1,73.7L883.1,73.7z M825.2,160.4c-2.5,1.4-5,3.1-7.2,4.9
		c-2,1.7-2.6,0.8-3.7-0.2L802.7,154c-0.6-0.5-1.4-0.2-1,0.9l5.5,15.8c0.7,3.6,0.8,4.8-0.7,7.1c-2.8,4.2-5.1,8.8-6.8,13.6
		c-0.3,0.8-0.9,1.9-2,0.7c-11.5-12.9-18.6-29.8-19-48.4c-0.2-12,2.4-23.3,7.2-33.5c1.4-3,2.6-2.6,4.1-0.9l8.1,9.2l0-21.2
		c0-3.9,0.5-6.1,4.2-9.5c6.3-5.9,13.6-10.8,21.6-14.2c3.1-1.3,3.3,0.7,3.3,2.4v81C827.1,158.7,827.1,159.3,825.2,160.4L825.2,160.4z
		"/>
	<path class="st2" d="M840.2,202.9c0.3-0.5,1.5-0.7,2.2-0.8c0.5-0.1,0.5-0.1,0.9-0.5c0.7-0.7,1.4-0.9,2.2-0.8
		c1.7,0.1,2.8,0.9,3.8,2.2c0.9,1,1,0.8,2.4,0.6c2.1-0.2,4-0.3,6.2-0.1c1.3-0.6,3.2-1.7,4.5-2.6c0.2-0.2,0.6-0.2,0.8-0.4
		c0.7-0.4,0.9-0.5,1.6-0.9c0.8-0.4,1.2-0.9,2-1.3c0.2-0.1,0.5-0.1,0.7-0.2c0.9-0.6,2-1.2,3-1.8c0.9,0.5,1,0.8,0.7,1.6
		c-2.7,1.8-5.1,3.6-7.8,5.4c-0.8,0.9,1.9,0.7,2.9,1c-0.9,1-2,1.9-3.2,2.4c-0.7,0.3-1.7,0.7-2.5,0.9c-0.8,0.2-1.4,0.2-1.3,0.5
		c0.1,2.4-1.1,2.7-2.5,3.6c-0.3,0.2,0.2,0.7-0.2,1c-0.8,0.9-1.3,1-2.2,2.4c-0.1,0.2,0,0.8-0.2,0.9c-0.5,0.6-1.3,1.8-1.4,1.7
		c-0.1,0,0-0.2,0.1-0.5c0.1-0.4,0.1-0.4,0.1-0.5c0-0.2-1,0-1.8,0.4c-0.7,0.4-1.2,0.8-1.3,0.7c-0.1-0.2,0.3-0.5,0.6-0.9
		c0.2-0.3,0.3-0.5,0.2-0.6c-0.1-0.1-0.8,0-1.5,0.2c-0.4,0.1-0.8,0.4-0.9,0.4c-0.1-0.1,0.4-0.6,0.4-0.8c-0.1-0.2-0.3-0.3-0.5-0.4
		c-0.3-0.1-0.6,0-0.6-0.1c0-0.2,0.8-0.5,1.5-0.5c0.7,0,1.5,0,1.7-0.1c0.2-0.1,0.3-0.3,0.4-0.5c0.4-0.6,0.6-1,1-1.5
		c0.2-0.4,0-0.7-0.4-0.7c-7.5,0.7-7.9-5.4-8.4-8.2C842.9,203.3,841.2,202.9,840.2,202.9L840.2,202.9z M847.7,210.1
		c-0.1,0.4-0.3,0.8-0.6,1.3c2.9,1.3,6.7,0.9,8.5-2.2c0.2-0.4-0.1-0.7-0.2-0.6c-1,1.3-2.2,1.9-3.4,1.9c-0.9,0-1.9-0.3-2.8-0.8
		C848.3,209.3,848,209.3,847.7,210.1L847.7,210.1z M847.2,207.7c0.1,0.2,0.2,0.3,0.4,0.6c0.3,0.4,0.5,0.7,0.9,0.7
		c2.8-0.1,4.8-1.1,6.2-4.3c0.1-0.2,0.1-0.6-0.1-0.7c-0.2-0.1-0.6,0.1-0.7,0.2c-0.9,0.6-2,1-3.1,1.5c-0.9,0.4-1.7,0.9-2.7,1.2
		C847.7,207,847,207.3,847.2,207.7L847.2,207.7z M852.6,213.2c-0.3,0.3-0.8,0.8-0.9,1.2s-0.1,0.4,0.2,0.6c0.1,0.1,0.4,0,0.6,0
		c0.3,0,0.6,0.2,0.8,0.1c0.3-0.3,0.7-1,0.9-1.3s0.2-0.5,0-0.6c-0.2-0.1-0.7-0.1-0.9,0C852.9,213,852.8,213,852.6,213.2L852.6,213.2z
		"/>
</g>
</svg>
