<svg version="1.1" xmlns="http://www.w3.org/2000/svg" xmlns:xlink="http://www.w3.org/1999/xlink" x="0px" y="0px" viewBox="0 0 992 1483" style="enable-background:new 0 0 992.13 1483.32;" xml:space="preserve" id="el_i0NeTJSBL"><style>@-webkit-keyframes kf_el_6JOEeZymxK6_an_Qa7tj3brU{0%{-webkit-transform: translate(225.0399932861328px, 1212.8399658203125px) translate(-225.0399932861328px, -1212.8399658203125px) translate(0px, 0px);transform: translate(225.0399932861328px, 1212.8399658203125px) translate(-225.0399932861328px, -1212.8399658203125px) translate(0px, 0px);}50%{-webkit-transform: translate(225.0399932861328px, 1212.8399658203125px) translate(-225.0399932861328px, -1212.8399658203125px) translate(220px, 0px);transform: translate(225.0399932861328px, 1212.8399658203125px) translate(-225.0399932861328px, -1212.8399658203125px) translate(220px, 0px);}100%{-webkit-transform: translate(225.0399932861328px, 1212.8399658203125px) translate(-225.0399932861328px, -1212.8399658203125px) translate(0px, 0px);transform: translate(225.0399932861328px, 1212.8399658203125px) translate(-225.0399932861328px, -1212.8399658203125px) translate(0px, 0px);}}@keyframes kf_el_6JOEeZymxK6_an_Qa7tj3brU{0%{-webkit-transform: translate(225.0399932861328px, 1212.8399658203125px) translate(-225.0399932861328px, -1212.8399658203125px) translate(0px, 0px);transform: translate(225.0399932861328px, 1212.8399658203125px) translate(-225.0399932861328px, -1212.8399658203125px) translate(0px, 0px);}50%{-webkit-transform: translate(225.0399932861328px, 1212.8399658203125px) translate(-225.0399932861328px, -1212.8399658203125px) translate(220px, 0px);transform: translate(225.0399932861328px, 1212.8399658203125px) translate(-225.0399932861328px, -1212.8399658203125px) translate(220px, 0px);}100%{-webkit-transform: translate(225.0399932861328px, 1212.8399658203125px) translate(-225.0399932861328px, -1212.8399658203125px) translate(0px, 0px);transform: translate(225.0399932861328px, 1212.8399658203125px) translate(-225.0399932861328px, -1212.8399658203125px) translate(0px, 0px);}}@-webkit-keyframes kf_el_Y05Nai_LRM_an_zHTCuYJxU{0%{-webkit-transform: translate(247.13357543945312px, 144.44451904296875px) translate(-247.13357543945312px, -144.44451904296875px) translate(0px, 0px);transform: translate(247.13357543945312px, 144.44451904296875px) translate(-247.13357543945312px, -144.44451904296875px) translate(0px, 0px);}50%{-webkit-transform: translate(247.13357543945312px, 144.44451904296875px) translate(-247.13357543945312px, -144.44451904296875px) translate(220px, 0px);transform: translate(247.13357543945312px, 144.44451904296875px) translate(-247.13357543945312px, -144.44451904296875px) translate(220px, 0px);}100%{-webkit-transform: translate(247.13357543945312px, 144.44451904296875px) translate(-247.13357543945312px, -144.44451904296875px) translate(0px, 0px);transform: translate(247.13357543945312px, 144.44451904296875px) translate(-247.13357543945312px, -144.44451904296875px) translate(0px, 0px);}}@keyframes kf_el_Y05Nai_LRM_an_zHTCuYJxU{0%{-webkit-transform: translate(247.13357543945312px, 144.44451904296875px) translate(-247.13357543945312px, -144.44451904296875px) translate(0px, 0px);transform: translate(247.13357543945312px, 144.44451904296875px) translate(-247.13357543945312px, -144.44451904296875px) translate(0px, 0px);}50%{-webkit-transform: translate(247.13357543945312px, 144.44451904296875px) translate(-247.13357543945312px, -144.44451904296875px) translate(220px, 0px);transform: translate(247.13357543945312px, 144.44451904296875px) translate(-247.13357543945312px, -144.44451904296875px) translate(220px, 0px);}100%{-webkit-transform: translate(247.13357543945312px, 144.44451904296875px) translate(-247.13357543945312px, -144.44451904296875px) translate(0px, 0px);transform: translate(247.13357543945312px, 144.44451904296875px) translate(-247.13357543945312px, -144.44451904296875px) translate(0px, 0px);}}#el_i0NeTJSBL *{-webkit-animation-duration: 3s;animation-duration: 3s;-webkit-animation-iteration-count: 1;animation-iteration-count: 1;-webkit-animation-timing-function: cubic-bezier(0, 0, 1, 1);animation-timing-function: cubic-bezier(0, 0, 1, 1);}#el_OKI2FusW6M{fill: gray;}#el_6PWOGpn6Og{fill: #FFE000;}#el_rCxOMYI1f0{font-family: 'Anton', sans-serif;font-size: 102px;-webkit-transform: matrix(1, 0, 0, 1, 795.2944, 1409.9386);transform: matrix(1, 0, 0, 1, 795.2944, 1409.9386);}#el_iz608qadzE{font-family: 'Anton', sans-serif;font-size: 58px;-webkit-transform: matrix(1, 0, 0, 1, 210.6717, 1362.4845);transform: matrix(1, 0, 0, 1, 210.6717, 1362.4845);}#el_EVWVd4dEhu{font-family: 'Anton', sans-serif;font-size: 38px;-webkit-transform: matrix(1, 0, 0, 1, 210.6717, 1413.2755);transform: matrix(1, 0, 0, 1, 210.6717, 1413.2755);}#el_0YQ7AnXMEA{font-family: 'Anton', sans-serif;font-size: 38px;fill: white;-webkit-transform: matrix(1, 0, 0, 1, 70.7298, 144.8595);transform: matrix(1, 0, 0, 1, 70.7298, 144.8595);}#el_Y05Nai_LRM{opacity: 1;fill: #DAD8DB;}#el_2WrWCWBAoyP{-webkit-transform: matrix(0.9798, -0.1997, 0.1997, 0.9798, -35.9475, 102.1866);transform: matrix(0.9798, -0.1997, 0.1997, 0.9798, -35.9475, 102.1866);}#el_6JOEeZymxK6{opacity: 1;fill: #DAD8DB;}#el_Y05Nai_LRM_an_zHTCuYJxU{-webkit-animation-fill-mode: backwards;animation-fill-mode: backwards;-webkit-transform: translate(247.13357543945312px, 144.44451904296875px) translate(-247.13357543945312px, -144.44451904296875px) translate(0px, 0px);transform: translate(247.13357543945312px, 144.44451904296875px) translate(-247.13357543945312px, -144.44451904296875px) translate(0px, 0px);-webkit-animation-name: kf_el_Y05Nai_LRM_an_zHTCuYJxU;animation-name: kf_el_Y05Nai_LRM_an_zHTCuYJxU;-webkit-animation-timing-function: cubic-bezier(0, 0, 1, 1);animation-timing-function: cubic-bezier(0, 0, 1, 1);}#el_6JOEeZymxK6_an_Qa7tj3brU{-webkit-animation-fill-mode: backwards;animation-fill-mode: backwards;-webkit-transform: translate(225.0399932861328px, 1212.8399658203125px) translate(-225.0399932861328px, -1212.8399658203125px) translate(0px, 0px);transform: translate(225.0399932861328px, 1212.8399658203125px) translate(-225.0399932861328px, -1212.8399658203125px) translate(0px, 0px);-webkit-animation-name: kf_el_6JOEeZymxK6_an_Qa7tj3brU;animation-name: kf_el_6JOEeZymxK6_an_Qa7tj3brU;-webkit-animation-timing-function: cubic-bezier(0, 0, 1, 1);animation-timing-function: cubic-bezier(0, 0, 1, 1);}</style>
	<switch id="el_0kbi-y2pGt">
	<g id="el_CAu-kEjtnM">
        <g id="el_ROOv3UYzez">
			<g id="el_0SeUJdoVzD">
				<g id="el_oLydhAulBp">
					<g id="el_osuDzh5Stk">
						<path d="M879.32,59.64h-768.3c-44.93,0-81.35,36.42-81.35,81.35v1221.47c0,44.93,36.42,81.35,81.35,81.35h768.3&#10;&#9;&#9;&#9;&#9;&#9;&#9;&#9;c44.93,0,81.35-36.42,81.35-81.35V140.99C960.67,96.06,924.25,59.64,879.32,59.64z" id="el_OKI2FusW6M"/>
					</g>
				</g>
                <path d="M960.67,1362.46v-81.73h-931v81.73c0,44.93,36.42,81.35,81.35,81.35h768.3&#10;&#9;&#9;&#9;&#9;&#9;C924.25,1443.81,960.67,1407.39,960.67,1362.46z" id="el_6PWOGpn6Og"/>
                <g id="el_eD7Ygj9bbT">
					<text id="el_rCxOMYI1f0"/>
				</g>
                <text id="el_iz608qadzE">PROCESSING TX</text>
                <text id="el_EVWVd4dEhu"/>
                <text id="el_0YQ7AnXMEA">Please be patient...</text>
			</g>
		</g>
        <g id="el_Y05Nai_LRM_an_zHTCuYJxU" data-animator-group="true" data-animator-type="0"><g id="el_Y05Nai_LRM">
			<path d="M673.32,390.99c0,0-60.36-33.06-119.22-45.15l-3.19-28.96l-0.58-7.66h32.91l-6.57-59.82l20.14-3.83&#10;&#9;&#9;&#9;&#9;c0,0-5.69-38.44-15.19-85.94c-0.01-0.04-35-16.25-73.44-15.13c-38.85,1.13-70.37,31.2-70.37,70.87c0,13.27,3.55,25.68,9.7,36.34&#10;&#9;&#9;&#9;&#9;l-10.37,94.12c-58.86,12.09-119.22,45.15-119.22,45.15c-135.11,193.46-35.27,407.98-35.27,407.98h1.16h54.42l-1.53-59.72h-38.47&#10;&#9;&#9;&#9;&#9;c-11.26-71.83,66.62-109.8,26.27-168.22l35.7-35.63v203.85l0,0h101.79h1.16h64.95h1.16h101.79l0,0V535.41l35.7,35.63&#10;&#9;&#9;&#9;&#9;c-40.34,58.42,37.53,96.39,26.27,168.22h-38.47l-1.53,59.72h54.42h1.16C708.59,798.97,808.43,584.45,673.32,390.99z" id="el_z1mntDCn_2"/>
            <line x1="445.22" y1="274.22" x2="445.22" y2="274.22" id="el_JdEsim6Rmsx"/>
            <path d="M631.04,739.26H495.62H360.19l-59.73,512.71h23.46c6.57-96.98,123.14-147.71,76-260.57l95.7-156.03&#10;&#9;&#9;&#9;&#9;l95.7,156.03c-47.14,112.85,69.43,163.59,76,260.57h23.46L631.04,739.26z" id="el_YFF68JhyIkw"/>
            <g id="el_VdbXX8EeYNM">
				<path d="M399.92,991.4L399.92,991.4l53.24-86.8l-30.72-7.94c0,0,1.88,77.57-63.8,77.57v22.98H330.3l-29.84,254.75&#10;&#9;&#9;&#9;&#9;&#9;h23.46c0.08-1.14,0.18-2.27,0.29-3.4C333.23,1153.79,446.5,1102.92,399.92,991.4z" id="el_TFD8iXdlxil"/>
                <path d="M660.94,997.22H632.6v-22.98c-65.68,0-63.8-77.57-63.8-77.57l-30.72,7.94l53.24,86.8v0&#10;&#9;&#9;&#9;&#9;&#9;c-46.58,111.52,66.69,162.39,75.71,257.16c0.11,1.13,0.22,2.27,0.29,3.4h23.46L660.94,997.22z" id="el_u7CXMlROPSJ"/>
			</g>
            <path d="M558.59,299.52c11.34-80.56-56.61-77.33-56.61-77.33v7.48v5.96v42.44L558.59,299.52z" id="el_oD_Dm6gflQY"/>
            <g id="el_wrO8E4Qm2xS">
				<path d="M709.76,793.05c-27.15-3.95-43.11-14.96-56.03-21.81l-0.71,27.73h54.42&#10;&#9;&#9;&#9;&#9;&#9;C707.44,798.97,708.31,796.92,709.76,793.05z" id="el_JjBMp1KsF_l"/>
                <path d="M282.64,798.97h55.58l-1.27-28.05c-12.77,6.82-29.06,18.12-56.64,22.13&#10;&#9;&#9;&#9;&#9;&#9;C281.77,796.92,282.64,798.97,282.64,798.97z" id="el_e7_NlzYU3uk"/>
			</g>
            <g id="el_kwVjIRVQB5j">
				<path d="M360.19,536.33l0.35-0.93v-34.77c-0.37,11.99-5.96,60.97-72.13,71.31l45.32,50.46&#10;&#9;&#9;&#9;&#9;&#9;c4.48-16.19,3.66-32.71-9.23-51.37l35.7-35.63V536.33z" id="el_6enpXyuiH_e"/>
                <path d="M630.7,500.64v34.77l0.35,0.93v-0.93l35.7,35.63c-12.88,18.66-13.7,35.18-9.23,51.37l45.32-50.46&#10;&#9;&#9;&#9;&#9;&#9;C636.66,561.61,631.07,512.63,630.7,500.64z" id="el_E6jw_BSitis"/>
                <path d="M630.7,500.64v-2.66C630.7,497.98,630.65,498.94,630.7,500.64z" id="el_-lE_rETaKCN"/>
                <path d="M360.54,497.98v2.66C360.59,498.94,360.54,497.98,360.54,497.98z" id="el_8SzUglooY6v"/>
			</g>

            <ellipse cx="488.45" cy="229.24" rx="13.31" ry="20.66" id="el_2WrWCWBAoyP"/>
            <path d="M586.62,354.39c-1.23-0.39-2.47-0.77-3.7-1.14c-0.08-0.02-0.15-0.05-0.23-0.07&#10;&#9;&#9;&#9;&#9;c-0.09-0.03-0.18-0.06-0.27-0.08c-2.49-0.75-4.99-1.48-7.5-2.18c-0.07-0.02-0.13-0.04-0.2-0.06c-0.15-0.04-0.31-0.09-0.46-0.13&#10;&#9;&#9;&#9;&#9;c-1.25-0.35-2.5-0.69-3.75-1.02c-0.03-0.01-0.06-0.02-0.1-0.03c-1.19-0.31-2.37-0.62-3.56-0.92c-0.27-0.07-0.55-0.14-0.82-0.21&#10;&#9;&#9;&#9;&#9;c-1.23-0.31-2.46-0.61-3.69-0.9c-0.02,0-0.04-0.01-0.06-0.01c-0.01,0-0.03-0.01-0.04-0.01c-1.18-0.28-2.36-0.55-3.55-0.81&#10;&#9;&#9;&#9;&#9;c-0.16-0.04-0.33-0.07-0.49-0.11c-0.14-0.03-0.28-0.06-0.42-0.09c-1.21-0.27-2.43-0.53-3.64-0.78c0,0-0.01,0-0.01,0l-3.19-28.96&#10;&#9;&#9;&#9;&#9;l-0.58-7.66h32.62l-0.03-0.49l-80.94-30.69v-42.44c-0.18,1.76-0.52,3.41-1.01,4.94c-0.02,0.07-0.04,0.13-0.07,0.2&#10;&#9;&#9;&#9;&#9;c-0.34,1.01-0.74,1.96-1.21,2.83c-0.08,0.15-0.16,0.29-0.24,0.44c-0.13,0.22-0.26,0.45-0.4,0.66c-0.12,0.19-0.26,0.38-0.39,0.56&#10;&#9;&#9;&#9;&#9;c-0.17,0.24-0.35,0.48-0.53,0.7c-0.18,0.23-0.37,0.44-0.57,0.65c-0.12,0.12-0.24,0.24-0.36,0.36c-0.2,0.2-0.41,0.38-0.63,0.56&#10;&#9;&#9;&#9;&#9;c-0.1,0.08-0.2,0.17-0.3,0.25c-0.32,0.24-0.64,0.46-0.98,0.66c-0.09,0.05-0.18,0.09-0.27,0.14c-0.28,0.15-0.56,0.29-0.85,0.41&#10;&#9;&#9;&#9;&#9;c-0.11,0.04-0.21,0.09-0.32,0.13c-0.38,0.14-0.77,0.27-1.17,0.35c-7.18,1.57-14.91-6.21-17.25-17.37&#10;&#9;&#9;&#9;&#9;c-1.45-6.92-0.5-13.52,2.15-17.91l-39.73-1.19c-0.03,0.79-0.06,1.58-0.06,2.38c0,13.27,3.55,25.68,9.7,36.34l-2.49,22.61&#10;&#9;&#9;&#9;&#9;l0.3,0.19l97.13,94.42h45.1L586.62,354.39z" id="el_L8iCTCID6l7"/>
		</g></g>

        <g id="el_6JOEeZymxK6_an_Qa7tj3brU" data-animator-group="true" data-animator-type="0"><g id="el_6JOEeZymxK6">
			<g id="el_kjZvnBZJu">
				<path d="M290.95,1212.84c20.81,11.8,12.72,34.9,12.72,34.9h20.97l0.69,32.38H225.04l69.38-30.69L290.95,1212.84z" id="el_9AbnI7hrQq"/>
                <path d="M700.29,1212.84c-20.81,11.8-12.72,34.9-12.72,34.9H666.6l-0.69,32.38H766.2l-69.38-30.69L700.29,1212.84z" id="el_bBfLXzWYpi"/>
			</g>
		</g></g>
	</g>
</switch>
</svg>