<?xml version="1.0" encoding="UTF-8"?>
<svg width="596px" height="596px" viewBox="0 0 596 596" version="1.1" xmlns="http://www.w3.org/2000/svg" xmlns:xlink="http://www.w3.org/1999/xlink">
    <!-- Generator: Sketch 53.2 (72643) - https://sketchapp.com -->
    <title>Nifty_Logo Copy</title>
    <desc>Created with Sketch.</desc>
    <g id="Nifty_Logo-Copy" stroke="none" stroke-width="1" fill="none" fill-rule="evenodd">
        <path d="M293.602,344.207 C385.794,342.439 465.07,401.254 493.43,484.052 C496.768,493.995 497.199,497.656 489.612,504.318 C462.909,529.005 431.416,548.625 396.644,561.603 C388.258,564.413 387.357,563.719 387.886,553.404 C387.917,552.088 387.923,550.764 387.898,549.435 C386.943,499.534 345.745,459.889 295.841,460.847 C245.94,461.805 206.296,503.003 207.256,552.905 C207.284,554.426 207.353,555.938 207.457,557.44 C208.115,563.648 204.457,562.788 199.273,561.677 C164.112,548.579 132.21,528.681 105.218,503.541 C99.143,498.382 97.97,494.948 101.85,483.687 C129.366,403.921 204.343,345.921 293.602,344.207" id="Fill-2" fill="#FFFFFF"></path>
        <path d="M191.298,364.875 C181.697,370.368 172.564,376.584 163.971,383.442 C156.612,389.827 154.042,386.478 150.04,382.808 L105.937,340.615 C103.839,338.608 100.604,339.886 102.091,344.152 L122.868,403.776 C125.391,417.176 126.05,421.952 120.148,430.737 C109.411,446.519 100.727,463.797 94.476,482.174 C93.367,485.173 91.148,489.207 87.003,484.952 C43.531,436.307 16.584,372.472 15.234,302.149 C14.369,256.899 24.19,213.926 42.38,175.641 C47.698,164.288 52.186,166.007 57.882,172.138 L88.5,206.915 L88.402,126.967 C88.378,112.086 90.189,103.968 104.145,90.922 C127.862,68.65 155.547,50.249 185.779,37.181 C197.528,32.14 198.393,39.76 198.393,46.385 L198.393,352.499 C198.393,358.551 198.342,360.574 191.298,364.875 L191.298,364.875 Z" id="Fill-3" fill="#FFFFFF"></path>
        <circle id="Oval-Copy-2" fill="#1A1919" cx="217.5" cy="93.5" r="9.5"></circle>
        <g id="noun_Football_1496409" transform="translate(249.000000, 481.000000)" fill="#FFFFFF" fill-rule="nonzero" stroke="#FFFFFF">
            <g id="Group">
                <g id="Shape">
                    <path d="M49.5,99.5 C21.8857625,99.5 -0.5,77.1142375 -0.5,49.5 C-0.5,21.8857625 21.8857625,-0.5 49.5,-0.5 C77.1142375,-0.5 99.5,21.8857625 99.5,49.5 C99.5,77.1142375 77.1142375,99.5 49.5,99.5 Z M23.2822249,56.8805542 C22.9590774,57.7224531 23.0897681,59.0802235 23.5700567,59.8493157 L30.3949358,70.7780815 C30.8585624,71.5204926 31.9903836,72.0976784 32.8630117,72.0360054 L48.6034084,70.9235523 C49.4728538,70.8621043 50.5129441,70.1325634 50.8614844,69.3424451 L56.703398,56.0992075 C57.0546402,55.3029647 56.9000275,54.0387724 56.3637706,53.3410409 L46.3893271,40.3631514 C45.8520823,39.6641346 44.6549377,39.1664413 43.7856763,39.2798602 L30.913013,40.9594508 C30.0478571,41.0723341 29.0475142,41.8601962 28.734398,42.6759606 L23.2822249,56.8805542 Z M49.8853006,37.6254955 L59.9305604,50.6955251 C60.4746548,51.4034541 61.6850303,51.9460833 62.5791178,51.884897 L75.4435056,51.0045306 C76.3132239,50.9450119 77.3125031,50.2150826 77.6306418,49.4102411 L82.5119522,37.0612815 C82.840292,36.2306327 82.6835689,34.9130259 82.1707502,34.17831 L73.7240042,22.0766499 C73.2082803,21.3377717 72.0311246,20.7406115 71.1432946,20.7624338 L56.6773462,21.1179965 C55.8277255,21.1388796 54.8234663,21.8342686 54.4981894,22.6302667 L49.5134727,34.8285685 C49.1789542,35.6471821 49.3501774,36.9292391 49.8853006,37.6254955 Z M5.02455619,44.1181966 C4.95569996,44.6933277 4.89788659,45.2705913 4.85118589,45.8497673 L8.16104616,56.991222 C8.38861734,57.7572585 9.21822948,58.2597289 10.0071691,58.1054513 L17.1030849,56.7178414 C17.9739599,56.5475413 18.9759083,55.708996 19.2928817,54.8831824 L24.9817922,40.0618149 C25.3120212,39.2014665 25.2920427,37.7373943 24.9399781,36.8830208 L20.8643725,26.9925364 C20.5491201,26.2274969 19.5838325,25.6693353 18.766927,25.7761269 L13.6203101,26.4489286 C12.7506529,26.5626162 11.7408843,27.3443017 11.4151459,28.1578268 L5.02455608,44.1181968 Z M36.7420754,92.4525789 C40.8476275,93.6701599 45.1316539,94.2953668 49.5,94.2953668 C52.3114195,94.2953668 55.0894008,94.0364351 57.8097383,93.5261861 L62.2993374,85.0793839 C62.6764026,84.3699674 62.4548983,83.3662377 61.8124032,82.8830168 L52.9263498,76.1998109 C52.1829458,75.6406963 50.7621579,75.2222125 49.8280556,75.2882302 L33.3400718,76.453519 C32.4836084,76.5140496 31.551562,77.2476278 31.2941993,78.0592398 L29.6969118,83.096401 C29.4343471,83.9244179 29.7260594,85.1667162 30.3320313,85.7959948 L36.7420789,92.4525826 Z M64.1678044,91.8389169 C73.4527427,88.6223954 81.4362735,82.4048928 86.8614485,74.2222667 L83.6417194,73.7935325 C82.7221269,73.671081 81.3211217,74.0399661 80.583902,74.5985903 L69.8773687,82.7114078 C69.0923789,83.3062295 68.0559215,84.5237523 67.591731,85.3970879 L64.1678044,91.8389169 Z M89.3047224,70.0682666 C92.5676804,63.7668143 94.2953668,56.7583384 94.2953668,49.5 C94.2953668,45.8426358 93.8571455,42.2433447 92.9988934,38.7565755 L88.4410401,38.1416065 C87.6276552,38.0318605 86.6830015,38.5877937 86.3806805,39.3526191 L81.2200306,52.4082644 C80.8688964,53.2965795 80.7332884,54.8414257 80.9227248,55.7728961 L83.3682172,67.7975272 C83.5355251,68.62019 84.3877162,69.4135223 85.2229564,69.5247416 L87.7533535,69.8616853 C88.7449082,69.993721 89.0691608,70.0368986 89.3047224,70.0682666 Z M73.4166628,11.6167256 C66.3189301,7.12598936 58.0894009,4.70463321 49.5,4.70463321 C46.9026281,4.70463321 44.3336225,4.92563708 41.8119752,5.36175204 L40.5938324,8.723033 C40.3217431,9.47382239 40.6896757,10.3879344 41.4070709,10.7434598 L51.9352122,15.9609772 C52.8044428,16.391749 54.3508513,16.7336846 55.3251273,16.7097377 L70.5474667,16.3355833 C71.386171,16.3149686 72.2850791,15.6176072 72.5131052,14.8113875 L73.4166629,11.6167254 Z M14.2206663,21.892512 C14.409234,21.8678611 14.639411,21.8377708 14.9250908,21.8004247 L20.6105239,21.0571853 C21.5780734,20.9307005 23.0278412,20.3487897 23.8106256,19.7740928 L33.3722107,12.7542647 C34.1350189,12.1942339 35.0610127,10.9583253 35.3851154,10.0640125 L36.6495533,6.57498724 C27.7611263,9.23234118 19.9268513,14.6103153 14.2206663,21.892512 Z M26.6381847,88.7094277 L28.0693941,90.4669564 L28.6514666,89.6905561 C27.9633438,89.4002317 27.2917154,89.071472 26.6381847,88.7094277 Z M23.0531788,86.2585589 C22.8980785,86.1299029 22.746855,86.0009934 22.5995914,85.8721072 C22.3103609,85.6189702 22.0578401,85.3844122 21.8438489,85.1746185 C21.7172502,85.0505031 21.6327328,84.9634593 21.5920992,84.9196766 L21.0981816,85.7432932 L23.0531788,86.2585589 Z"></path>
                </g>
            </g>
        </g>
        <path d="M287,126.169186 C316.820721,125.054094 347.932088,129.451114 380.334102,139.360245 C384.629097,140.200334 387.887935,143.934448 387.99717,148.44914 C387.999049,148.451943 388,148.453363 388,148.453363 C388,148.453363 388,206.32641 388,206.32641 C387.922075,211.231367 383.922554,215.183343 379,215.183343 C377.462368,215.183343 376.014798,214.797742 374.748715,214.117965 C344.305532,201.47095 315.055961,195.840596 287,197.226901 L287,329 L286.882248,329 C286.204597,333.272202 282.679047,336.596208 278.311816,336.9658 C278.315571,336.985723 278.318404,336.997123 278.320312,337 C256.497631,340.412763 237.822172,344.980595 222.293936,350.703496 C221.391714,351.231873 220.394539,351.615667 219.334212,351.823077 C219.182615,351.881935 219.031335,351.94091 218.880371,352 L218.773625,351.915362 C218.357026,351.971181 217.931879,352 217.5,352 C212.559196,352 208.49934,348.22821 208.042728,343.406926 L208,343.373047 L207.981553,321.797852 L208,321.797852 L208,47 L208,37.5 C208,33.1461929 210.928806,29.4764451 214.923687,28.3534859 L214.941406,28.3300781 C265.723138,9.37119685 320.854036,8.98680467 380.334102,27.1769016 C384.629097,28.016991 387.887935,31.7511049 387.99717,36.2657972 C387.999049,36.2686 388,36.2700195 388,36.2700195 C388,36.2700195 388,94.1430664 388,94.1430664 C387.922075,99.0480242 383.922554,103 379,103 C377.462368,103 376.014798,102.614399 374.748715,101.934622 C344.305532,89.2876073 315.055961,83.6572526 287,85.0435574 L287,126.169186 Z" id="Combined-Shape" fill="#FFFFFF"></path>
        <path d="M512.981553,208.058796 L512.981553,374.797852 L513,374.797852 L512.981633,484.527039 C512.993801,484.683092 513,484.840822 513,485 C513,488.313708 510.313708,491 507,491 C503.922755,491 501.386578,488.683413 501.040289,485.699057 L501,485.701416 C501,485.701416 495.718836,439.466797 437.475586,387.943359 C437.478296,387.939275 437.488811,387.920364 437.50713,387.886628 C435.724438,386.442965 434.474758,384.367018 434.099305,382 L433.981553,382 L433.981553,154.789092 C424.233938,151.009758 414.297704,148.08006 404.172852,146 C404.08701,145.982365 403.996643,145.953813 403.901749,145.914344 C400.557485,145.387366 398,142.492349 398,139 C398,138.994285 398.000007,138.988571 398.000021,138.98286 C397.934818,138.884061 397.869184,138.784222 397.803118,138.683343 L398,41.9868164 L398.020991,41.9737998 C398.288863,38.6300274 401.087294,36 404.5,36 C405.459245,36 406.369958,36.2077884 407.189585,36.5808102 C413.214888,38.7645669 416.227539,39.8564453 416.227539,39.8564453 C514.642253,90.5335286 569.233073,170.054688 580,278.419922 L579.783844,278.541205 C579.924399,279.002714 580,279.492528 580,280 C580,282.761424 577.761424,285 575,285 C573.513757,285 572.178971,284.351537 571.263138,283.322107 L571.176,283.371 C552.82727,253.539796 533.429121,228.435728 512.981553,208.058796 Z" id="Combined-Shape" fill="#FFFFFF"></path>
    </g>
</svg>