<?xml version="1.0" encoding="UTF-8"?>
<svg width="932px" height="1385px" viewBox="0 0 932 1385" version="1.1" xmlns="http://www.w3.org/2000/svg" xmlns:xlink="http://www.w3.org/1999/xlink">
    <!-- Generator: Sketch 53.2 (72643) - https://sketchapp.com -->
    <title>nifty_FOOTBALLER_v11_with_card</title>
    <desc>Created with Sketch.</desc>
    <g id="Page-1" stroke="none" stroke-width="1" fill="none" fill-rule="evenodd">
        <g id="nifty_FOOTBALLER_v11_with_card">
            <g id="Card">
                <g id="Group">
                    <path d="M850.32,0.64 L82.02,0.64 C37.09,0.64 0.67,37.06 0.67,81.99 L0.67,1303.46 C0.67,1348.39 37.09,1384.81 82.02,1384.81 L850.32,1384.81 C895.25,1384.81 931.67,1348.39 931.67,1303.46 L931.67,81.99 C931.67,37.06 895.25,0.64 850.32,0.64 Z" id="Path" fill="#808080" fill-rule="nonzero"></path>
                    <path d="M931.67,1303.46 L931.67,1221.73 L0.67,1221.73 L0.67,1303.46 C0.67,1348.39 37.09,1384.81 82.02,1384.81 L850.32,1384.81 C895.25,1384.81 931.67,1348.39 931.67,1303.46 Z" id="Path" fill="#FFE000" fill-rule="nonzero"></path>
                    <text id="Average" fill="#000000" font-family="Helvetica" font-size="102" font-weight="normal">
                        <tspan x="766.2944" y="1350.9386">78</tspan>
                    </text>
                    <text id="Name" fill="#000000" font-family="Helvetica" font-size="58" font-weight="normal">
                        <tspan x="181.6717" y="1303.4845">JOHNNY BIGBOOTS</tspan>
                    </text>
                    <g transform="translate(35.000000, 1249.000000)" fill-rule="nonzero">
                        <circle id="Oval" fill="#FFFFFF" cx="51.67" cy="51.72" r="51"></circle>
                        <path d="M60.39,1.48 C57.55,0.99 54.64,0.72 51.67,0.72 C48.69,0.72 45.78,0.99 42.95,1.48 L42.95,43 L1.43,43 C0.94,45.84 0.67,48.75 0.67,51.72 C0.67,54.69 0.94,57.61 1.43,60.44 L42.95,60.44 L42.95,101.96 C45.79,102.45 48.7,102.72 51.67,102.72 C54.65,102.72 57.56,102.45 60.39,101.96 L60.39,60.44 L101.91,60.44 C102.4,57.6 102.67,54.69 102.67,51.72 C102.67,48.75 102.4,45.83 101.91,43 L60.39,43 L60.39,1.48 Z" id="Path" fill="#FF0000"></path>
                    </g>
                    <text id="Position" fill="#000000" font-family="Helvetica" font-size="38" font-weight="normal">
                        <tspan x="181.6717" y="1354.2755">MIDFIELDER</tspan>
                    </text>
                    <text id="TokenId" fill="#FFFFFF" font-family="Helvetica" font-size="38" font-weight="normal">
                        <tspan x="41.7298" y="85.8595">#00047373</tspan>
                    </text>
                </g>
                <g id="Nifty_Logo-Copy" transform="translate(780.000000, 30.000000)" fill-rule="nonzero">
                    <path d="M58.6490984,69.0081575 C77.9667089,68.6365525 94.577943,80.9985154 100.520405,98.4013176 C101.219838,100.491176 101.310149,101.260659 99.7203935,102.660903 C94.1251341,107.849712 87.5261937,111.973519 80.2401825,114.701285 C78.4830074,115.291902 78.2942148,115.146034 78.4050597,112.977988 C78.4115554,112.701386 78.4128126,112.423102 78.4075742,112.143768 C78.2074666,101.655384 69.5749723,93.3226453 59.1182511,93.5240014 C48.6621586,93.7253576 40.3552843,102.384512 40.5564396,112.873106 C40.5623066,113.192796 40.5767647,113.510594 40.5985565,113.82629 C40.7364316,115.131111 39.9699463,114.950353 38.8837078,114.716839 C31.5161868,111.963851 24.8315459,107.781613 19.1757304,102.497591 C17.9027947,101.413252 17.6570081,100.691481 18.4700107,98.3246005 C24.2356234,81.5590758 39.9460591,69.3684126 58.6490984,69.0081575" id="Fill-2" fill="#FFFFFF"></path>
                    <path d="M36.5284234,73.6024446 C34.5370765,74.7466886 32.6427976,76.0415403 30.8605203,77.4701268 C29.3341873,78.8001829 28.8011427,78.1025544 27.9710864,77.3380586 L18.8236669,68.5488564 C18.3885199,68.1307793 17.7175474,68.3969988 18.0259666,69.2856471 L22.3353318,81.7058919 C22.8586282,84.497239 22.9953116,85.4921251 21.7711756,87.3221239 C19.5442105,90.6096642 17.7430588,94.2088355 16.4465366,98.036939 C16.2165185,98.6616591 15.7562749,99.5019796 14.8965589,98.6156227 C5.88001533,88.4824078 0.290928101,75.1849717 0.0109241019,60.5360237 C-0.168485868,51.1100195 1.86849137,42.158336 5.641286,34.1832073 C6.74429434,31.8182697 7.67515208,32.1763537 8.85656155,33.4534992 L15.2070522,40.6978782 L15.186726,24.0439514 C15.1817482,20.9440979 15.5573684,19.2530415 18.4519875,16.5354359 C23.3711392,11.8959671 29.1132953,8.06286421 35.3837256,5.34067585 C37.82059,4.29058773 38,5.87790601 38,7.25795636 L38,71.0244064 C38,72.2850954 37.9894221,72.7065055 36.5284234,73.6024446 L36.5284234,73.6024446 Z" id="Fill-3" fill="#FFFFFF"></path>
                    <circle id="Oval-Copy-2" fill="#1A1919" cx="42" cy="17" r="2"></circle>
                    <g id="noun_Football_1496409" transform="translate(49.000000, 98.000000)" fill="#FFFFFF" stroke="#FFFFFF">
                        <g id="Group">
                            <g id="Shape">
                                <path d="M10.5,20.8960396 C4.75842587,20.8960396 0.103960396,16.2415741 0.103960396,10.5 C0.103960396,4.75842587 4.75842587,0.103960396 10.5,0.103960396 C16.2415741,0.103960396 20.8960396,4.75842587 20.8960396,10.5 C20.8960396,16.2415741 16.2415741,20.8960396 10.5,20.8960396 Z M5.04877943,12.0345707 C4.98159035,12.209619 5.00876366,12.4919277 5.10862565,12.6518379 L6.52765992,14.9241556 C6.62405753,15.0785183 6.85938669,15.1985272 7.04082421,15.1857041 L10.31358,14.954402 C10.4943557,14.9416256 10.7106121,14.7899389 10.7830809,14.6256569 L11.9977362,11.8721125 C12.0707668,11.706557 12.0386196,11.4437052 11.9271206,11.2986323 L9.85322643,8.6002592 C9.74152206,8.45491908 9.49261081,8.35143829 9.31187329,8.37502044 L6.63537894,8.72424225 C6.45549504,8.74771303 6.24750295,8.91152594 6.18239958,9.08114032 L5.04877943,12.0345707 Z M10.580112,8.03104362 L12.6687304,10.7485745 C12.7818589,10.8957677 13.0335212,11.0085916 13.2194205,10.9958697 L15.8941942,10.8128232 C16.0750268,10.800448 16.2827977,10.6486805 16.3489453,10.4813373 L17.3638712,7.9137318 C17.4321399,7.74102264 17.3995539,7.46706479 17.2929283,7.31430208 L15.5366741,4.79811533 C15.4294444,4.64448719 15.1846893,4.52032516 15.000091,4.52486247 L11.9923195,4.59879135 C11.8156657,4.60313338 11.6068593,4.74771921 11.5392275,4.91322377 L10.5028013,7.44950434 C10.4332479,7.61971113 10.4688488,7.88627744 10.580112,8.03104362 Z M1.25263049,9.38101117 C1.23831385,9.50059289 1.22629325,9.62061799 1.2165832,9.74104073 L1.90477197,12.0575808 C1.95208875,12.2168557 2.12458237,12.3213298 2.28861932,12.2892523 L3.76400775,12.0007393 C3.94508077,11.9653304 4.15340668,11.7909794 4.21931204,11.6192755 L5.40215481,8.53760508 C5.47081629,8.35872076 5.46666234,8.05430971 5.39346079,7.87666769 L4.54605765,5.82023034 C4.48051012,5.66116272 4.27980676,5.54510932 4.10995512,5.56731351 L3.03986646,5.70720298 C2.85904664,5.73084099 2.64909476,5.89336966 2.58136697,6.06251844 L1.25263047,9.38101122 L1.25263049,9.38101117 Z M7.84736221,19.4307342 C8.70099186,19.6838946 9.59173002,19.8138881 10.5,19.8138881 C11.0845526,19.8138881 11.6621526,19.7600509 12.2277674,19.6539595 L13.1612484,17.8976937 C13.2396481,17.7501912 13.1935927,17.541495 13.0600046,17.4410233 L11.2124094,16.0514458 C11.0578402,15.9351943 10.7624289,15.8481828 10.5682096,15.8619092 L7.14001493,16.104197 C6.96193838,16.1167826 6.76814655,16.2693088 6.7146355,16.4380598 L6.38252622,17.4853903 C6.32793356,17.6575522 6.38858661,17.9158519 6.51458077,18.046692 L7.84736294,19.430735 L7.84736221,19.4307342 Z M13.5497415,19.3031411 C15.4802732,18.6343594 17.1402153,17.3416114 18.268222,15.6402733 L17.5987733,15.5511305 C17.4075709,15.5256703 17.1162728,15.6023692 16.9629895,15.7185188 L14.7368786,17.4053422 C14.5736629,17.529018 14.3581619,17.7821663 14.261647,17.9637509 L13.5497415,19.3031411 Z M18.7762294,14.7765703 C19.4546662,13.4663673 19.8138881,12.0091595 19.8138881,10.5 C19.8138881,9.73955794 19.7227728,8.99119048 19.5443244,8.26621867 L18.5966519,8.13835383 C18.4275323,8.11553535 18.2311191,8.23112542 18.1682603,8.39014853 L17.0952539,11.1046886 C17.0222458,11.2893878 16.9940501,11.6105935 17.0334378,11.8042655 L17.5419065,14.3044363 C17.5766933,14.475485 17.7538816,14.6404353 17.9275454,14.6635601 L18.4536676,14.7336177 C18.6598324,14.7610707 18.7272513,14.7700482 18.7762294,14.7765703 Z M15.4727715,2.62327958 C13.9970053,1.68956214 12.285915,1.18611186 10.5,1.18611186 C9.95995238,1.18611186 9.4258027,1.23206316 8.90149979,1.32274052 L8.64822258,2.02162072 C8.59164956,2.17772545 8.66815039,2.36778834 8.81731177,2.44170946 L11.0063312,3.52653981 C11.1870624,3.61610623 11.5085928,3.68720175 11.7111651,3.68222269 L14.8762059,3.60442821 C15.05059,3.60014199 15.2374917,3.45514605 15.2849031,3.28751621 L15.4727715,2.62327954 L15.4727715,2.62327958 Z M3.16469299,4.75982923 C3.20390014,4.75470379 3.25175872,4.74844739 3.31115749,4.74068236 L4.49327725,4.58614744 C4.6944509,4.55984862 4.99588777,4.43885726 5.15864493,4.31936583 L7.14669727,2.85979761 C7.30530096,2.74335556 7.49783432,2.48638447 7.56522201,2.30043824 L7.82812494,1.57499735 C5.98003616,2.12751648 4.3511275,3.24570912 3.16469299,4.75982923 Z M5.74655325,18.6524553 L6.04413145,19.017882 L6.16515642,18.8564523 C6.02208138,18.7960878 5.88243588,18.7277318 5.74655325,18.6524553 Z M5.00115599,18.1428687 C4.96890741,18.1161184 4.9374649,18.0893155 4.90684574,18.0625173 C4.8467087,18.0098849 4.79420438,17.9611154 4.74971116,17.9174949 C4.72338866,17.8916888 4.70581573,17.8735905 4.69736716,17.8644872 L4.59467142,18.0357342 L5.00115599,18.1428687 Z"></path>
                            </g>
                        </g>
                    </g>
                    <path d="M57.2410163,23.5878843 C63.3702031,23.353776 69.7646621,24.2769096 76.4243936,26.357285 C77.3071632,26.5336577 77.9769668,27.3176174 77.9994183,28.2654557 C77.9998045,28.2660442 78,28.2663423 78,28.2663423 C78,28.2663423 78,40.4165159 78,40.4165159 C77.9839837,41.4462885 77.1619442,42.2759873 76.1501896,42.2759873 C75.8341532,42.2759873 75.5366276,42.1950322 75.2764039,42.0523162 C69.0192797,39.397135 63.007484,38.2150687 57.2410163,38.5061169 L57.2410163,66.1712583 L57.2168142,66.1712583 C57.0775336,67.068187 56.3529115,67.7660464 55.4552949,67.8436405 C55.4560666,67.8478233 55.4566489,67.8502166 55.4570411,67.8508207 C50.9717274,68.5673142 47.1332765,69.526309 43.9416884,70.7278051 C43.7562506,70.8387354 43.5512968,70.9193111 43.333363,70.9628558 C43.3022046,70.9752128 43.2711113,70.9875943 43.240083,71 L43.218143,70.9822307 C43.1325176,70.9939496 43.0451352,71 42.9563692,71 C41.9408635,71 41.1064231,70.2081305 41.0125736,69.1959246 L41.0037915,69.1888119 L41,64.6592013 L41.0037915,64.6592013 L41.0037915,6.96668659 L41.0037915,4.97220633 C41.0037915,4.05814504 41.6057621,3.28769877 42.426848,3.05193878 L42.4304898,3.04702442 C52.8678873,-0.933303397 64.1991884,-1.01400472 76.4243936,2.80492045 C77.3071632,2.98129326 77.9769668,3.76525289 77.9994183,4.71309127 C77.9998045,4.7136797 78,4.71397772 78,4.71397772 C78,4.71397772 78,16.8641513 78,16.8641513 C77.9839837,17.8939241 77.1619442,18.7236228 76.1501896,18.7236228 C75.8341532,18.7236228 75.5366276,18.6426677 75.2764039,18.4999517 C69.0192797,15.8447706 63.007484,14.6627041 57.2410163,14.9537523 L57.2410163,23.5878843 Z" id="Combined-Shape" fill="#FFFFFF"></path>
                    <path d="M104.022258,40.924364 L104.022258,75.7380131 L104.026106,75.7380131 L104.022275,98.6485026 C104.024813,98.6810851 104.026106,98.7140178 104.026106,98.7472527 C104.026106,99.4391258 103.465837,100 102.774712,100 C102.132905,100 101.603945,99.516317 101.531721,98.8932097 L101.523318,98.8937022 C101.523318,98.8937022 100.421849,89.2403203 88.2743117,78.4826794 C88.2748769,78.4818266 88.2770699,78.4778782 88.2808906,78.4708344 C87.9090824,78.1694103 87.6484422,77.7359708 87.5701356,77.2417582 L87.5455766,77.2417582 L87.5455766,29.8021181 C85.5125595,29.0130264 83.440203,28.4013312 81.3285073,27.967033 C81.3106036,27.9633509 81.2917562,27.9573895 81.2719646,27.9491487 C80.5744662,27.8391204 80.0410628,27.2346663 80.0410628,26.5054945 C80.0410628,26.5043013 80.0410643,26.5031082 80.0410672,26.5019158 C80.0274681,26.4812875 80.0137791,26.460442 80,26.4393793 L80.0410628,6.24999463 L80.0454408,6.24727688 C80.1013097,5.5491266 80.6849661,5 81.3967391,5 C81.5968046,5 81.786748,5.04338439 81.957694,5.12126806 C83.2143649,5.57721726 83.8427002,5.80519188 83.8427002,5.80519188 C104.368623,16.3861214 115.75439,32.9894404 118,55.6151485 L117.954917,55.6404714 C117.984232,55.7368304 118,55.8390993 118,55.9450549 C118,56.521616 117.53311,56.989011 116.957172,56.989011 C116.647193,56.989011 116.368802,56.8536176 116.177791,56.6386817 L116.159617,56.6488901 C112.332704,50.420397 108.286917,45.1788883 104.022258,40.924364 Z" id="Combined-Shape" fill="#FFFFFF"></path>
                </g>
            </g>
            <g id="Body" transform="translate(218.000000, 85.000000)" fill-rule="nonzero">
                <path d="M426.32,246.99 C426.32,246.99 365.96,213.93 307.1,201.84 L303.91,172.88 L303.33,165.22 L336.24,165.22 L329.67,105.4 L349.81,101.57 C349.81,101.57 344.12,63.13 334.62,15.63 C334.61,15.59 299.62,-0.62 261.18,0.5 C222.33,1.63 190.81,31.7 190.81,71.37 C190.81,84.64 194.36,97.05 200.51,107.71 L190.14,201.83 C131.28,213.92 70.92,246.98 70.92,246.98 C-64.19,440.44 35.65,654.96 35.65,654.96 L36.81,654.96 L91.23,654.96 L89.7,595.24 L51.23,595.24 C39.97,523.41 117.85,485.44 77.5,427.02 L113.2,391.39 L113.2,595.24 L113.2,595.24 L214.99,595.24 L216.15,595.24 L281.1,595.24 L282.26,595.24 L384.05,595.24 L384.05,595.24 L384.05,391.41 L419.75,427.04 C379.41,485.46 457.28,523.43 446.02,595.26 L407.55,595.26 L406.02,654.98 L460.44,654.98 L461.6,654.98 C461.59,654.97 561.43,440.45 426.32,246.99 Z" id="Path" fill="#E8BE95"></path>
                <path d="M198.22,130.22 L198.22,130.22" id="Path" fill="#00FF00"></path>
                <path d="M384.04,595.26 L248.62,595.26 L113.19,595.26 L53.46,1107.97 L76.92,1107.97 C83.49,1010.99 200.06,960.26 152.92,847.4 L248.62,691.37 L344.32,847.4 C297.18,960.25 413.75,1010.99 420.32,1107.97 L443.78,1107.97 L384.04,595.26 Z" id="Path" fill="#E8BE95"></path>
                <g id="Group" transform="translate(53.000000, 752.000000)" fill="#00FF00">
                    <path d="M99.92,95.4 L99.92,95.4 L153.16,8.6 L122.44,0.66 C122.44,0.66 124.32,78.23 58.64,78.23 L58.64,101.21 L30.3,101.21 L0.46,355.96 L23.92,355.96 C24,354.82 24.1,353.69 24.21,352.56 C33.23,257.79 146.5,206.92 99.92,95.4 Z" id="Path"></path>
                    <path d="M360.94,101.22 L332.6,101.22 L332.6,78.24 C266.92,78.24 268.8,0.67 268.8,0.67 L238.08,8.61 L291.32,95.41 L291.32,95.41 C244.74,206.93 358.01,257.8 367.03,352.57 C367.14,353.7 367.25,354.84 367.32,355.97 L390.78,355.97 L360.94,101.22 Z" id="Path"></path>
                </g>
                <path d="M311.59,155.52 C322.93,74.96 254.98,78.19 254.98,78.19 L254.98,85.67 L254.98,91.63 L254.98,134.07 L311.59,155.52 Z" id="Path" fill="#D8A275" opacity="0.5"></path>
                <g id="Group" transform="translate(33.000000, 626.000000)" fill="#00FF00">
                    <path d="M429.76,23.05 C402.61,19.1 386.65,8.09 373.73,1.24 L373.02,28.97 L427.44,28.97 C427.44,28.97 428.31,26.92 429.76,23.05 Z" id="Path"></path>
                    <path d="M2.64,28.97 L58.22,28.97 L56.95,0.92 C44.18,7.74 27.89,19.04 0.31,23.05 C1.77,26.92 2.64,28.97 2.64,28.97 Z" id="Path"></path>
                </g>
                <g id="Group" transform="translate(41.000000, 353.000000)" fill="#00FF00">
                    <path d="M72.19,39.33 L72.54,38.4 L72.54,3.63 C72.17,15.62 66.58,64.6 0.41,74.94 L45.73,125.4 C50.21,109.21 49.39,92.69 36.5,74.03 L72.2,38.4 L72.2,39.33 L72.19,39.33 Z" id="Path"></path>
                    <path d="M342.7,3.64 L342.7,38.41 L343.05,39.34 L343.05,38.41 L378.75,74.04 C365.87,92.7 365.05,109.22 369.52,125.41 L414.84,74.95 C348.66,64.61 343.07,15.63 342.7,3.64 Z" id="Path"></path>
                    <path d="M342.7,3.64 L342.7,0.98 C342.7,0.98 342.65,1.94 342.7,3.64 Z" id="Path"></path>
                    <path d="M72.54,0.98 L72.54,3.64 C72.59,1.94 72.54,0.98 72.54,0.98 Z" id="Path"></path>
                </g>
                <ellipse id="Oval" fill="#E8BE95" transform="translate(241.415038, 85.252487) rotate(-11.520070) translate(-241.415038, -85.252487) " cx="241.415038" cy="85.252487" rx="13.3092555" ry="20.6588444"></ellipse>
                <path d="M339.62,210.39 C338.39,210 337.15,209.62 335.92,209.25 C335.84,209.23 335.77,209.2 335.69,209.18 C335.6,209.15 335.51,209.12 335.42,209.1 C332.93,208.35 330.43,207.62 327.92,206.92 C327.85,206.9 327.79,206.88 327.72,206.86 C327.57,206.82 327.41,206.77 327.26,206.73 C326.01,206.38 324.76,206.04 323.51,205.71 C323.48,205.7 323.45,205.69 323.41,205.68 C322.22,205.37 321.04,205.06 319.85,204.76 C319.58,204.69 319.3,204.62 319.03,204.55 C317.8,204.24 316.57,203.94 315.34,203.65 C315.32,203.65 315.3,203.64 315.28,203.64 C315.27,203.64 315.25,203.63 315.24,203.63 C314.06,203.35 312.88,203.08 311.69,202.82 C311.53,202.78 311.36,202.75 311.2,202.71 C311.06,202.68 310.92,202.65 310.78,202.62 C309.57,202.35 308.35,202.09 307.14,201.84 C307.14,201.84 307.13,201.84 307.13,201.84 L303.94,172.88 L303.36,165.22 L335.98,165.22 L335.95,164.73 L255.01,134.04 L255.01,91.6 C254.83,93.36 254.49,95.01 254,96.54 C253.98,96.61 253.96,96.67 253.93,96.74 C253.59,97.75 253.19,98.7 252.72,99.57 C252.64,99.72 252.56,99.86 252.48,100.01 C252.35,100.23 252.22,100.46 252.08,100.67 C251.96,100.86 251.82,101.05 251.69,101.23 C251.52,101.47 251.34,101.71 251.16,101.93 C250.98,102.16 250.79,102.37 250.59,102.58 C250.47,102.7 250.35,102.82 250.23,102.94 C250.03,103.14 249.82,103.32 249.6,103.5 C249.5,103.58 249.4,103.67 249.3,103.75 C248.98,103.99 248.66,104.21 248.32,104.41 C248.23,104.46 248.14,104.5 248.05,104.55 C247.77,104.7 247.49,104.84 247.2,104.96 C247.09,105 246.99,105.05 246.88,105.09 C246.5,105.23 246.11,105.36 245.71,105.44 C238.53,107.01 230.8,99.23 228.46,88.07 C227.01,81.15 227.96,74.55 230.61,70.16 L190.88,68.97 C190.85,69.76 190.82,70.55 190.82,71.35 C190.82,84.62 194.37,97.03 200.52,107.69 L198.03,130.3 L198.33,130.49 L295.46,224.91 L340.56,224.91 L339.62,210.39 Z" id="Path" fill="#00FF00"></path>
            </g>
            <g id="Hair_Bottom_Layer" transform="translate(408.000000, 85.000000)" fill="#A67C52" fill-rule="nonzero" opacity="0.75">
                <path d="M97.29,41.66 L97.29,41.66 L103.81,22.28 L145.89,22.22 C145.86,22.12 145.83,21.98 145.79,21.84 L145.8,21.7 C145.41,19.7 145.01,17.68 144.6,15.64 C144.59,15.6 109.6,-0.61 71.16,0.51 C39.71,1.43 13.07,21.31 4.06,49.89 C3.97,50.17 3.89,50.45 3.81,50.72 C3.58,51.5 3.36,52.28 3.15,53.06 C3.02,53.57 2.89,54.09 2.77,54.6 C2.62,55.22 2.48,55.83 2.34,56.46 C2.2,57.13 2.08,57.81 1.95,58.49 C1.86,59 1.76,59.52 1.68,60.03 C1.56,60.81 1.46,61.6 1.36,62.39 C1.3,62.84 1.24,63.28 1.19,63.73 C1.1,64.61 1.03,65.51 0.97,66.4 C0.94,66.77 0.91,67.14 0.89,67.52 C0.82,68.79 0.79,70.07 0.79,71.37 C0.79,84.64 4.34,97.05 10.49,107.71 L10.49,107.71 L10.49,107.71 L8.18,130.46 L8.3,130.51 L42.51,98.13 C40.68,95.34 39.23,91.92 38.42,88.08 C36.07,76.91 40,66.59 47.18,65.01 C54.36,63.44 62.09,71.22 64.43,82.38 C64.66,83.48 64.81,84.57 64.93,85.65 L64.96,85.65 L83.46,85.65 L82.3,58.64 L91.55,58.64 L97.29,41.66 Z" id="Path"></path>
            </g>
            <g id="Hair_Top_Layer" transform="translate(415.000000, 81.000000)" fill="#EFD9A0" fill-rule="nonzero">
                <path d="M138.9,26.22 C138.87,26.12 140.48,9.13 140.48,9.13 C140.48,9.13 30.78,-26.61 0.19,45.67 C0.19,45.67 0.19,45.67 0.19,45.67 L0.19,45.67 L0.19,45.67 L0.19,45.67 L90.29,45.67 L90.29,45.67 L96.81,26.29 L138.9,26.22 Z" id="Path"></path>
            </g>
            <g id="Eye" transform="translate(512.000000, 143.000000)" fill="#0071BC" fill-rule="nonzero">
                <polygon id="Path" points="0.79 0.85 36.7 0.85 32.42 7.98 19.6 7.98 21.31 14.46"></polygon>
            </g>
            <g id="Beard" opacity="0" transform="translate(472.000000, 170.000000)" fill="#603813" fill-rule="nonzero">
                <path d="M49.33,80.23 L82.24,80.23 L82.24,80.23 L78.95,50.24 L73.49,50.24 L73.49,54.89 C73.49,54.89 21.08,58.89 19.49,0.67 L0.99,0.67 C0.99,0.67 0.99,17.23 0.99,49.06 C18.62,70.39 49.33,80.23 49.33,80.23 Z" id="Path"></path>
            </g>
            <g id="Moustache" opacity="0" transform="translate(519.000000, 190.000000)" fill="#603813" fill-rule="nonzero">
                <path d="M11.3,23.09 L11.3,17.25 L30.51,17.15 L28.67,0.41 L19.74,0.41 C8.32,0.41 0.24,8.75 0.24,17.26 L0.24,17.26 L0.24,34.39 C6.34,34.39 11.3,29.33 11.3,23.09 Z" id="Path"></path>
            </g>
            <g id="Stubble" opacity="0" transform="translate(472.000000, 170.000000)" fill="#603813" fill-rule="nonzero">
                <path d="M78.94,50.24 L73.48,50.24 L73.48,54.89 C73.48,54.89 64.43,55.58 53.74,52.21 C56.49,50.16 58.29,46.84 58.29,43.09 L58.29,37.25 L77.5,37.15 L75.66,20.41 L66.73,20.41 C55.31,20.41 47.23,28.75 47.23,37.26 L47.23,37.26 L47.23,49.68 C33.88,43.43 20.28,29.89 19.48,0.67 L0.98,0.67 C0.98,0.67 0.98,17.23 0.98,49.06 C18.62,70.39 49.33,80.23 49.33,80.23 L82.24,80.23 L82.24,80.23 L78.94,50.24 Z" id="Path" opacity="0.5"></path>
            </g>
            <g id="Socks" transform="translate(271.000000, 961.000000)" fill="#ED1C24" fill-rule="nonzero">
                <g id="Group">
                    <path d="M0.46,231.97 L23.92,231.97 C29.9,143.73 126.93,93.76 108.85,0.46 L27.58,0.46 L0.46,231.97 Z" id="Path"></path>
                    <path d="M390.78,231.97 L363.66,0.46 L282.39,0.46 C264.31,93.77 361.35,143.73 367.32,231.97 L390.78,231.97 Z" id="Path"></path>
                </g>
            </g>
            <g id="Upper_Sock" transform="translate(291.000000, 961.000000)" fill="#C1272D" fill-rule="nonzero">
                <g id="Group">
                    <path d="M7.58,0.45 L0.87,57.78 L85.91,57.78 C91.15,40.24 92.92,21.44 88.86,0.45 L7.58,0.45 L7.58,0.45 Z" id="Path"></path>
                    <path d="M343.66,0.45 L262.39,0.45 C258.32,21.45 260.09,40.24 265.34,57.78 L350.38,57.78 L343.66,0.45 Z" id="Path"></path>
                </g>
            </g>
            <g id="Sock_Stripes" transform="translate(277.000000, 1045.000000)" fill="#C1272D" fill-rule="nonzero">
                <g id="Group">
                    <path d="M11.75,0.34 L8.02,32.21 L70.63,32.21 C77.35,21.75 83.77,11.22 89.2,0.34 L11.75,0.34 Z" id="Path"></path>
                    <path d="M33.01,94.17 C38.28,83.2 44.51,72.66 51.07,62.3 L4.5,62.3 L0.77,94.17 L33.01,94.17 Z" id="Path"></path>
                    <path d="M374.74,62.3 L328.17,62.3 C334.73,72.66 340.96,83.2 346.23,94.17 L378.48,94.17 L374.74,62.3 Z" id="Path"></path>
                    <path d="M290.03,0.34 C295.46,11.21 301.88,21.75 308.6,32.21 L371.21,32.21 L367.48,0.34 L290.03,0.34 Z" id="Path"></path>
                </g>
            </g>
            <g id="Boots" transform="translate(196.000000, 1153.000000)" fill="#000000" fill-rule="nonzero">
                <g id="Group">
                    <path d="M65.95,0.84 C86.76,12.64 78.67,35.74 78.67,35.74 L99.64,35.74 L100.33,68.12 L0.04,68.12 L69.42,37.43 L65.95,0.84 Z" id="Path"></path>
                    <path d="M475.29,0.84 C454.48,12.64 462.57,35.74 462.57,35.74 L441.6,35.74 L440.91,68.12 L541.2,68.12 L471.82,37.43 L475.29,0.84 Z" id="Path"></path>
                </g>
            </g>
            <g id="Shorts" transform="translate(308.000000, 680.000000)" fill="#FF0000" fill-rule="nonzero">
                <polygon id="Path" points="294.04 0.26 158.62 0.26 23.19 0.26 0.06 198.84 132.34 198.84 158.62 142.28 184.9 198.84 317.18 198.84"></polygon>
            </g>
            <g id="Short_Sleeve" opacity="0" transform="translate(223.000000, 286.000000)" fill="#F15A24" fill-rule="nonzero">
                <path d="M397.44,208.77 L486.97,208.77 C478.67,156.33 459.27,100.33 421.32,46 C421.32,46 360.96,12.94 302.1,0.85 L302.1,0.85 C267.26,26.28 219.98,26.28 185.14,0.85 L185.14,0.85 C126.28,12.94 65.92,46 65.92,46 C27.97,100.34 8.57,156.33 0.27,208.77 L89.8,208.77 L108.19,190.41 L108.19,394.26 L209.98,394.26 L211.14,394.26 L276.09,394.26 L277.25,394.26 L379.04,394.26 L379.04,190.41 L397.44,208.77 Z" id="Path"></path>
            </g>
            <g id="Long_Sleeve" transform="translate(218.000000, 286.000000)" fill-rule="nonzero">
                <path d="M419.74,226.04 C379.4,284.46 457.27,322.43 446.01,394.26 L481.69,394.26 C501.65,316.97 517.59,176.68 426.32,46 C426.32,46 365.96,12.94 307.1,0.85 L307.1,0.85 C272.26,26.28 224.98,26.28 190.14,0.85 L190.14,0.85 C131.28,12.94 70.92,46 70.92,46 C-20.35,176.68 -4.4,316.98 15.55,394.26 L51.23,394.26 C39.97,322.43 117.85,284.46 77.5,226.04 L113.2,190.41 L113.2,394.26 L214.99,394.26 L216.15,394.26 L281.1,394.26 L282.26,394.26 L384.05,394.26 L384.05,190.41 L419.74,226.04 Z" id="Path" fill="#FBB03B"></path>
                <g id="Group" transform="translate(162.000000, 0.000000)" fill="#FFFFFF">
                    <path d="M159.68,4.24 C161.82,4.79 163.95,5.36 166.07,5.96 C163.94,5.37 161.81,4.8 159.68,4.24 Z" id="Path"></path>
                    <path d="M166.85,6.18 C168.73,6.71 170.61,7.26 172.48,7.82 C170.61,7.26 168.73,6.72 166.85,6.18 Z" id="Path"></path>
                    <path d="M145.1,0.84 C147.22,1.27 149.34,1.75 151.46,2.23 C149.33,1.75 147.21,1.28 145.1,0.84 Z" id="Path"></path>
                    <path d="M21.78,2.23 C23.9,1.74 26.02,1.27 28.14,0.84 C26.02,1.28 23.9,1.75 21.78,2.23 Z" id="Path"></path>
                    <path d="M153.22,2.65 C154.9,3.05 156.58,3.46 158.26,3.88 C156.58,3.46 154.9,3.05 153.22,2.65 Z" id="Path"></path>
                    <path d="M0.76,7.82 C2.63,7.26 4.51,6.71 6.39,6.18 C4.51,6.72 2.63,7.26 0.76,7.82 Z" id="Path"></path>
                    <path d="M14.98,3.88 C16.66,3.45 18.34,3.04 20.02,2.65 C18.34,3.05 16.66,3.46 14.98,3.88 Z" id="Path"></path>
                    <path d="M7.17,5.96 C9.29,5.37 11.42,4.79 13.56,4.24 C11.42,4.8 9.29,5.37 7.17,5.96 Z" id="Path"></path>
                </g>
            </g>
            <g id="LongSleeve" transform="translate(218.000000, 331.000000)" fill="#F7931E" fill-rule="nonzero">
                <g id="Group">
                    <path d="M15.55,349.26 L51.23,349.26 C39.97,277.43 117.85,239.46 77.5,181.04 L113.2,145.41 L113.2,110.64 L70.92,0.99 C-20.35,131.68 -4.41,271.97 15.55,349.26 Z" id="Path"></path>
                    <path d="M481.69,349.26 L446.01,349.26 C457.27,277.43 379.39,239.46 419.74,181.04 L384.04,145.41 L384.04,110.64 L426.32,0.99 C517.59,131.68 501.64,271.97 481.69,349.26 Z" id="Path"></path>
                </g>
            </g>
            <g id="ShortSleeve" opacity="0" transform="translate(223.000000, 331.000000)" fill="#9E005D" fill-rule="nonzero">
                <g id="Group">
                    <path d="M108.19,110.64 L65.91,0.99 C27.96,55.33 8.56,111.32 0.26,163.76 L89.79,163.76 L108.18,145.4 L108.18,110.64 L108.19,110.64 Z" id="Path"></path>
                    <path d="M379.04,110.64 L379.04,145.41 L397.43,163.77 L486.96,163.77 C478.66,111.33 459.26,55.33 421.31,1 L379.04,110.64 Z" id="Path"></path>
                </g>
            </g>
            <g id="Hoops_Long_Sleeve" opacity="0" transform="translate(331.000000, 308.000000)" fill="#009245" fill-rule="nonzero">
                <g id="Group">
                    <rect id="Rectangle" x="0.19" y="197.03" width="270.85" height="48.92"></rect>
                    <rect id="Rectangle" x="0.19" y="98.66" width="270.85" height="48.92"></rect>
                    <path d="M0.19,49.21 L271.04,49.21 L271.04,3.91 C268.22,2.71 265.31,1.5 262.31,0.29 L106.51,0.29 L8.91,0.29 C5.91,1.51 3,2.72 0.18,3.91 L0.18,49.21 L0.19,49.21 Z" id="Path"></path>
                    <rect id="Rectangle" x="0.19" y="295.4" width="270.85" height="48.92"></rect>
                </g>
            </g>
            <g id="Hoops_Short_Sleeve" opacity="0" transform="translate(331.000000, 308.000000)" fill="#8CC63F" fill-rule="nonzero">
                <g id="Group">
                    <rect id="Rectangle" x="0.19" y="197.03" width="270.85" height="48.92"></rect>
                    <rect id="Rectangle" x="0.19" y="98.66" width="270.85" height="48.92"></rect>
                    <path d="M0.19,49.21 L271.04,49.21 L271.04,3.91 C268.22,2.71 265.31,1.5 262.31,0.29 L8.91,0.29 C5.91,1.51 3,2.72 0.18,3.91 L0.18,49.21 L0.19,49.21 Z" id="Path"></path>
                    <rect id="Rectangle" x="0.19" y="295.4" width="270.85" height="48.92"></rect>
                </g>
            </g>
            <g id="Stripe" opacity="0" transform="translate(331.000000, 292.000000)" fill="#E84E1F" fill-rule="nonzero">
                <g id="Group">
                    <path d="M108.82,10.23 L108.82,388.25 L162.41,388.25 L162.41,10.23 C144.9,15.14 126.33,15.14 108.82,10.23 Z" id="Path"></path>
                    <path d="M217.31,388.26 L270.9,388.26 L270.9,19.86 C255.29,13.23 236.67,6.15 217.31,0.6 L217.31,388.26 Z" id="Path"></path>
                    <path d="M53.93,0.59 C34.57,6.14 15.94,13.22 0.34,19.85 L0.34,388.25 L53.93,388.25 L53.93,0.59 L53.93,0.59 Z" id="Path"></path>
                </g>
            </g>
            <g id="Boca_Stripe" opacity="0" transform="translate(331.000000, 434.000000)" fill="#FCEE21" fill-rule="nonzero">
                <rect id="Rectangle" x="0.19" y="0.57" width="270.85" height="83.21"></rect>
            </g>
            <g id="Rovers_Shirt_Panel_Long_Sleeve" opacity="0" transform="translate(466.000000, 286.000000)" fill="#D9E021" fill-rule="nonzero">
                <path d="M178.32,45.99 C178.32,45.99 117.96,12.93 59.1,0.84 L59.1,0.84 C41.68,13.56 21.15,19.91 0.62,19.91 L0.62,62.41 L0.62,394.25 L33.1,394.25 L34.26,394.25 L136.05,394.25 L136.05,190.41 L136.05,190.41 L136.05,190.41 L171.75,226.04 C162.92,238.82 159.76,250.62 160.07,262.01 C160.12,263.64 160.23,265.26 160.41,266.87 C160.59,268.48 160.84,270.09 161.14,271.69 C161.29,272.49 161.46,273.29 161.64,274.09 C162.91,279.68 164.85,285.21 167.2,290.76 C168.88,294.73 170.76,298.7 172.76,302.71 C173.56,304.31 174.37,305.93 175.2,307.54 C175.61,308.35 176.03,309.16 176.45,309.97 C178.54,314.03 180.68,318.15 182.77,322.34 C183.19,323.18 183.6,324.02 184.02,324.86 C186.91,330.77 189.67,336.85 192.01,343.16 C195.7,353.07 198.38,363.56 199.01,374.9 C199.18,377.99 199.2,381.15 199.04,384.37 C198.88,387.59 198.55,390.89 198.02,394.25 L233.7,394.25 C253.64,316.97 269.59,176.68 178.32,45.99 Z" id="Path"></path>
            </g>
            <g id="Rovers_Shirt_Panel_Short_Sleeve" opacity="0" transform="translate(466.000000, 286.000000)" fill="#ED1E79" fill-rule="nonzero">
                <path d="M243.97,208.77 C235.67,156.33 216.27,100.33 178.32,46 C178.32,46 117.96,12.94 59.1,0.85 L59.1,0.85 C41.68,13.57 21.15,19.92 0.62,19.92 L0.62,62.42 L0.62,394.26 L33.1,394.26 L34.26,394.26 L136.05,394.26 L136.05,190.41 L136.05,190.41 L136.05,190.41 L154.44,208.77 L176.05,208.77 L243.97,208.77 Z" id="Path"></path>
            </g>
            <g id="Pinstripe" opacity="0" transform="translate(350.000000, 286.000000)" fill="#FFFFFF" fill-rule="nonzero">
                <g id="Group">
                    <path d="M58.14,0.84 L58.14,0.84 C56.99,1.08 55.84,1.32 54.69,1.57 L54.69,394.25 L70.3,394.25 L70.3,8.42 C66.12,6.21 62.05,3.7 58.14,0.84 Z" id="Path"></path>
                    <path d="M0.06,18.3 L0.06,394.25 L15.67,394.25 L15.67,12.65 C10.33,14.49 5.1,16.38 0.06,18.3 Z" id="Path"></path>
                    <path d="M218.59,13.01 L218.59,394.26 L234.2,394.26 L234.2,18.7 C229.16,16.76 223.94,14.85 218.59,13.01 Z" id="Path"></path>
                    <path d="M175.1,0.84 L175.1,0.84 C171.51,3.46 167.79,5.79 163.96,7.87 L163.96,394.25 L179.57,394.25 L179.57,1.8 C178.08,1.47 176.59,1.15 175.1,0.84 Z" id="Path"></path>
                    <path d="M109.33,19.64 L109.33,394.25 L124.94,394.25 L124.94,19.55 C119.74,19.99 114.52,20.02 109.33,19.64 Z" id="Path"></path>
                </g>
            </g>
            <g id="Villa_style_LS" opacity="0" transform="translate(218.000000, 296.000000)" fill="#29ABE2" fill-rule="nonzero">
                <path d="M344.01,0.8 C388.76,15.42 426.32,35.99 426.32,35.99 C517.59,166.67 501.64,306.97 481.69,384.25 L446.01,384.25 C457.27,312.42 379.39,274.45 419.74,216.03 L384.04,180.4 L384.04,384.25 L344.01,384.25 L344.01,0.8 Z M153.23,384.26 L153.23,0.8 C108.48,15.42 70.92,35.99 70.92,35.99 C-20.35,166.67 -4.4,306.97 15.55,384.25 L51.23,384.25 C39.97,312.42 117.85,274.45 77.5,216.03 L113.2,180.4 L113.2,384.25 L153.23,384.25 L153.23,384.26 Z" id="Shape"></path>
            </g>
            <g id="Villa_Style_SS" opacity="0" transform="translate(223.000000, 296.000000)" fill="#29ABE2" fill-rule="nonzero">
                <g id="Group">
                    <path d="M69.71,33.98 C69.69,33.99 69.66,34.01 69.64,34.02 C68.86,34.43 68.19,34.78 67.65,35.07 C67.63,35.08 67.61,35.09 67.6,35.1 C67.34,35.24 67.11,35.36 66.91,35.47 C66.88,35.48 66.86,35.5 66.84,35.51 C66.66,35.61 66.49,35.7 66.36,35.77 C66.36,35.77 66.35,35.77 66.35,35.77 C66.21,35.85 66.11,35.9 66.03,35.94 C66.02,35.94 66.02,35.95 66.01,35.95 C65.96,35.98 65.92,36 65.92,36 C64.6,37.89 63.31,39.78 62.03,41.68 C61.62,42.29 61.22,42.9 60.81,43.51 C59.95,44.8 59.09,46.1 58.25,47.4 C57.79,48.11 57.34,48.82 56.88,49.53 C56.1,50.75 55.33,51.97 54.56,53.19 C54.11,53.91 53.67,54.62 53.23,55.34 C52.44,56.62 51.67,57.9 50.9,59.18 C50.52,59.81 50.13,60.45 49.76,61.08 C48.66,62.94 47.57,64.8 46.51,66.66 C46.36,66.93 46.21,67.2 46.06,67.47 C45.13,69.12 44.21,70.76 43.3,72.41 C42.91,73.12 42.53,73.83 42.15,74.54 C41.51,75.73 40.87,76.92 40.24,78.12 C39.82,78.92 39.4,79.72 38.99,80.52 C38.41,81.63 37.85,82.74 37.28,83.85 C36.86,84.67 36.45,85.5 36.04,86.32 C35.48,87.45 34.93,88.58 34.38,89.71 C34,90.49 33.61,91.28 33.24,92.06 C32.54,93.52 31.87,94.98 31.19,96.44 C30.7,97.5 30.22,98.56 29.74,99.62 C29.21,100.79 28.69,101.96 28.18,103.12 C27.77,104.05 27.38,104.97 26.98,105.9 C26.57,106.85 26.16,107.81 25.76,108.76 C25.35,109.74 24.94,110.73 24.54,111.71 C24.18,112.6 23.82,113.48 23.46,114.37 C23.05,115.39 22.64,116.41 22.25,117.43 C21.93,118.25 21.61,119.08 21.3,119.9 C20.89,120.97 20.48,122.04 20.08,123.11 C19.88,123.64 19.69,124.17 19.5,124.7 C18.6,127.15 17.73,129.6 16.88,132.05 C16.69,132.59 16.5,133.13 16.32,133.66 C15.91,134.88 15.5,136.1 15.1,137.31 C14.9,137.93 14.69,138.55 14.49,139.17 C14.09,140.4 13.71,141.62 13.32,142.84 C13.14,143.41 12.96,143.99 12.79,144.56 C12.4,145.84 12.01,147.12 11.63,148.4 C11.51,148.81 11.39,149.22 11.27,149.63 C9.43,155.92 7.77,162.18 6.29,168.41 C6.23,168.67 6.16,168.94 6.1,169.2 C5.75,170.67 5.41,172.14 5.08,173.6 C5.02,173.85 4.97,174.1 4.91,174.35 C3.08,182.55 1.55,190.69 0.27,198.75 C0.27,198.75 0.27,198.75 0.27,198.76 L89.8,198.76 L108.19,180.4 L108.19,384.25 L148.22,384.25 L148.22,0.8 C111.9,12.67 80.32,28.45 69.71,33.98 Z" id="Path"></path>
                    <path d="M486.97,198.77 C486.97,198.76 486.97,198.76 486.97,198.77 C485.69,190.71 484.16,182.57 482.33,174.37 C482.27,174.12 482.22,173.87 482.16,173.62 C481.83,172.15 481.49,170.69 481.14,169.22 C481.08,168.96 481.01,168.69 480.95,168.43 C479.46,162.2 477.8,155.94 475.97,149.65 C475.85,149.24 475.73,148.83 475.61,148.42 C475.23,147.14 474.84,145.86 474.45,144.58 C474.27,144.01 474.1,143.43 473.92,142.86 C473.54,141.64 473.15,140.41 472.75,139.19 C472.55,138.57 472.34,137.95 472.14,137.33 C471.74,136.11 471.34,134.9 470.92,133.68 C470.74,133.14 470.55,132.6 470.36,132.07 C469.52,129.62 468.64,127.17 467.74,124.72 C467.54,124.19 467.36,123.66 467.16,123.13 C466.76,122.06 466.35,120.99 465.94,119.92 C465.62,119.1 465.31,118.27 464.99,117.45 C464.59,116.43 464.18,115.41 463.78,114.39 C463.42,113.5 463.07,112.62 462.7,111.73 C462.3,110.75 461.89,109.76 461.48,108.78 C461.08,107.83 460.67,106.88 460.26,105.92 C459.86,104.99 459.47,104.07 459.06,103.14 C458.55,101.97 458.02,100.8 457.5,99.64 C457.02,98.58 456.54,97.52 456.05,96.46 C455.38,95 454.7,93.54 454,92.08 C453.63,91.3 453.24,90.51 452.86,89.73 C452.31,88.6 451.76,87.47 451.2,86.34 C450.79,85.52 450.37,84.69 449.96,83.87 C449.4,82.76 448.83,81.65 448.25,80.54 C447.83,79.74 447.42,78.94 447,78.14 C446.37,76.95 445.73,75.76 445.09,74.56 C444.71,73.85 444.33,73.14 443.94,72.43 C443.04,70.78 442.12,69.14 441.18,67.49 C441.03,67.22 440.88,66.95 440.73,66.68 C439.67,64.82 438.58,62.96 437.48,61.1 C437.1,60.47 436.72,59.83 436.34,59.2 C435.57,57.92 434.8,56.64 434.01,55.36 C433.57,54.64 433.12,53.93 432.68,53.21 C431.92,51.99 431.15,50.77 430.36,49.55 C429.91,48.84 429.45,48.13 428.99,47.42 C428.15,46.12 427.29,44.83 426.43,43.53 C426.02,42.92 425.62,42.31 425.21,41.7 C423.93,39.81 422.64,37.91 421.32,36.02 C421.32,36.02 421.28,36 421.23,35.97 C421.22,35.97 421.22,35.96 421.21,35.96 C421.14,35.92 421.03,35.86 420.89,35.79 C420.89,35.79 420.88,35.79 420.88,35.79 C420.75,35.72 420.59,35.63 420.4,35.53 C420.38,35.52 420.35,35.51 420.33,35.49 C420.13,35.38 419.9,35.26 419.64,35.12 C419.62,35.11 419.6,35.1 419.59,35.09 C419.05,34.8 418.38,34.45 417.6,34.04 C417.58,34.03 417.55,34.01 417.53,34 C406.92,28.47 375.34,12.69 339.02,0.82 L339.02,384.28 L379.05,384.28 L379.05,180.41 L397.44,198.77 L486.97,198.77 Z" id="Path"></path>
                </g>
            </g>
            <g id="Sash" opacity="0" transform="translate(331.000000, 295.000000)" fill="#D4145A" fill-rule="nonzero">
                <path d="M313.22,36.94 C311.12,35.8 272.38,14.87 227.28,0.61 L0.19,243.12 L0.19,371.23 L313.22,36.94 Z" id="Path"></path>
            </g>
            <g id="Fade" opacity="0" transform="translate(331.000000, 563.000000)" fill="#0071BC" fill-rule="nonzero">
                <g id="Group">
                    <rect id="Rectangle" x="0.19" y="60.61" width="270.85" height="7.12"></rect>
                    <rect id="Rectangle" x="0.19" y="75.41" width="270.85" height="8.55"></rect>
                    <rect id="Rectangle" x="0.19" y="89.96" width="270.85" height="10.47"></rect>
                    <rect id="Rectangle" x="0.19" y="45.65" width="270.85" height="6.02"></rect>
                    <rect id="Rectangle" x="0.19" y="0.18" width="270.85" height="3.9"></rect>
                    <polygon id="Path" points="0.19 104.15 0.19 117.26 101.98 117.26 103.14 117.26 168.1 117.26 169.25 117.26 271.04 117.26 271.04 104.15"></polygon>
                    <rect id="Rectangle" x="0.19" y="15.41" width="270.85" height="4.46"></rect>
                    <rect id="Rectangle" x="0.19" y="30.58" width="270.85" height="5.15"></rect>
                </g>
            </g>
            <g id="Chevron" opacity="0" transform="translate(295.000000, 302.000000)" fill="#FBB03B" fill-rule="nonzero">
                <path d="M171.62,120.97 L59.34,0.7 C33.4,10.32 11.62,20.88 0.95,26.31 L171.61,204.97 L342.27,26.31 C331.61,20.88 309.82,10.31 283.88,0.7 L171.62,120.97 Z" id="Path"></path>
            </g>
            <g id="Lyon_lower_strip" opacity="0" transform="translate(331.000000, 367.000000)" fill="#0071BC" fill-rule="nonzero">
                <rect id="Rectangle" x="0.28" y="0.72" width="270.67" height="25.33"></rect>
            </g>
            <g id="Lyon_top_Layer" opacity="0" transform="translate(331.000000, 294.000000)" fill="#FF0000" fill-rule="nonzero">
                <g id="Group">
                    <path d="M270.95,57.05 L270.95,17.87 C256.65,11.8 239.81,5.35 222.2,0.04 C198.92,19.98 168.68,32.04 135.62,32.04 C102.56,32.04 72.32,19.99 49.04,0.04 C31.43,5.35 14.59,11.8 0.29,17.87 L0.29,57.05 L270.95,57.05 Z" id="Path"></path>
                </g>
            </g>
            <g id="Croat_LS" opacity="0" transform="translate(218.000000, 287.000000)" fill="#FFFFFF" fill-rule="nonzero">
                <g id="Group">
                    <rect id="Rectangle" x="186.52" y="368.42" width="24.84" height="24.84"></rect>
                    <rect id="Rectangle" x="136.84" y="368.42" width="24.84" height="24.84"></rect>
                    <rect id="Rectangle" x="113.19" y="293.9" width="23.65" height="24.84"></rect>
                    <rect id="Rectangle" x="211.36" y="144.86" width="24.84" height="24.84"></rect>
                    <rect id="Rectangle" x="211.36" y="95.18" width="24.84" height="24.84"></rect>
                    <rect id="Rectangle" x="113.19" y="343.58" width="23.65" height="24.84"></rect>
                    <rect id="Rectangle" x="261.04" y="95.18" width="24.84" height="24.84"></rect>
                    <rect id="Rectangle" x="261.04" y="194.54" width="24.84" height="24.84"></rect>
                    <path d="M410.28,244.22 C410.21,244.46 410.14,244.7 410.08,244.94 L410.08,269.06 L434.92,269.06 L434.92,244.22 L410.28,244.22 Z" id="Path"></path>
                    <rect id="Rectangle" x="360.4" y="244.22" width="23.65" height="24.84"></rect>
                    <rect id="Rectangle" x="211.36" y="194.54" width="24.84" height="24.84"></rect>
                    <path d="M410.08,274.88 L410.08,269.06 L408.86,269.06 C409.18,271 409.59,272.94 410.08,274.88 Z" id="Path"></path>
                    <rect id="Rectangle" x="261.04" y="144.86" width="24.84" height="24.84"></rect>
                    <rect id="Rectangle" x="236.2" y="120.02" width="24.84" height="24.84"></rect>
                    <path d="M446.53,368.42 C447.43,376.26 447.39,384.51 446.02,393.26 L459.77,393.26 L459.77,368.42 L446.53,368.42 Z" id="Path"></path>
                    <path d="M417.03,293.9 C420.73,302.03 425.15,310.23 429.46,318.74 L434.93,318.74 L434.93,293.9 L417.03,293.9 Z" id="Path"></path>
                    <rect id="Rectangle" x="360.4" y="194.54" width="23.65" height="24.84"></rect>
                    <rect id="Rectangle" x="211.36" y="244.22" width="24.84" height="24.84"></rect>
                    <rect id="Rectangle" x="335.56" y="368.42" width="24.84" height="24.84"></rect>
                    <rect id="Rectangle" x="285.88" y="368.42" width="24.84" height="24.84"></rect>
                    <rect id="Rectangle" x="236.2" y="368.42" width="24.84" height="24.84"></rect>
                    <rect id="Rectangle" x="360.4" y="293.9" width="23.65" height="24.84"></rect>
                    <rect id="Rectangle" x="261.04" y="244.22" width="24.84" height="24.84"></rect>
                    <rect id="Rectangle" x="360.4" y="343.58" width="23.65" height="24.84"></rect>
                    <rect id="Rectangle" x="236.2" y="269.06" width="24.84" height="24.84"></rect>
                    <path d="M186.52,0.62 C178.19,2.45 169.85,4.67 161.68,7.15 L161.68,20.67 L186.52,20.67 L186.52,0.62 Z" id="Path"></path>
                    <path d="M484.6,171.91 L484.6,194.54 L489.65,194.54 C488.21,187.05 486.53,179.5 484.6,171.91 Z" id="Path"></path>
                    <path d="M459.76,102.65 L459.76,120.02 L467.43,120.02 C465.05,114.23 462.49,108.44 459.76,102.65 Z" id="Path"></path>
                    <path d="M20.57,144.86 C17.8,153.18 15.35,161.47 13.21,169.7 L37.48,169.7 L37.48,144.86 L20.57,144.86 L20.57,144.86 Z" id="Path"></path>
                    <path d="M29.81,120.02 L37.48,120.02 L37.48,102.65 C34.75,108.44 32.19,114.23 29.81,120.02 Z" id="Path"></path>
                    <path d="M484.03,169.7 C481.89,161.47 479.44,153.18 476.67,144.86 L459.76,144.86 L459.76,169.7 L484.03,169.7 Z" id="Path"></path>
                    <rect id="Rectangle" x="113.19" y="244.22" width="23.65" height="24.84"></rect>
                    <path d="M7.59,194.54 L12.64,194.54 L12.64,171.91 C10.71,179.5 9.03,187.05 7.59,194.54 Z" id="Path"></path>
                    <path d="M491.82,343.58 C493.02,335.61 494.06,327.32 494.9,318.74 L484.6,318.74 L484.6,343.58 L491.82,343.58 Z" id="Path"></path>
                    <path d="M496.66,293.9 C497.02,285.81 497.16,277.52 497.07,269.06 L484.6,269.06 L484.6,293.9 L496.66,293.9 Z" id="Path"></path>
                    <path d="M236.2,18.12 C227.74,17.05 219.38,14.9 211.36,11.65 L211.36,20.66 L236.2,20.66 L236.2,18.12 Z" id="Path"></path>
                    <path d="M54.6,70.34 C49.71,78.61 45.21,86.89 41.09,95.18 L62.32,95.18 L62.32,70.34 L54.6,70.34 Z" id="Path"></path>
                    <path d="M335.56,7.14 C327.39,4.67 319.05,2.44 310.72,0.61 L310.72,20.65 L335.56,20.65 L335.56,7.14 Z" id="Path"></path>
                    <path d="M285.88,11.65 C277.86,14.9 269.5,17.06 261.04,18.12 L261.04,20.65 L285.88,20.65 L285.88,11.65 Z" id="Path"></path>
                    <rect id="Rectangle" x="459.76" y="293.9" width="24.84" height="24.84"></rect>
                    <path d="M123.5,20.66 L136.84,20.66 L136.84,15.52 C132.25,17.21 127.79,18.93 123.5,20.66 Z" id="Path"></path>
                    <path d="M456.15,95.18 C452.03,86.89 447.53,78.61 442.64,70.34 L434.92,70.34 L434.92,95.18 L456.15,95.18 Z" id="Path"></path>
                    <path d="M410.08,36.74 C403.39,33.5 394.92,29.56 385.24,25.42 L385.24,45.49 L410.08,45.49 L410.08,36.74 Z" id="Path"></path>
                    <path d="M360.4,15.51 L360.4,20.65 L373.74,20.65 C369.45,18.93 364.99,17.21 360.4,15.51 Z" id="Path"></path>
                    <path d="M112,25.42 C102.32,29.56 93.85,33.49 87.16,36.74 L87.16,45.5 L112,45.5 L112,25.42 Z" id="Path"></path>
                    <path d="M496.09,244.22 C495.53,236.06 494.72,227.77 493.64,219.38 L484.6,219.38 L484.6,244.22 L496.09,244.22 Z" id="Path"></path>
                    <rect id="Rectangle" x="285.88" y="70.34" width="24.84" height="24.84"></rect>
                    <path d="M67.78,318.74 C72.08,310.23 76.5,302.03 80.21,293.9 L62.32,293.9 L62.32,318.74 L67.78,318.74 Z" id="Path"></path>
                    <path d="M87.16,269.06 L87.16,244.94 C87.09,244.7 87.03,244.46 86.96,244.22 L62.32,244.22 L62.32,269.06 L87.16,269.06 Z" id="Path"></path>
                    <rect id="Rectangle" x="161.68" y="95.18" width="24.84" height="24.84"></rect>
                    <rect id="Rectangle" x="236.2" y="219.38" width="24.84" height="24.84"></rect>
                    <rect id="Rectangle" x="236.2" y="169.7" width="24.84" height="24.84"></rect>
                    <rect id="Rectangle" x="113.19" y="194.54" width="23.65" height="24.84"></rect>
                    <path d="M51.22,393.26 C49.85,384.51 49.81,376.26 50.71,368.42 L37.48,368.42 L37.48,393.26 L51.22,393.26 Z" id="Path"></path>
                    <path d="M88.38,269.06 L87.16,269.06 L87.16,274.88 C87.65,272.94 88.05,271 88.38,269.06 Z" id="Path"></path>
                    <rect id="Rectangle" x="112" y="95.18" width="24.84" height="24.84"></rect>
                    <rect id="Rectangle" x="459.76" y="194.54" width="24.84" height="24.84"></rect>
                    <path d="M0.17,269.06 C0.08,277.52 0.22,285.81 0.58,293.9 L12.65,293.9 L12.65,269.06 L0.17,269.06 Z" id="Path"></path>
                    <path d="M2.34,318.74 C3.18,327.32 4.22,335.61 5.42,343.58 L12.64,343.58 L12.64,318.74 L2.34,318.74 Z" id="Path"></path>
                    <rect id="Rectangle" x="459.76" y="244.22" width="24.84" height="24.84"></rect>
                    <rect id="Rectangle" x="12.64" y="343.58" width="24.84" height="24.84"></rect>
                    <path d="M3.6,219.38 C2.52,227.77 1.71,236.06 1.15,244.22 L12.64,244.22 L12.64,219.38 L3.6,219.38 Z" id="Path"></path>
                    <rect id="Rectangle" x="62.32" y="144.86" width="24.84" height="24.84"></rect>
                    <path d="M12.64,381.37 L12.64,368.42 L9.82,368.42 C10.73,372.87 11.67,377.2 12.64,381.37 Z" id="Path"></path>
                    <rect id="Rectangle" x="434.92" y="169.7" width="24.84" height="24.84"></rect>
                    <rect id="Rectangle" x="186.52" y="269.06" width="24.84" height="24.84"></rect>
                    <rect id="Rectangle" x="37.48" y="169.7" width="24.84" height="24.84"></rect>
                    <rect id="Rectangle" x="12.64" y="293.9" width="24.84" height="24.84"></rect>
                    <rect id="Rectangle" x="236.2" y="70.34" width="24.84" height="24.84"></rect>
                    <rect id="Rectangle" x="12.64" y="244.22" width="24.84" height="24.84"></rect>
                    <rect id="Rectangle" x="37.48" y="269.06" width="24.84" height="24.84"></rect>
                    <path d="M37.48,343.58 L56.73,343.58 C58.4,338.94 60.3,334.43 62.32,330.01 L62.32,318.74 L37.48,318.74 L37.48,343.58 Z" id="Path"></path>
                    <rect id="Rectangle" x="136.84" y="169.7" width="24.84" height="24.84"></rect>
                    <rect id="Rectangle" x="112" y="144.86" width="24.84" height="24.84"></rect>
                    <polygon id="Path" points="87.16 194.54 108.05 194.54 112 190.6 112 169.7 87.16 169.7"></polygon>
                    <polygon id="Path" points="62.32 219.38 83.17 219.38 87.16 215.39 87.16 194.54 62.32 194.54"></polygon>
                    <rect id="Rectangle" x="37.48" y="219.38" width="24.84" height="24.84"></rect>
                    <rect id="Rectangle" x="285.88" y="20.66" width="24.84" height="24.84"></rect>
                    <rect id="Rectangle" x="236.2" y="20.66" width="24.84" height="24.84"></rect>
                    <rect id="Rectangle" x="37.48" y="120.02" width="24.84" height="24.84"></rect>
                    <rect id="Rectangle" x="186.52" y="20.66" width="24.84" height="24.84"></rect>
                    <rect id="Rectangle" x="335.56" y="20.66" width="24.84" height="24.84"></rect>
                    <rect id="Rectangle" x="62.32" y="95.18" width="24.84" height="24.84"></rect>
                    <path d="M87.16,45.5 L70.57,45.5 C67.71,49.6 64.97,53.71 62.32,57.83 L62.32,70.34 L87.16,70.34 L87.16,45.5 Z" id="Path"></path>
                    <rect id="Rectangle" x="136.84" y="20.66" width="24.84" height="24.84"></rect>
                    <rect id="Rectangle" x="112" y="45.5" width="24.84" height="24.84"></rect>
                    <rect id="Rectangle" x="335.56" y="169.7" width="24.84" height="24.84"></rect>
                    <polygon id="Path" points="385.24 169.7 385.24 190.6 389.18 194.54 410.08 194.54 410.08 169.7"></polygon>
                    <polygon id="Path" points="410.08 194.54 410.08 215.39 414.07 219.38 434.92 219.38 434.92 194.54"></polygon>
                    <rect id="Rectangle" x="434.92" y="219.38" width="24.84" height="24.84"></rect>
                    <rect id="Rectangle" x="360.4" y="45.5" width="24.84" height="24.84"></rect>
                    <rect id="Rectangle" x="360.4" y="144.86" width="24.84" height="24.84"></rect>
                    <rect id="Rectangle" x="434.92" y="269.06" width="24.84" height="24.84"></rect>
                    <rect id="Rectangle" x="459.76" y="343.58" width="24.84" height="24.84"></rect>
                    <path d="M487.41,368.42 L484.59,368.42 L484.59,381.37 C485.56,377.2 486.51,372.87 487.41,368.42 Z" id="Path"></path>
                    <path d="M434.92,318.74 L434.92,330.01 C436.94,334.42 438.84,338.94 440.51,343.58 L459.76,343.58 L459.76,318.74 L434.92,318.74 Z" id="Path"></path>
                    <rect id="Rectangle" x="211.36" y="343.58" width="24.84" height="24.84"></rect>
                    <rect id="Rectangle" x="161.68" y="343.58" width="24.84" height="24.84"></rect>
                    <rect id="Rectangle" x="136.84" y="318.74" width="24.84" height="24.84"></rect>
                    <rect id="Rectangle" x="136.84" y="219.38" width="24.84" height="24.84"></rect>
                    <rect id="Rectangle" x="335.56" y="219.38" width="24.84" height="24.84"></rect>
                    <rect id="Rectangle" x="136.84" y="269.06" width="24.84" height="24.84"></rect>
                    <rect id="Rectangle" x="335.56" y="318.74" width="24.84" height="24.84"></rect>
                    <rect id="Rectangle" x="335.56" y="269.06" width="24.84" height="24.84"></rect>
                    <rect id="Rectangle" x="261.04" y="343.58" width="24.84" height="24.84"></rect>
                    <rect id="Rectangle" x="310.72" y="343.58" width="24.84" height="24.84"></rect>
                    <rect id="Rectangle" x="12.64" y="194.54" width="24.84" height="24.84"></rect>
                    <rect id="Rectangle" x="335.56" y="70.34" width="24.84" height="24.84"></rect>
                    <rect id="Rectangle" x="360.4" y="95.18" width="24.84" height="24.84"></rect>
                    <rect id="Rectangle" x="385.24" y="70.34" width="24.84" height="24.84"></rect>
                    <rect id="Rectangle" x="310.72" y="95.18" width="24.84" height="24.84"></rect>
                    <rect id="Rectangle" x="310.72" y="45.5" width="24.84" height="24.84"></rect>
                    <rect id="Rectangle" x="285.88" y="120.02" width="24.84" height="24.84"></rect>
                    <rect id="Rectangle" x="161.68" y="45.5" width="24.84" height="24.84"></rect>
                    <rect id="Rectangle" x="211.36" y="45.5" width="24.84" height="24.84"></rect>
                    <rect id="Rectangle" x="261.04" y="45.5" width="24.84" height="24.84"></rect>
                    <rect id="Rectangle" x="186.52" y="120.02" width="24.84" height="24.84"></rect>
                    <rect id="Rectangle" x="186.52" y="169.7" width="24.84" height="24.84"></rect>
                    <rect id="Rectangle" x="285.88" y="169.7" width="24.84" height="24.84"></rect>
                    <rect id="Rectangle" x="186.52" y="70.34" width="24.84" height="24.84"></rect>
                    <rect id="Rectangle" x="186.52" y="219.38" width="24.84" height="24.84"></rect>
                    <rect id="Rectangle" x="136.84" y="70.34" width="24.84" height="24.84"></rect>
                    <rect id="Rectangle" x="285.88" y="219.38" width="24.84" height="24.84"></rect>
                    <rect id="Rectangle" x="285.88" y="269.06" width="24.84" height="24.84"></rect>
                    <rect id="Rectangle" x="261.04" y="293.9" width="24.84" height="24.84"></rect>
                    <rect id="Rectangle" x="211.36" y="293.9" width="24.84" height="24.84"></rect>
                    <rect id="Rectangle" x="161.68" y="293.9" width="24.84" height="24.84"></rect>
                    <rect id="Rectangle" x="310.72" y="194.54" width="24.84" height="24.84"></rect>
                    <rect id="Rectangle" x="335.56" y="120.02" width="24.84" height="24.84"></rect>
                    <rect id="Rectangle" x="310.72" y="144.86" width="24.84" height="24.84"></rect>
                    <rect id="Rectangle" x="310.72" y="244.22" width="24.84" height="24.84"></rect>
                    <rect id="Rectangle" x="310.72" y="293.9" width="24.84" height="24.84"></rect>
                    <rect id="Rectangle" x="385.24" y="120.02" width="24.84" height="24.84"></rect>
                    <rect id="Rectangle" x="410.08" y="95.18" width="24.84" height="24.84"></rect>
                    <rect id="Rectangle" x="434.92" y="120.02" width="24.84" height="24.84"></rect>
                    <rect id="Rectangle" x="410.08" y="144.86" width="24.84" height="24.84"></rect>
                    <rect id="Rectangle" x="186.52" y="318.74" width="24.84" height="24.84"></rect>
                    <rect id="Rectangle" x="161.68" y="194.54" width="24.84" height="24.84"></rect>
                    <rect id="Rectangle" x="161.68" y="144.86" width="24.84" height="24.84"></rect>
                    <rect id="Rectangle" x="136.84" y="120.02" width="24.84" height="24.84"></rect>
                    <rect id="Rectangle" x="87.16" y="120.02" width="24.84" height="24.84"></rect>
                    <rect id="Rectangle" x="236.2" y="318.74" width="24.84" height="24.84"></rect>
                    <rect id="Rectangle" x="87.16" y="70.34" width="24.84" height="24.84"></rect>
                    <rect id="Rectangle" x="285.88" y="318.74" width="24.84" height="24.84"></rect>
                    <rect id="Rectangle" x="161.68" y="244.22" width="24.84" height="24.84"></rect>
                    <path d="M434.92,70.34 L434.92,57.83 C432.27,53.71 429.52,49.6 426.67,45.5 L410.08,45.5 L410.08,70.34 L434.92,70.34 Z" id="Path"></path>
                </g>
            </g>
            <g id="Croat_SS" opacity="0" transform="translate(225.000000, 287.000000)" fill="#FFFFFF" fill-rule="nonzero">
                <g id="Group">
                    <rect id="Rectangle" x="229.2" y="219.38" width="24.84" height="24.84"></rect>
                    <rect id="Rectangle" x="254.04" y="95.18" width="24.84" height="24.84"></rect>
                    <rect id="Rectangle" x="303.72" y="95.18" width="24.84" height="24.84"></rect>
                    <rect id="Rectangle" x="353.4" y="95.18" width="24.84" height="24.84"></rect>
                    <rect id="Rectangle" x="154.68" y="95.18" width="24.84" height="24.84"></rect>
                    <rect id="Rectangle" x="328.56" y="219.38" width="24.84" height="24.84"></rect>
                    <rect id="Rectangle" x="303.72" y="343.58" width="24.84" height="24.84"></rect>
                    <rect id="Rectangle" x="229.2" y="269.06" width="24.84" height="24.84"></rect>
                    <rect id="Rectangle" x="229.2" y="169.7" width="24.84" height="24.84"></rect>
                    <rect id="Rectangle" x="254.04" y="343.58" width="24.84" height="24.84"></rect>
                    <rect id="Rectangle" x="204.36" y="244.22" width="24.84" height="24.84"></rect>
                    <rect id="Rectangle" x="254.04" y="194.54" width="24.84" height="24.84"></rect>
                    <rect id="Rectangle" x="254.04" y="244.22" width="24.84" height="24.84"></rect>
                    <rect id="Rectangle" x="353.4" y="194.54" width="23.65" height="24.84"></rect>
                    <rect id="Rectangle" x="229.2" y="120.02" width="24.84" height="24.84"></rect>
                    <rect id="Rectangle" x="328.56" y="269.06" width="24.84" height="24.84"></rect>
                    <rect id="Rectangle" x="204.36" y="194.54" width="24.84" height="24.84"></rect>
                    <rect id="Rectangle" x="204.36" y="95.18" width="24.84" height="24.84"></rect>
                    <rect id="Rectangle" x="328.56" y="318.74" width="24.84" height="24.84"></rect>
                    <rect id="Rectangle" x="204.36" y="144.86" width="24.84" height="24.84"></rect>
                    <path d="M477.02,169.7 C476.96,169.48 476.91,169.26 476.85,169.04 C476.44,167.47 476.02,165.9 475.58,164.33 C475.49,163.99 475.4,163.65 475.3,163.31 C474.75,161.34 474.19,159.37 473.6,157.39 C473.55,157.23 473.5,157.07 473.46,156.91 C472.94,155.15 472.4,153.38 471.84,151.61 C471.68,151.11 471.52,150.61 471.36,150.1 C470.89,148.63 470.42,147.17 469.94,145.7 C469.85,145.42 469.75,145.13 469.66,144.85 L452.76,144.85 L452.76,169.69 L477.02,169.69 L477.02,169.7 Z" id="Path"></path>
                    <rect id="Rectangle" x="55.32" y="194.54" width="24.84" height="13.23"></rect>
                    <rect id="Rectangle" x="106.19" y="194.54" width="23.65" height="24.84"></rect>
                    <rect id="Rectangle" x="105" y="95.18" width="24.84" height="24.84"></rect>
                    <rect id="Rectangle" x="106.19" y="293.9" width="23.65" height="24.84"></rect>
                    <path d="M5.59,172.11 C4.65,175.84 3.76,179.55 2.93,183.25 C2.92,183.28 2.92,183.31 2.91,183.34 C2.52,185.09 2.15,186.83 1.78,188.57 C1.68,189.07 1.58,189.57 1.47,190.08 C1.21,191.35 0.95,192.63 0.71,193.9 C0.67,194.11 0.63,194.32 0.59,194.53 L5.63,194.53 L5.63,171.91 C5.62,171.98 5.6,172.05 5.59,172.11 Z" id="Path"></path>
                    <rect id="Rectangle" x="5.64" y="194.54" width="24.84" height="13.23"></rect>
                    <path d="M13.57,144.86 C13.48,145.14 13.38,145.43 13.29,145.71 C12.8,147.18 12.33,148.64 11.87,150.11 C11.71,150.61 11.55,151.11 11.39,151.62 C10.83,153.39 10.29,155.17 9.77,156.94 C9.73,157.09 9.68,157.24 9.63,157.39 C9.05,159.37 8.48,161.34 7.93,163.31 C7.84,163.65 7.75,163.99 7.65,164.33 C7.22,165.9 6.79,167.47 6.38,169.04 C6.32,169.26 6.27,169.48 6.21,169.7 L30.48,169.7 L30.48,144.86 L13.57,144.86 L13.57,144.86 Z" id="Path"></path>
                    <rect id="Rectangle" x="427.92" y="120.02" width="24.84" height="24.84"></rect>
                    <rect id="Rectangle" x="106.19" y="343.58" width="23.65" height="24.84"></rect>
                    <rect id="Rectangle" x="328.56" y="368.42" width="24.84" height="24.84"></rect>
                    <rect id="Rectangle" x="353.4" y="343.58" width="23.65" height="24.84"></rect>
                    <rect id="Rectangle" x="353.4" y="293.9" width="23.65" height="24.84"></rect>
                    <rect id="Rectangle" x="353.4" y="244.22" width="23.65" height="24.84"></rect>
                    <rect id="Rectangle" x="278.88" y="368.42" width="24.84" height="24.84"></rect>
                    <rect id="Rectangle" x="129.84" y="368.42" width="24.84" height="24.84"></rect>
                    <rect id="Rectangle" x="179.52" y="368.42" width="24.84" height="24.84"></rect>
                    <rect id="Rectangle" x="229.2" y="368.42" width="24.84" height="24.84"></rect>
                    <rect id="Rectangle" x="106.19" y="244.22" width="23.65" height="24.84"></rect>
                    <rect id="Rectangle" x="452.76" y="194.54" width="24.84" height="13.23"></rect>
                    <rect id="Rectangle" x="204.36" y="343.58" width="24.84" height="24.84"></rect>
                    <path d="M482.52,193.9 C482.27,192.63 482.02,191.35 481.76,190.08 C481.66,189.58 481.56,189.08 481.45,188.57 C481.09,186.83 480.71,185.09 480.32,183.34 C480.31,183.31 480.31,183.28 480.3,183.25 C479.48,179.55 478.59,175.84 477.64,172.11 C477.62,172.04 477.61,171.98 477.59,171.91 L477.59,194.53 L482.63,194.53 C482.6,194.32 482.56,194.11 482.52,193.9 Z" id="Path"></path>
                    <path d="M459.96,118.9 C459.54,117.88 459.11,116.87 458.68,115.85 C458.56,115.57 458.44,115.3 458.32,115.02 C456.55,110.9 454.7,106.77 452.75,102.64 L452.75,120.01 L460.41,120.01 C460.27,119.65 460.12,119.28 459.96,118.9 Z" id="Path"></path>
                    <rect id="Rectangle" x="403.08" y="194.54" width="24.84" height="13.23"></rect>
                    <rect id="Rectangle" x="403.08" y="144.86" width="24.84" height="24.84"></rect>
                    <path d="M47.6,70.34 C45.22,74.36 42.94,78.39 40.74,82.42 C40.59,82.7 40.44,82.98 40.28,83.26 C39.35,84.98 38.43,86.71 37.53,88.43 C37.37,88.74 37.2,89.05 37.04,89.36 C36.09,91.2 35.15,93.04 34.23,94.88 C34.18,94.98 34.13,95.07 34.08,95.17 L55.31,95.17 L55.31,70.33 L47.6,70.33 L47.6,70.34 Z" id="Path"></path>
                    <path d="M449.15,95.18 C449.1,95.08 449.05,94.99 449,94.89 C448.08,93.05 447.15,91.21 446.19,89.37 C446.03,89.06 445.86,88.75 445.7,88.43 C444.8,86.71 443.88,84.98 442.95,83.26 C442.8,82.98 442.64,82.69 442.49,82.41 C440.29,78.38 438.01,74.35 435.63,70.33 L427.91,70.33 L427.91,95.17 L449.15,95.17 L449.15,95.18 Z" id="Path"></path>
                    <rect id="Rectangle" x="55.32" y="144.86" width="24.84" height="24.84"></rect>
                    <path d="M179.52,0.62 C177.45,1.08 175.37,1.56 173.3,2.06 C173.28,2.06 173.26,2.07 173.25,2.07 C167.01,3.58 160.8,5.3 154.68,7.15 L154.68,20.67 L179.52,20.67 L179.52,0.62 L179.52,0.62 Z" id="Path"></path>
                    <path d="M126.42,16.79 C126.42,16.79 126.41,16.79 126.41,16.8 C125.33,17.21 124.26,17.62 123.2,18.03 C123.11,18.06 123.02,18.1 122.93,18.13 C120.75,18.97 118.6,19.82 116.5,20.66 C116.5,20.66 116.5,20.66 116.5,20.66 L129.84,20.66 L129.84,15.52 C128.69,15.94 127.55,16.36 126.42,16.79 Z" id="Path"></path>
                    <path d="M229.2,18.12 C229.2,18.12 229.2,18.12 229.2,18.12 C226.16,17.74 223.14,17.21 220.15,16.55 C219.97,16.51 219.79,16.47 219.61,16.43 C218.78,16.24 217.96,16.04 217.14,15.83 C216.83,15.75 216.52,15.67 216.21,15.59 C215.43,15.38 214.65,15.17 213.88,14.94 C213.54,14.84 213.21,14.74 212.87,14.64 C212.1,14.41 211.33,14.17 210.56,13.92 C210.3,13.84 210.05,13.74 209.79,13.66 C207.97,13.04 206.16,12.38 204.37,11.65 L204.37,20.66 L229.21,20.66 L229.21,18.12 L229.2,18.12 Z" id="Path"></path>
                    <path d="M105,25.42 C105,25.42 105,25.42 105,25.42 C101.37,26.97 97.91,28.49 94.66,29.96 C94.66,29.96 94.65,29.96 94.65,29.97 C92.49,30.94 90.42,31.89 88.44,32.81 C88.43,32.82 88.41,32.82 88.4,32.83 C87.43,33.28 86.48,33.73 85.55,34.16 C85.51,34.18 85.48,34.19 85.44,34.21 C83.58,35.09 81.82,35.93 80.17,36.73 C80.17,36.73 80.16,36.73 80.16,36.74 L80.16,45.5 L105,45.5 L105,25.42 Z" id="Path"></path>
                    <path d="M403.08,36.74 C403.08,36.74 403.07,36.74 403.07,36.73 C401.42,35.93 399.66,35.09 397.8,34.21 C397.76,34.19 397.73,34.18 397.69,34.16 C396.77,33.72 395.82,33.28 394.84,32.83 C394.83,32.82 394.81,32.82 394.8,32.81 C392.82,31.89 390.75,30.94 388.59,29.97 C388.59,29.97 388.58,29.97 388.58,29.96 C385.32,28.49 381.87,26.97 378.24,25.42 C378.24,25.42 378.24,25.42 378.24,25.42 L378.24,45.49 L403.08,45.49 L403.08,36.74 Z" id="Path"></path>
                    <path d="M278.88,11.65 C277.09,12.38 275.28,13.04 273.46,13.66 C273.2,13.75 272.95,13.84 272.69,13.92 C271.92,14.17 271.15,14.41 270.38,14.64 C270.04,14.74 269.71,14.85 269.37,14.94 C268.59,15.17 267.82,15.38 267.04,15.59 C266.73,15.67 266.42,15.75 266.11,15.83 C265.29,16.04 264.46,16.24 263.64,16.43 C263.46,16.47 263.28,16.51 263.1,16.55 C260.1,17.21 257.08,17.74 254.05,18.12 C254.05,18.12 254.05,18.12 254.05,18.12 L254.05,20.65 L278.89,20.65 L278.89,11.65 L278.88,11.65 Z" id="Path"></path>
                    <path d="M366.74,20.66 C364.63,19.81 362.49,18.97 360.31,18.13 C360.22,18.1 360.13,18.06 360.04,18.03 C358.98,17.62 357.91,17.21 356.83,16.8 C356.83,16.8 356.82,16.8 356.82,16.79 C355.69,16.36 354.55,15.94 353.41,15.51 L353.41,20.65 L366.74,20.66 C366.74,20.66 366.74,20.66 366.74,20.66 Z" id="Path"></path>
                    <path d="M328.56,7.14 C322.44,5.29 316.23,3.58 309.99,2.06 C309.97,2.06 309.95,2.05 309.94,2.05 C307.87,1.55 305.79,1.07 303.72,0.61 L303.72,20.65 L328.56,20.65 L328.56,7.14 Z" id="Path"></path>
                    <path d="M24.91,115.02 C24.79,115.3 24.67,115.57 24.55,115.85 C24.12,116.87 23.69,117.88 23.27,118.9 C23.12,119.27 22.96,119.64 22.81,120.01 L30.47,120.01 L30.47,102.64 C28.53,106.77 26.68,110.9 24.91,115.02 Z" id="Path"></path>
                    <rect id="Rectangle" x="129.84" y="120.02" width="24.84" height="24.84"></rect>
                    <rect id="Rectangle" x="154.68" y="194.54" width="24.84" height="24.84"></rect>
                    <rect id="Rectangle" x="154.68" y="144.86" width="24.84" height="24.84"></rect>
                    <rect id="Rectangle" x="179.52" y="20.66" width="24.84" height="24.84"></rect>
                    <rect id="Rectangle" x="154.68" y="244.22" width="24.84" height="24.84"></rect>
                    <rect id="Rectangle" x="254.04" y="144.86" width="24.84" height="24.84"></rect>
                    <rect id="Rectangle" x="229.2" y="20.66" width="24.84" height="24.84"></rect>
                    <rect id="Rectangle" x="80.16" y="70.34" width="24.84" height="24.84"></rect>
                    <rect id="Rectangle" x="129.84" y="70.34" width="24.84" height="24.84"></rect>
                    <rect id="Rectangle" x="204.36" y="45.5" width="24.84" height="24.84"></rect>
                    <path d="M80.16,45.5 L63.57,45.5 C62.21,47.45 60.89,49.4 59.58,51.35 C59.37,51.66 59.17,51.97 58.96,52.28 C57.85,53.94 56.76,55.6 55.69,57.26 C55.56,57.46 55.44,57.65 55.31,57.85 L55.31,70.35 L80.15,70.35 L80.15,45.5 L80.16,45.5 Z" id="Path"></path>
                    <rect id="Rectangle" x="179.52" y="318.74" width="24.84" height="24.84"></rect>
                    <rect id="Rectangle" x="105" y="45.5" width="24.84" height="24.84"></rect>
                    <rect id="Rectangle" x="80.16" y="120.02" width="24.84" height="24.84"></rect>
                    <rect id="Rectangle" x="129.84" y="20.66" width="24.84" height="24.84"></rect>
                    <rect id="Rectangle" x="154.68" y="45.5" width="24.84" height="24.84"></rect>
                    <path d="M427.92,70.34 L427.92,57.84 C427.79,57.64 427.67,57.45 427.54,57.25 C426.47,55.59 425.38,53.93 424.27,52.27 C424.06,51.96 423.86,51.65 423.65,51.34 C422.34,49.39 421.01,47.44 419.66,45.49 L403.07,45.49 L403.07,70.33 L427.92,70.33 L427.92,70.34 Z" id="Path"></path>
                    <rect id="Rectangle" x="328.56" y="169.7" width="24.84" height="24.84"></rect>
                    <rect id="Rectangle" x="303.72" y="194.54" width="24.84" height="24.84"></rect>
                    <rect id="Rectangle" x="353.4" y="144.86" width="24.84" height="24.84"></rect>
                    <rect id="Rectangle" x="427.92" y="169.7" width="24.84" height="24.84"></rect>
                    <rect id="Rectangle" x="403.08" y="95.18" width="24.84" height="24.84"></rect>
                    <polygon id="Path" points="378.24 169.7 378.24 190.6 382.18 194.54 403.08 194.54 403.08 169.7"></polygon>
                    <rect id="Rectangle" x="278.88" y="318.74" width="24.84" height="24.84"></rect>
                    <rect id="Rectangle" x="278.88" y="20.66" width="24.84" height="24.84"></rect>
                    <rect id="Rectangle" x="328.56" y="20.66" width="24.84" height="24.84"></rect>
                    <rect id="Rectangle" x="229.2" y="318.74" width="24.84" height="24.84"></rect>
                    <rect id="Rectangle" x="353.4" y="45.5" width="24.84" height="24.84"></rect>
                    <rect id="Rectangle" x="303.72" y="293.9" width="24.84" height="24.84"></rect>
                    <rect id="Rectangle" x="303.72" y="244.22" width="24.84" height="24.84"></rect>
                    <rect id="Rectangle" x="154.68" y="293.9" width="24.84" height="24.84"></rect>
                    <rect id="Rectangle" x="179.52" y="219.38" width="24.84" height="24.84"></rect>
                    <rect id="Rectangle" x="179.52" y="169.7" width="24.84" height="24.84"></rect>
                    <rect id="Rectangle" x="129.84" y="219.38" width="24.84" height="24.84"></rect>
                    <rect id="Rectangle" x="179.52" y="269.06" width="24.84" height="24.84"></rect>
                    <rect id="Rectangle" x="129.84" y="169.7" width="24.84" height="24.84"></rect>
                    <rect id="Rectangle" x="129.84" y="269.06" width="24.84" height="24.84"></rect>
                    <rect id="Rectangle" x="204.36" y="293.9" width="24.84" height="24.84"></rect>
                    <rect id="Rectangle" x="179.52" y="120.02" width="24.84" height="24.84"></rect>
                    <rect id="Rectangle" x="154.68" y="343.58" width="24.84" height="24.84"></rect>
                    <rect id="Rectangle" x="278.88" y="120.02" width="24.84" height="24.84"></rect>
                    <rect id="Rectangle" x="278.88" y="70.34" width="24.84" height="24.84"></rect>
                    <rect id="Rectangle" x="229.2" y="70.34" width="24.84" height="24.84"></rect>
                    <rect id="Rectangle" x="179.52" y="70.34" width="24.84" height="24.84"></rect>
                    <rect id="Rectangle" x="129.84" y="318.74" width="24.84" height="24.84"></rect>
                    <rect id="Rectangle" x="254.04" y="45.5" width="24.84" height="24.84"></rect>
                    <rect id="Rectangle" x="254.04" y="293.9" width="24.84" height="24.84"></rect>
                    <rect id="Rectangle" x="378.24" y="70.34" width="24.84" height="24.84"></rect>
                    <rect id="Rectangle" x="378.24" y="120.02" width="24.84" height="24.84"></rect>
                    <rect id="Rectangle" x="30.48" y="120.02" width="24.84" height="24.84"></rect>
                    <rect id="Rectangle" x="30.48" y="169.7" width="24.84" height="24.84"></rect>
                    <rect id="Rectangle" x="278.88" y="269.06" width="24.84" height="24.84"></rect>
                    <rect id="Rectangle" x="55.32" y="95.18" width="24.84" height="24.84"></rect>
                    <rect id="Rectangle" x="303.72" y="45.5" width="24.84" height="24.84"></rect>
                    <rect id="Rectangle" x="328.56" y="70.34" width="24.84" height="24.84"></rect>
                    <rect id="Rectangle" x="278.88" y="169.7" width="24.84" height="24.84"></rect>
                    <rect id="Rectangle" x="278.88" y="219.38" width="24.84" height="24.84"></rect>
                    <rect id="Rectangle" x="105" y="144.86" width="24.84" height="24.84"></rect>
                    <rect id="Rectangle" x="328.56" y="120.02" width="24.84" height="24.84"></rect>
                    <polygon id="Path" points="80.16 194.54 101.05 194.54 105 190.6 105 169.7 80.16 169.7"></polygon>
                    <rect id="Rectangle" x="303.72" y="144.86" width="24.84" height="24.84"></rect>
                </g>
            </g>
            <g id="ShortSleeve_cuff" opacity="0" transform="translate(223.000000, 476.000000)" fill="#C1272D" fill-rule="nonzero">
                <g id="Group">
                    <path d="M3.62,0.41 C2.35,6.57 1.23,12.7 0.27,18.77 L89.8,18.77 L108.19,0.41 L3.62,0.41 Z" id="Path"></path>
                    <path d="M486.97,18.77 C486.01,12.7 484.89,6.57 483.62,0.41 L379.04,0.41 L397.43,18.77 L486.97,18.77 Z" id="Path"></path>
                </g>
            </g>
            <g id="Cuff" opacity="0" transform="translate(225.000000, 645.000000)" fill="#C1272D" fill-rule="nonzero">
                <g id="Group">
                    <path d="M437.81,0.24 C440.21,11.06 440.99,22.63 439.01,35.25 L474.69,35.25 C477.42,24.7 480.06,12.96 482.38,0.24 L437.81,0.24 Z" id="Path"></path>
                    <path d="M0.86,0.24 C3.17,12.96 5.82,24.7 8.55,35.25 L44.23,35.25 C42.25,22.63 43.03,11.06 45.43,0.24 L0.86,0.24 Z" id="Path"></path>
                </g>
            </g>
            <g id="Neckline" opacity="0" transform="translate(380.000000, 286.000000)" fill="#F15A24" fill-rule="nonzero">
                <path d="M86.62,40.04 C119.68,40.04 149.93,27.99 173.21,8.04 C163.97,5.25 154.51,2.78 145.1,0.85 L145.1,0.85 C110.26,26.28 62.98,26.28 28.14,0.85 L28.14,0.85 C18.72,2.78 9.27,5.26 0.03,8.04 C23.31,27.98 53.55,40.04 86.62,40.04 Z" id="Path"></path>
            </g>
            <g id="Pectoral_Shadow" opacity="0" transform="translate(331.000000, 428.000000)" fill="#008000" fill-rule="nonzero">
                <g id="Group" opacity="0.1">
                    <polygon id="Path" points="0.19 0.99 0.19 67.46 77.82 67.46"></polygon>
                    <polygon id="Path" points="271.31 0.99 271.31 67.46 193.68 67.46"></polygon>
                </g>
                <polygon id="Path" opacity="0.1" points="203.2 450.84 178.21 394.28 135.62 394.28 161.9 450.84"></polygon>
            </g>
            <g id="Goalkeeper_glove" opacity="0" transform="translate(230.000000, 679.000000)" fill-rule="nonzero">
                <g id="Group">
                    <g transform="translate(391.000000, 0.000000)" id="Path">
                        <path d="M43.52,0.45 L2.05,0.45 L0.52,62.93 L60.94,62.93 L59.1,62.93 C59.1,62.93 72.61,39.29 82.19,0.45 L43.52,0.45 Z" fill="#333333"></path>
                        <path d="M69.82,39.49 C53.69,45.09 31.38,49.98 0.8,51.94 L0.53,62.93 L59.11,62.93 C59.1,62.93 63.91,54.51 69.82,39.49 Z" fill="#008000" opacity="0.1"></path>
                    </g>
                    <g id="Path">
                        <path d="M38.72,0.45 L80.19,0.45 L81.72,62.93 L21.3,62.93 L23.14,62.93 C23.14,62.93 9.63,39.29 0.05,0.45 L38.72,0.45 Z" fill="#333333"></path>
                        <path d="M12.42,39.49 C28.55,45.09 50.86,49.98 81.44,51.94 L81.71,62.93 L23.13,62.93 C23.14,62.93 18.33,54.51 12.42,39.49 Z" fill="#008000" opacity="0.1"></path>
                    </g>
                </g>
            </g>
            <g id="Goalkeeper_glove_strap" opacity="0" transform="translate(222.000000, 653.000000)" fill="#4D4D4D" fill-rule="nonzero">
                <g id="Group">
                    <path d="M488.34,0.39 L438.44,0.39 C439.41,8.62 439.37,17.27 437.9,26.46 L482.22,26.46 C484.34,18.39 486.41,9.69 488.34,0.39 Z" id="Path"></path>
                    <path d="M0.9,0.39 L50.8,0.39 C49.83,8.62 49.87,17.27 51.34,26.46 L7.02,26.46 C4.9,18.39 2.82,9.69 0.9,0.39 Z" id="Path"></path>
                </g>
            </g>
            <g id="Badge_shield" opacity="0" transform="translate(517.000000, 348.000000)" fill="#FBE03B" fill-rule="nonzero">
                <path d="M0.5,0.18 L0.5,22.88 C0.5,42.74 12.7,60.57 31.22,67.76 L31.22,67.76 L31.22,67.76 C49.74,60.57 61.94,42.75 61.94,22.88 L61.94,0.18 L0.5,0.18 Z" id="Path"></path>
            </g>
            <g id="Badge_stripe" opacity="0" transform="translate(521.000000, 348.000000)" fill="#8CC63F" fill-rule="nonzero">
                <path d="M57.93,0.18 L40.97,0.18 L0.08,41.07 C2.85,47.86 7.15,53.93 12.64,58.81 L57.93,13.52 L57.93,0.18 L57.93,0.18 Z" id="Path"></path>
            </g>
            <g id="Badge_circle" opacity="0" transform="translate(519.000000, 350.000000)" fill="#F15A24" fill-rule="nonzero">
                <circle id="Oval" cx="29.22" cy="29.33" r="20.61"></circle>
                <g id="Group">
                    <path d="M29.22,58.33 C13.23,58.33 0.22,45.32 0.22,29.33 C0.22,13.34 13.23,0.33 29.22,0.33 C45.21,0.33 58.22,13.34 58.22,29.33 C58.22,45.32 45.21,58.33 29.22,58.33 Z M29.22,5.34 C15.99,5.34 5.23,16.1 5.23,29.33 C5.23,42.56 15.99,53.32 29.22,53.32 C42.45,53.32 53.21,42.56 53.21,29.33 C53.21,16.1 42.45,5.34 29.22,5.34 Z" id="Shape"></path>
                </g>
            </g>
            <g id="Badge_star" opacity="0" transform="translate(530.000000, 360.000000)" fill="#008000" fill-rule="nonzero">
                <polygon id="Path" points="18.22 0.7 22.6 13.8 36.41 13.92 25.31 22.14 29.46 35.31 18.22 27.3 6.97 35.31 11.12 22.14 0.02 13.92 13.83 13.8"></polygon>
            </g>
            <g id="squad_number" opacity="0" transform="translate(317.000000, 860.000000)" fill="#008000" font-family="Helvetica" font-size="13" font-weight="normal">
                <text id="5">
                    <tspan x="0.6237" y="13.7186">5</tspan>
                </text>
            </g>
            <g id="captain_x27_s_armband" opacity="0" transform="translate(603.000000, 428.000000)" fill-rule="nonzero">
                <path d="M103.63,48.39 C100.41,32.8 96.17,16.96 90.71,0.99 L0.24,0.99 L0.24,49.6 L0.24,49.6 L103.62,48.41 L103.63,48.39 Z" id="Path" fill="#0071BC"></path>
                <g id="Group" transform="translate(55.000000, 3.000000)" fill="#FFFFFF">
                    <polygon id="Path" points="33.12 17.26 21.3 17.26 21.3 11.89 19.88 10.48 13.61 10.48 12.19 11.9 12.19 32.71 13.61 34.13 19.88 34.13 21.3 32.71 21.3 27.54 33.12 27.54 33.12 36.9 26.21 43.81 7.29 43.81 0.38 36.91 0.38 7.7 7.29 0.8 26.21 0.8 33.12 7.68"></polygon>
                </g>
            </g>
        </g>
    </g>
</svg>